<?xml version="1.0" encoding="utf-8"?>
<!-- Generator: Adobe Illustrator 25.4.1, SVG Export Plug-In . SVG Version: 6.00 Build 0)  -->
<svg version="1.1" id="Layer_1" xmlns="http://www.w3.org/2000/svg" xmlns:xlink="http://www.w3.org/1999/xlink" x="0px" y="0px"
	 viewBox="0 0 540 590.4" style="enable-background:new 0 0 540 590.4;" xml:space="preserve">
<style type="text/css">
	.st0{fill:#F1F2F2;}
	.st1{fill:#68B3CE;}
	.st2{fill:#FFFFFF;}
</style>
<g>
	<path class="st0" d="M306.74,63.13c9.54-6.25,16.81-13.26,12.66-18.46c-9.54-11.92-33.39,6.56-33.39,6.56s31.6-44.71,12.52-42.33
		c-19.08,2.38-45.91,34.58-45.91,34.58s-0.6-0.6-22.06-16.1c-19.46-14.05-8.54,17.46,7.88,35.02
		C105.83,80.96,6.35,213.7,6.35,351.11c0,148.17,117.07,233.7,265.23,233.7s262.85-85.53,262.85-233.7
		C534.43,215.37,437.01,84.19,306.74,63.13z"/>
	<path class="st1" d="M296.09,140.26c1.84,3.27,3.48,7.44,4.64,12.92c2.63,12.47-16.64-7.55-18.43-11.13
		c-1.79-3.58-2.04,18.68-9.2,23.45c-7.15,4.77-5.96-26.23-5.96-26.23s-4.77,4.17-20.27,12.52c-12.76,6.87-5.99-2.17,2.67-12.1
		c-88.35,9.42-155.54,78-157.37,161.2c-0.33,14.85,34.34,10.18,85.26,22.11c27.16,6.36,31.07,11,92.95,11.43
		c58.21,0.4,74.5-4.63,102.88-12.22c43.08-11.53,75.33-4.77,75.33-21.31C448.6,219.19,382.34,151.6,296.09,140.26z M216.53,266.81
		c-22.13,14.89-56.09,16.06-67.67-1.15c-11.58-17.21,3.6-46.28,25.73-61.17c22.13-14.89,53.95-21.92,69.26,1.55
		C260.04,230.83,238.66,251.92,216.53,266.81z M395.78,265.65c-11.58,17.21-45.54,16.04-67.67,1.15
		c-22.13-14.89-43.5-35.97-27.32-60.77c15.31-23.47,47.14-16.44,69.26-1.55C392.17,219.38,407.36,248.45,395.78,265.65z"/>
	<g>
		<path class="st2" d="M216.53,266.81c-22.13,14.89-56.09,16.06-67.67-1.15c-11.58-17.21,3.6-46.28,25.73-61.17
			s53.95-21.92,69.26,1.55C260.04,230.83,238.66,251.92,216.53,266.81z"/>
		<circle cx="226.57" cy="230.48" r="15.3"/>
	</g>
	<g>
		<path class="st2" d="M328.11,266.81c22.13,14.89,56.09,16.06,67.67-1.15c11.58-17.21-3.6-46.28-25.73-61.17
			s-53.95-21.92-69.26,1.55C284.6,230.83,305.98,251.92,328.11,266.81z"/>
		<circle cx="318.08" cy="230.48" r="15.3"/>
	</g>
	<g>
		<path d="M261.45,288.6c-2.71-2.96-19.12,4.07-25.38,11.91c-6.27,7.83-5.95,10.34-3.13,13.47c2.82,3.13,14.41-2.51,21-9.4
			C260.51,297.69,264.9,292.36,261.45,288.6z"/>
		<path d="M283.19,288.6c2.71-2.96,19.12,4.07,25.38,11.91c6.27,7.83,5.95,10.34,3.13,13.47c-2.82,3.13-14.41-2.51-21-9.4
			C284.13,297.69,279.75,292.36,283.19,288.6z"/>
	</g>
	<path d="M226.62,288.31c11.13-6.96,34.18-20.67,46.5-20.27s35.57,10.17,45.91,19.28c15.1,13.31,9.54-0.6-11.92-12.52
		c-19.44-10.8-27.62-10.73-34.78-10.73s-20.58,4.73-34.78,12.92C222.05,285.92,206.57,300.84,226.62,288.31z"/>
	<path d="M456.98,391.47c-0.04,0-0.09,0-0.13,0c-0.57-0.02-1.16-0.05-1.75-0.07c-0.12-0.01-0.23-0.01-0.35-0.01
		c-0.71-0.04-1.42-0.08-2.15-0.13c-3.18-0.22-6.49-0.45-9.8-0.62c0,0,0,0,0,0l-10.31,30.19c-0.25,0.72-0.65,0.72-0.9,0l-9.99-29.26
		c-0.43,0.1-0.83,0.22-1.24,0.34c-0.14,0.04-0.29,0.09-0.43,0.13c-0.33,0.1-0.64,0.22-0.95,0.33c-0.24,0.09-0.46,0.19-0.69,0.29
		c-0.22,0.09-0.44,0.19-0.64,0.29c-0.43,0.22-0.85,0.44-1.22,0.7c-0.55,0.37-1.11,0.78-1.67,1.2c-0.09,0.07-0.19,0.14-0.28,0.21
		c-0.53,0.41-1.06,0.83-1.59,1.27c-0.16,0.13-0.31,0.26-0.47,0.39c-0.41,0.34-0.83,0.69-1.25,1.04c-0.73,0.61-1.47,1.23-2.21,1.83
		l-12.52,36.66c-0.25,0.72-0.65,0.72-0.9,0l-9.18-26.89c-0.45,0.09-0.92,0.17-1.42,0.24c-0.02,0-0.04,0.01-0.06,0.01
		c-0.49,0.07-1,0.13-1.54,0.18c-0.04,0-0.08,0.01-0.11,0.01c-0.54,0.05-1.1,0.08-1.7,0.11c-0.04,0-0.08,0-0.12,0
		c-0.61,0.02-1.26,0.04-1.94,0.04c-0.4,0-0.78,0.01-1.15,0.02c-0.01,0-0.02,0-0.03,0c-0.36,0.01-0.71,0.03-1.04,0.04c0,0,0,0,0,0
		l-16.69,54.18c-0.33,1.08-0.87,1.08-1.21,0l-14.95-48.51h0c-0.8,0.1-1.59,0.21-2.37,0.32c-0.12,0.02-0.23,0.04-0.34,0.05
		c-0.65,0.1-1.29,0.2-1.92,0.3c-0.26,0.04-0.52,0.09-0.78,0.13c-0.49,0.08-0.98,0.16-1.46,0.25c-0.33,0.06-0.66,0.12-0.99,0.18
		c-0.45,0.08-0.9,0.16-1.35,0.24l-10.83,31.7c-0.25,0.72-0.65,0.72-0.9,0l-10.21-29.89c-0.71-0.03-1.39-0.07-2.04-0.11
		c-0.07,0-0.14-0.01-0.21-0.01c-1.33-0.09-2.56-0.19-3.68-0.31c-0.01,0-0.02,0-0.03,0c-0.54-0.06-1.05-0.12-1.55-0.18
		c-0.06-0.01-0.13-0.02-0.19-0.02c-1.01-0.13-1.94-0.27-2.8-0.41c-0.06-0.01-0.12-0.02-0.18-0.03c-0.36-0.06-0.7-0.12-1.03-0.18
		c-0.09-0.02-0.17-0.03-0.26-0.05c-0.37-0.07-0.72-0.13-1.06-0.2l-11.91,34.87c-0.25,0.72-0.65,0.72-0.9,0l-11.07-32.41c0,0,0,0,0,0
		c-0.38,0.02-0.78,0.04-1.18,0.05c-0.08,0-0.17,0-0.26,0.01c-0.36,0.01-0.73,0.02-1.1,0.02c-0.05,0-0.1,0-0.16,0
		c-0.44,0-0.9,0-1.37-0.01c-0.04,0-0.07,0-0.11,0c-0.44-0.01-0.89-0.02-1.35-0.04c-0.06,0-0.12,0-0.18-0.01
		c-1.02-0.04-2.09-0.11-3.24-0.2c-0.04,0-0.08-0.01-0.12-0.01c-1.18-0.09-2.42-0.21-3.76-0.36l-11.26,32.95
		c-0.25,0.72-0.65,0.72-0.9,0l-11.8-34.54c0,0,0,0,0,0c-1.72,0.14-3.34,0.33-4.95,0.49c-0.4,0.04-0.81,0.08-1.21,0.12
		c-0.09,0.01-0.18,0.02-0.27,0.02c-0.47,0.04-0.95,0.08-1.43,0.11c-0.05,0-0.11,0.01-0.16,0.01c-0.49,0.03-0.99,0.06-1.5,0.08
		c-0.01,0-0.02,0-0.03,0c-0.51,0.02-1.04,0.03-1.57,0.03c-0.07,0-0.15,0-0.22,0c-0.54,0-1.1-0.01-1.67-0.02l-10.32,30.22
		c-0.25,0.72-0.65,0.72-0.9,0l-11.93-34.93c0,0-0.01,0-0.01,0c-0.36-0.11-0.7-0.22-1.03-0.33c-0.24-0.08-0.47-0.15-0.69-0.22
		c-0.06-0.02-0.11-0.04-0.17-0.05c-0.56-0.17-1.09-0.34-1.62-0.49c-0.04-0.01-0.08-0.02-0.12-0.03c-0.25-0.07-0.49-0.14-0.74-0.2
		c-0.02,0-0.03-0.01-0.05-0.01c-0.53-0.14-1.07-0.27-1.62-0.38c-0.04-0.01-0.07-0.01-0.11-0.02c-0.27-0.06-0.54-0.11-0.82-0.16
		l-16.08,52.17c-0.33,1.08-0.87,1.08-1.21,0l-16.45-53.37c0,0,0,0,0,0c-1.69-0.14-3.33-0.3-4.91-0.5c-0.02,0-0.05-0.01-0.07-0.01
		c-0.77-0.1-1.52-0.2-2.25-0.31c-0.02,0-0.05-0.01-0.07-0.01c-0.74-0.11-1.46-0.24-2.15-0.37h0l-9.1,26.63
		c-0.25,0.72-0.65,0.72-0.9,0l-11.51-33.69c-0.53-0.24-1.05-0.48-1.57-0.74c-0.12-0.06-0.24-0.12-0.35-0.18
		c-0.39-0.2-0.78-0.4-1.16-0.62c-0.16-0.09-0.32-0.18-0.48-0.27c-0.36-0.21-0.72-0.42-1.08-0.65c-0.15-0.09-0.3-0.18-0.45-0.28
		c-0.5-0.32-1-0.65-1.5-1.01c-0.67-0.47-1.32-0.91-1.97-1.33c-0.05-0.03-0.1-0.07-0.15-0.1c-0.63-0.4-1.26-0.78-1.87-1.13
		c-0.05-0.03-0.1-0.06-0.15-0.09c-0.63-0.35-1.24-0.68-1.86-0.98c-0.03-0.01-0.06-0.03-0.08-0.04c-0.63-0.31-1.26-0.59-1.89-0.85
		l-9.06,26.54c-0.25,0.72-0.65,0.72-0.9,0l-10-29.28c-1.71,0.01-3.52,0.04-5.44,0.06c-0.78,0.01-1.58,0.02-2.4,0.03
		c-0.13,0-0.26,0-0.38,0c-0.9,0.01-1.83,0.01-2.79,0.01c-0.66,0-1.31-0.01-1.95-0.02c-0.26,0-0.52-0.01-0.78-0.02
		c-0.36-0.01-0.73-0.02-1.08-0.03c-0.34-0.01-0.68-0.03-1.02-0.04c-0.25-0.01-0.51-0.02-0.76-0.03c-0.39-0.02-0.77-0.04-1.15-0.07
		c-0.18-0.01-0.37-0.02-0.55-0.03c-0.43-0.03-0.84-0.06-1.26-0.1c-0.12-0.01-0.25-0.02-0.37-0.03c-0.46-0.04-0.9-0.08-1.34-0.13
		c-0.07-0.01-0.14-0.01-0.21-0.02c-0.48-0.05-0.95-0.1-1.41-0.16c-0.03,0-0.05-0.01-0.08-0.01c-0.49-0.06-0.97-0.12-1.44-0.19
		c4.28,13.41,18.62,36.62,42.15,60.81l10.72-18.84c0.38-0.66,0.77-0.59,0.88,0.17l4.87,34.36c3.89,3.43,8.35,7.15,13.31,11.01
		l13.46-23.65c0.38-0.66,0.77-0.59,0.88,0.17l5.32,37.47c5.79,3.74,12,7.42,18.56,10.9l18.24-38.21c0.49-1.02,1.02-0.94,1.19,0.18
		l7.71,50.23c2.96,1.09,5.97,2.11,9.02,3.07l9.44-27.62c0.23-0.66,0.59-0.66,0.82,0l11.27,32.99c2,0.37,4.01,0.71,6.04,1.01
		l9.85-28.83c0.23-0.66,0.59-0.66,0.82,0l10.44,30.56c0.9,0.02,1.79,0.05,2.7,0.05c1.2,0,2.39-0.04,3.58-0.07l10.43-30.55
		c0.23-0.66,0.59-0.66,0.82,0l9.8,28.7c2.07-0.32,4.11-0.67,6.15-1.06l11.21-32.81c0.23-0.66,0.59-0.66,0.82,0l9.35,27.37
		c2.38-0.76,4.72-1.56,7.04-2.39l6.25-50.64c0.14-1.12,0.67-1.21,1.19-0.21l19.92,38.74c6.75-3.55,13.13-7.3,19.08-11.13l5.36-37.76
		c0.11-0.76,0.5-0.83,0.88-0.17l13.59,23.88c4.87-3.78,9.27-7.44,13.12-10.82l4.93-34.78c0.11-0.76,0.5-0.83,0.88-0.17l10.88,19.11
		c23.4-24,37.78-47.07,42.26-60.6C464.69,391.51,461.04,391.6,456.98,391.47z"/>
	<path class="st1" d="M489.17,386.78c-2.35,22.62-29.22,61.87-64.33,93.41c-27.54,24.74-84.22,66.25-154.39,66.25
		s-126.85-41.5-154.39-66.25c-35.84-32.2-63.09-72.43-64.44-94.8c0,0,5.43,1.88,10.4,3.18s10.76,2.28,10.76,2.28
		c5.12,15.98,24.47,45.79,56.54,74.59c25.43,22.84,77.58,61.17,141.14,61.17s115.71-38.32,141.14-61.17
		c31.78-28.55,51.07-58.08,56.4-74.16c0,0,9.26-1.12,11.35-1.52S489.17,386.78,489.17,386.78z"/>
</g>
</svg>
