<?xml version="1.0" encoding="utf-8"?>
<!-- Generator: Adobe Illustrator 25.4.1, SVG Export Plug-In . SVG Version: 6.00 Build 0)  -->
<svg version="1.1" id="Layer_1" xmlns="http://www.w3.org/2000/svg" xmlns:xlink="http://www.w3.org/1999/xlink" x="0px" y="0px"
	 viewBox="0 0 590.4 446.4" style="enable-background:new 0 0 590.4 446.4;" xml:space="preserve">
<style type="text/css">
	.st0{fill:#F4D2BF;}
	.st1{fill:#E5BC9A;}
	.st2{fill:#FFFFFF;}
	.st3{fill:#F8F8F9;}
	.st4{fill:#ED1C24;}
</style>
<g>
	<path class="st0" d="M118.02,166.95c-20.96,0-63.13,0.26-94.31-76.49c-12.24-30.14-15.1-53.66-5.66-59.2
		c3.57-2.1,9.33-10.48,55.54-3.14c55.47,8.81,70.93,41.79,71.68,66.54c0.43,14.34-1.51,22.5,3.14,29.38
		C137.07,137.55,119.25,166.95,118.02,166.95z"/>
	<path class="st0" d="M472.38,166.95c-1.22,0-19.05-29.4-30.38-42.93c5.9-7.66,2.7-15.04,3.14-29.38
		c0.75-24.75,16.21-57.73,71.68-66.54c46.2-7.34,51.97,1.05,55.54,3.14c9.43,5.54,6.58,29.06-5.66,59.2
		C535.51,167.21,493.33,166.95,472.38,166.95z"/>
	<path class="st1" d="M577.59,22.87c-14.67-14.67-61.99-7.34-99.71,9.43s-48.91,36.75-60.61,66.02c-0.11,0.28-0.2,0.56-0.3,0.84
		c-33.09-27.31-75.51-43.72-121.76-43.72s-88.68,16.41-121.76,43.72c-0.1-0.28-0.19-0.56-0.3-0.84
		c-11.71-29.27-22.89-49.25-60.61-66.02S27.48,8.2,12.81,22.87s1.05,80.69,28.29,113.17s38.15,43.49,69.06,48.2
		c1.66,0.25,3.21-0.3,4.58-1.33c-7.09,20-10.96,41.52-10.96,63.94c0,105.71,85.7,191.41,191.41,191.41s191.41-85.7,191.41-191.41
		c0-22.43-3.87-43.94-10.96-63.94c1.37,1.03,2.92,1.59,4.58,1.33c30.91-4.72,41.82-15.72,69.06-48.2
		C576.54,103.56,592.26,37.54,577.59,22.87z M118.02,166.95c-20.96,0-63.13,0.26-94.31-76.49c-12.24-30.14-15.1-53.66-5.66-59.2
		c3.57-2.1,9.33-10.48,55.54-3.14c55.47,8.81,70.93,41.79,71.68,66.54c0.43,14.34-1.51,22.5,3.14,29.38
		C137.07,137.55,119.25,166.95,118.02,166.95z M472.38,166.95c-1.22,0-19.05-29.4-30.38-42.93c5.9-7.66,2.7-15.04,3.14-29.38
		c0.75-24.75,16.21-57.73,71.68-66.54c46.2-7.34,51.97,1.05,55.54,3.14c9.43,5.54,6.58,29.06-5.66,59.2
		C535.51,167.21,493.33,166.95,472.38,166.95z"/>
	<g>
		<g>
			<path class="st2" d="M415.78,282.53c-4.02,2.34-10.48,4.88-17.33,6.33c13.79-7.95,24.66-34.92,24.66-49.5
				c0-17.23-13.97-31.2-31.2-31.2c-12.83,0-23.84,7.75-28.64,18.82c0.67-5.65,1.61-11.15,2.86-16.08
				c3.36-13.27,12.3-48.51,31.07-49.86c12.41-0.9,32.73,13.81,39.13,49.29C445.87,263.29,418.89,280.72,415.78,282.53z"/>
			<path d="M359.82,271.85c2.24,11.2,8.12,17.32,19.67,20.47c2.67,0.73,5.57,1.04,8.58,1.04c10.9,0,23.07-4.18,29.7-8.04
				c3.34-1.95,34.2-20.63,24.2-76.08c-0.71-3.93-1.62-7.61-2.67-11.06c19.05-16.31,14.95-33.32,13.8-26.84
				c-1.51,8.52-9.58,15.3-15.85,20.91c-1.14-2.93-2.39-5.66-3.73-8.2c15.52-18.51,9.19-34.14,9-27.66
				c-0.25,8.36-6.82,16.01-12.12,22.34c-1.64-2.52-3.36-4.82-5.15-6.89c12.41-21.11,3.37-35.62,4.3-29.17
				c1.24,8.56-4.31,17.54-8.5,24.83c-8.37-7.76-17.4-11.11-24-10.62c-21.46,1.55-30.87,38.68-34.42,52.66
				C357.82,228.52,357.17,258.61,359.82,271.85z M363.38,226.55c0.67-5.65,1.61-11.15,2.86-16.08c3.36-13.27,12.3-48.51,31.07-49.86
				c12.41-0.9,32.73,13.81,39.13,49.29c9.54,52.95-17.44,70.38-20.55,72.2c-4.02,2.34-10.48,4.88-17.33,6.33
				c13.79-7.95,24.66-34.92,24.66-49.5c0-17.23-13.97-31.2-31.2-31.2C379.18,207.73,368.17,215.48,363.38,226.55z"/>
		</g>
		<g>
			<path class="st2" d="M154.07,209.29c6.39-35.49,26.71-50.19,39.13-49.29c18.78,1.35,27.71,36.59,31.07,49.86
				c1.25,4.94,2.19,10.43,2.86,16.08c-4.79-11.07-15.81-18.82-28.64-18.82c-17.23,0-31.2,13.97-31.2,31.2
				c0,14.58,10.87,41.55,24.66,49.5c-6.85-1.45-13.31-3.98-17.33-6.33C171.51,279.67,144.53,262.24,154.07,209.29z"/>
			<path d="M227.77,208.5c-3.54-13.98-12.96-51.11-34.42-52.66c-6.6-0.49-15.63,2.85-24,10.62c-4.19-7.29-9.74-16.27-8.5-24.83
				c0.93-6.45-8.11,8.06,4.3,29.17c-1.79,2.07-3.52,4.37-5.15,6.89c-5.3-6.34-11.87-13.98-12.12-22.34c-0.19-6.48-6.52,9.15,9,27.66
				c-1.35,2.54-2.6,5.27-3.73,8.2c-6.26-5.61-14.34-12.39-15.85-20.91c-1.15-6.48-5.25,10.53,13.8,26.84
				c-1.06,3.46-1.96,7.13-2.67,11.06c-9.99,55.45,20.87,74.13,24.2,76.08c6.63,3.87,18.8,8.04,29.7,8.04c3,0,5.91-0.32,8.58-1.04
				c11.55-3.15,17.43-9.27,19.67-20.47C233.23,257.57,232.58,227.47,227.77,208.5z M198.38,206.68c-17.23,0-31.2,13.97-31.2,31.2
				c0,14.58,10.87,41.55,24.66,49.5c-6.85-1.45-13.31-3.98-17.33-6.33c-3.11-1.81-30.09-19.24-20.55-72.2
				c6.39-35.49,26.71-50.19,39.13-49.29c18.78,1.35,27.71,36.59,31.07,49.86c1.25,4.94,2.19,10.43,2.86,16.08
				C222.23,214.43,211.22,206.68,198.38,206.68z"/>
		</g>
	</g>
	<path class="st3" d="M358.19,359.87c0,29.13-29.23,56.47-62.99,56.47s-62.99-27.34-62.99-56.47s29.23-49.02,62.99-49.02
		S358.19,330.75,358.19,359.87z"/>
	<g>
		<path d="M327.55,321.34c0,13.12-14.16,17.46-32.03,17.46c-17.87,0-32.67-4.35-32.67-17.46s14.48-23.75,32.35-23.75
			S327.55,308.22,327.55,321.34z"/>
		<ellipse class="st2" cx="295.24" cy="313.23" rx="5.76" ry="3.21"/>
	</g>
	<path d="M253.8,372.68c7.66,3.56,17.84,10.65,42.34,10.52c24.89-0.13,37.07-8.01,40.36-10.27c7.97-5.45-12.2,22.45-40.36,22.71
		C269.94,395.89,245.49,368.82,253.8,372.68z"/>
	<g>
		<path class="st2" d="M187.96,68.14c0.21-0.01,0.41-0.03,0.63-0.03c5.11,0,9.24,4.14,9.24,9.24c0,3.96-2.49,7.33-5.99,8.65
			C188.4,80.27,187.67,73.9,187.96,68.14z"/>
		<path class="st4" d="M278.68,41.11c-4.54-5.29-15-12.11-27.45-18.39c0.01,0.17,0.03,0.35,0.03,0.52c0,5.11-4.14,9.24-9.24,9.24
			c-5.11,0-9.24-4.14-9.24-9.24c0-2.99,1.42-5.64,3.63-7.33c-1.97-0.82-3.96-1.61-5.94-2.37c-16.16-6.16-28.89-6.74-37.09-0.72
			c4.16,0.9,7.27,4.6,7.27,9.03c0,5.11-4.14,9.24-9.24,9.24c-2.37,0-4.52-0.9-6.16-2.36c-0.07,9.84,5.87,19.7,5,24.71
			c-0.56,3.21-1.98,8.6-2.28,14.66c0.22-0.02,0.44-0.03,0.66-0.03c5.11,0,9.24,4.14,9.24,9.24c0,3.98-2.52,7.36-6.05,8.66
			c0.43,0.72,0.9,1.44,1.42,2.14c9.01,12.11,30.97,12.83,43.91,8.08c12.94-4.75,38.67-21.68,39.37-23.35
			c0.69-1.66-3.24-5.63-3.24-16.79S278.68,41.11,278.68,41.11z M205.26,47.89c0-5.11,4.14-9.24,9.24-9.24
			c5.11,0,9.24,4.14,9.24,9.24s-4.14,9.24-9.24,9.24C209.4,57.13,205.26,52.99,205.26,47.89z M228.83,92.11
			c-5.11,0-9.24-4.14-9.24-9.24s4.14-9.24,9.24-9.24c5.11,0,9.24,4.14,9.24,9.24S233.94,92.11,228.83,92.11z M256.1,65.45
			c-5.11,0-9.24-4.14-9.24-9.24s4.14-9.24,9.24-9.24s9.24,4.14,9.24,9.24S261.21,65.45,256.1,65.45z"/>
		<circle class="st2" cx="214.47" cy="47.93" r="9.24"/>
		<circle class="st2" cx="256.07" cy="56.25" r="9.24"/>
		<circle class="st2" cx="228.8" cy="82.9" r="9.24"/>
		<path class="st2" d="M185.24,28.8c0.01-3.25,0.68-6.49,2.46-9.56c1.52-2.63,3.41-4.75,5.62-6.38c4.16,0.9,7.28,4.6,7.28,9.03
			c0,5.11-4.14,9.24-9.24,9.24C189.01,31.13,186.87,30.25,185.24,28.8z"/>
		<path class="st2" d="M236.4,15.91c5.07,2.11,10.07,4.41,14.79,6.78c0.01,0.19,0.03,0.39,0.03,0.58c0,5.11-4.14,9.24-9.24,9.24
			c-5.11,0-9.24-4.14-9.24-9.24C232.72,20.27,234.17,17.6,236.4,15.91z"/>
		<path class="st4" d="M318.85,58.64c0.15,12.56-9.58,19.41-21.26,19.41c-11.68,0-20.95-6.86-21.03-19.41
			c-0.11-18.14,10.28-22.65,21.96-22.65S318.64,41.3,318.85,58.64z"/>
		<path class="st2" d="M407.46,67.68c-0.21-0.01-0.41-0.03-0.63-0.03c-5.11,0-9.24,4.14-9.24,9.24c0,3.96,2.49,7.33,5.99,8.65
			C407.01,79.81,407.74,73.44,407.46,67.68z"/>
		<path class="st4" d="M322.13,55.59c0,11.16-3.93,15.13-3.24,16.79c0.69,1.66,26.42,18.6,39.37,23.35
			c12.94,4.75,34.9,4.04,43.91-8.08c0.52-0.7,0.99-1.41,1.42-2.14c-3.53-1.3-6.05-4.68-6.05-8.66c0-5.11,4.14-9.24,9.24-9.24
			c0.22,0,0.44,0.02,0.66,0.03c-0.3-6.07-1.72-11.45-2.28-14.66c-0.87-5.01,5.08-14.87,5-24.71c-1.64,1.46-3.79,2.36-6.16,2.36
			c-5.11,0-9.24-4.14-9.24-9.24c0-4.43,3.12-8.12,7.27-9.03c-8.19-6.02-20.93-5.44-37.09,0.72c-1.98,0.76-3.96,1.55-5.94,2.37
			c2.2,1.69,3.63,4.34,3.63,7.33c0,5.11-4.14,9.24-9.24,9.24c-5.11,0-9.24-4.14-9.24-9.24c0-0.18,0.02-0.35,0.03-0.52
			c-12.45,6.28-22.91,13.11-27.45,18.39C316.74,40.65,322.13,44.43,322.13,55.59z M380.91,56.67c-5.11,0-9.24-4.14-9.24-9.24
			s4.14-9.24,9.24-9.24s9.24,4.14,9.24,9.24S386.01,56.67,380.91,56.67z M357.33,82.4c0-5.11,4.14-9.24,9.24-9.24
			s9.24,4.14,9.24,9.24s-4.14,9.24-9.24,9.24S357.33,87.51,357.33,82.4z M330.06,55.75c0-5.11,4.14-9.24,9.24-9.24
			s9.24,4.14,9.24,9.24s-4.14,9.24-9.24,9.24S330.06,60.85,330.06,55.75z"/>
		<circle class="st2" cx="380.95" cy="47.47" r="9.24"/>
		<circle class="st2" cx="339.35" cy="55.79" r="9.24"/>
		<circle class="st2" cx="366.62" cy="82.44" r="9.24"/>
		<path class="st2" d="M410.18,28.34c-0.01-3.25-0.68-6.49-2.46-9.56c-1.52-2.63-3.41-4.75-5.62-6.38c-4.16,0.9-7.28,4.6-7.28,9.03
			c0,5.11,4.14,9.24,9.24,9.24C406.41,30.67,408.55,29.79,410.18,28.34z"/>
		<path class="st2" d="M359.02,15.45c-5.07,2.11-10.07,4.41-14.79,6.78c-0.01,0.19-0.03,0.39-0.03,0.58c0,5.11,4.14,9.24,9.24,9.24
			s9.24-4.14,9.24-9.24C362.69,19.8,361.24,17.14,359.02,15.45z"/>
	</g>
</g>
</svg>
