<svg xmlns="http://www.w3.org/2000/svg" width="2160" height="1620" viewBox="0 0 2160 1620" version="1.1"><path d="M 938.153 48.537 C 897.959 52.181, 866.012 59.414, 846.379 69.314 C 832.711 76.206, 819.798 87.443, 814.625 96.947 C 811.565 102.569, 809.043 113.091, 809.017 120.343 C 808.994 126.798, 811.888 140.547, 817.995 163 C 827.765 198.919, 836.089 243.583, 836.353 261.500 L 836.500 271.500 825.701 271.224 C 810.609 270.839, 807.863 270.150, 806.741 266.471 C 802.954 254.047, 797.951 244.899, 791.713 238.988 C 787.317 234.823, 776.240 229.394, 769.266 227.988 C 766.095 227.348, 761.929 226.510, 760.009 226.127 C 756.676 225.461, 756.482 225.185, 755.748 220.081 C 754.578 211.953, 751.556 207.419, 745.251 204.334 C 738.832 201.194, 731.828 200.900, 724.152 203.450 C 717.751 205.576, 717.169 205.203, 712.686 196.102 C 709.492 189.620, 698.103 173.953, 687.081 160.881 C 684.011 157.240, 679.297 151.390, 676.604 147.881 C 669.892 139.132, 655.322 125.175, 648.848 121.292 C 643.039 117.808, 633.712 115, 627.949 115 C 622.017 115, 615.446 117.504, 608.774 122.306 C 590.920 135.156, 583.742 146.785, 579.953 169 C 579.249 173.125, 578.576 176.633, 578.457 176.796 C 578.338 176.959, 575.544 175.722, 572.248 174.047 C 554.719 165.139, 549.364 165.786, 535.369 178.500 C 531.131 182.350, 526.646 186.422, 525.403 187.548 C 524.160 188.675, 521.017 191.375, 518.417 193.548 C 502.011 207.266, 500.118 212.866, 507.778 225.015 C 509.333 227.482, 510.881 229.957, 511.217 230.515 C 511.615 231.178, 509.292 231.402, 504.526 231.161 C 495.551 230.708, 487.831 232.767, 482.411 237.060 C 475.360 242.646, 465.298 260.246, 456.692 282.046 C 448.026 303.999, 441.023 327.441, 441.007 334.554 C 440.992 341.191, 446.043 347.997, 456.487 355.410 C 458.375 356.750, 458.300 356.849, 454.987 357.394 C 453.069 357.709, 447.558 358.612, 442.741 359.399 C 431.460 361.243, 425.889 363.913, 423.685 368.533 C 422.758 370.477, 422 373.132, 422 374.432 C 422 379.093, 431.132 393.645, 445.574 412 C 453.282 421.795, 462.121 429.527, 468.219 431.809 C 474.166 434.034, 488.157 435.993, 498.130 435.997 L 504.760 436 505.194 442.001 C 505.548 446.901, 506.151 448.548, 508.479 450.978 C 514.844 457.622, 518.063 457.350, 545.413 447.859 C 567.484 440.200, 584.984 434.996, 588.603 435.015 C 590.196 435.023, 593.300 435.679, 595.500 436.471 C 598.410 437.520, 604.470 437.924, 617.743 437.956 L 635.987 438 642.926 451.853 C 650.254 466.481, 657.255 476.676, 664.883 483.829 C 673.630 492.030, 682.171 494.914, 700.080 495.712 C 710.433 496.174, 713.587 495.966, 717.895 494.535 C 720.774 493.579, 723.270 492.955, 723.441 493.148 C 723.612 493.342, 722.707 499.125, 721.428 506 C 716.365 533.227, 713.928 572.379, 715.921 594.500 C 718.015 617.745, 724.640 644.847, 732.858 663.796 C 735.023 668.788, 736.541 673.126, 736.231 673.436 C 735.921 673.746, 733.761 674, 731.433 674 C 724.961 674, 705.011 677.642, 690.246 681.519 C 675.110 685.494, 658.363 691.449, 646 697.253 C 635.430 702.215, 628.244 702.864, 609 700.594 C 585.948 697.876, 574.609 698.733, 557.412 704.491 C 528.090 714.310, 503.301 735.439, 490.072 761.889 C 478.090 785.844, 474.881 804.563, 478.480 829.500 C 480.758 845.286, 486.008 862.874, 491.211 872.153 L 493.260 875.807 487.305 882.726 C 473.580 898.672, 469.285 913.156, 473.492 929.307 C 477.632 945.202, 487.391 957.060, 502.500 964.554 C 520.148 973.307, 537.599 972.858, 559.826 963.076 C 578.749 954.749, 601.066 940.405, 613.943 928.292 C 615.837 926.511, 617.571 925.237, 617.796 925.462 C 618.021 925.687, 617.687 929.760, 617.055 934.513 C 616.422 939.266, 615.875 951.107, 615.838 960.827 C 615.762 981.139, 617.664 991.837, 623.197 1002.218 C 628.721 1012.583, 639.417 1019.952, 651.260 1021.553 C 660.179 1022.758, 659.828 1022.498, 658.912 1027.236 C 657.471 1034.683, 657.869 1074.552, 659.491 1085.312 C 665.755 1126.870, 683.506 1172.991, 703.743 1200.288 C 707.326 1205.121, 709.991 1209.343, 709.664 1209.669 C 709.338 1209.995, 703.768 1210.245, 697.286 1210.223 C 687.730 1210.192, 682.094 1209.487, 667.500 1206.497 C 651.415 1203.202, 648.383 1202.865, 639 1203.326 C 609.287 1204.788, 599.193 1218.373, 594.396 1263.356 C 589.702 1307.376, 598.423 1350.481, 625.177 1415.500 C 651.576 1479.659, 676.344 1510.628, 724.527 1539.728 C 748.108 1553.970, 777.338 1565.597, 809.449 1573.507 C 838.351 1580.627, 844.394 1581.415, 870.500 1581.460 C 892.583 1581.498, 893.959 1581.385, 905 1578.620 C 925.874 1573.392, 949.113 1564.361, 966.500 1554.720 C 987.015 1543.345, 997.147 1534.531, 1002.747 1523.190 C 1006.144 1516.313, 1006.500 1514.827, 1006.500 1507.546 C 1006.500 1500.625, 1006.068 1498.591, 1003.412 1493 C 996.598 1478.654, 979.659 1465.090, 945.446 1446.581 C 925.042 1435.543, 911.307 1426.178, 892.612 1410.558 C 883.571 1403.005, 877.750 1396.847, 878.734 1395.877 C 879.155 1395.462, 885.800 1391.234, 893.500 1386.481 C 910.478 1376.002, 923.002 1369.892, 941.500 1363.066 C 949.200 1360.225, 959.396 1356.068, 964.158 1353.828 L 972.815 1349.756 988.658 1356.506 C 1038.200 1377.615, 1090.030 1405.781, 1145 1441.468 C 1201.139 1477.913, 1217.776 1487.901, 1242.500 1500.005 C 1262.884 1509.984, 1278.252 1516.503, 1287.895 1519.261 C 1297.680 1522.059, 1313.475 1522.224, 1323 1519.627 C 1338.754 1515.331, 1353.890 1504.942, 1362.181 1492.734 C 1367.265 1485.247, 1374.832 1468.014, 1382.497 1446.469 C 1392.573 1418.143, 1394.455 1408.886, 1403.419 1343.500 C 1414.489 1262.759, 1416.447 1242.399, 1416.398 1208.500 C 1416.360 1181.414, 1415.343 1166.204, 1412.313 1147.398 L 1410.686 1137.295 1417.392 1121.494 C 1427.375 1097.970, 1431.659 1081.272, 1434.105 1056.349 C 1435.547 1041.650, 1434.715 1010.441, 1432.496 996 C 1428.506 970.039, 1419.246 939.074, 1408.026 914.172 C 1405.715 909.041, 1403.976 904.712, 1404.162 904.553 C 1404.348 904.393, 1408.997 903.706, 1414.493 903.028 C 1431.177 900.968, 1447.556 895.252, 1456.652 888.316 C 1458.386 886.994, 1459.961 886.309, 1460.152 886.794 C 1460.458 887.569, 1469.915 895.995, 1478.421 903.070 C 1480.028 904.407, 1482.082 906.175, 1482.985 907 C 1494.424 917.452, 1527.008 942.392, 1543.255 953.132 C 1565.266 967.682, 1581.968 974.761, 1599.926 977.152 C 1611.244 978.659, 1620.290 977.221, 1629.974 972.377 C 1642.598 966.061, 1646.514 960.040, 1646.475 947 C 1646.452 939.410, 1646.105 937.836, 1643.237 932.303 C 1638.033 922.263, 1619.593 901.674, 1604.903 889.500 C 1591.855 878.687, 1582.162 872.021, 1552.500 853.464 C 1533.616 841.649, 1509 825.238, 1509 824.463 C 1509 824.240, 1510.056 821.669, 1511.347 818.749 C 1520.905 797.138, 1516.431 769.104, 1499.497 744.500 C 1493.272 735.455, 1490.086 732.036, 1481.285 724.961 C 1470.669 716.425, 1456.403 710.050, 1447.836 710.012 C 1445.487 710.001, 1444.688 709.002, 1441.097 701.583 C 1432.798 684.436, 1419.358 667.212, 1408.687 660.049 C 1401.592 655.285, 1392.912 651.632, 1380.096 648.015 C 1364.065 643.491, 1361.062 641.989, 1354.920 635.422 C 1338.225 617.575, 1335.492 615.010, 1330.180 612.211 C 1313.260 603.294, 1301.689 606.848, 1281.938 627.029 L 1272.376 636.799 1261.438 628.331 C 1255.422 623.674, 1249.237 618.623, 1247.694 617.106 L 1244.887 614.349 1248.510 602.424 C 1260.179 564.016, 1263.903 541.601, 1264.703 504.950 L 1265.282 478.401 1270.570 488.964 C 1276.679 501.166, 1284.882 510.723, 1292 513.929 C 1297.902 516.587, 1309.300 516.627, 1326 514.048 C 1351.826 510.060, 1367.460 505.652, 1384.649 497.514 C 1402.664 488.984, 1410.240 482.839, 1414.869 473 C 1417.029 468.410, 1417.452 466.094, 1417.431 459 C 1417.395 446.857, 1415.078 437.123, 1404.818 406 C 1388.813 357.451, 1382.182 340.867, 1369.310 317.202 C 1358.822 297.920, 1357.818 296.598, 1351.651 293.945 C 1347.416 292.123, 1345.513 291.874, 1340.043 292.426 C 1315.137 294.937, 1277.652 307.690, 1258.360 320.214 C 1248.403 326.679, 1240.706 333.013, 1219.127 352.500 C 1211.590 359.307, 1209.488 366.464, 1212.511 375.030 C 1213.342 377.385, 1213.888 379.446, 1213.724 379.609 C 1213.561 379.772, 1211.811 378.465, 1209.836 376.703 C 1204.515 371.958, 1190.008 360.638, 1182.704 355.532 C 1173.325 348.975, 1149.881 335.178, 1139.321 330 C 1134.274 327.525, 1130.111 325.245, 1130.072 324.934 C 1130.032 324.623, 1131.715 323.404, 1133.812 322.226 C 1140.844 318.274, 1146.809 312.133, 1150.089 305.471 C 1152.766 300.034, 1153.183 298.220, 1152.805 293.668 C 1152.269 287.202, 1146.941 275.474, 1140.331 266.211 C 1136.038 260.195, 1122.288 243.764, 1119.652 241.500 C 1119.012 240.950, 1117.255 239.006, 1115.749 237.179 L 1113.010 233.858 1120.957 218.179 C 1125.328 209.556, 1131.457 198.225, 1134.577 193 C 1142.525 179.693, 1149.062 165.954, 1149.696 161.227 C 1150.488 155.323, 1147.824 148.567, 1140.281 137.352 C 1123.421 112.284, 1113.672 101.917, 1090.500 84.419 C 1073.128 71.300, 1055.970 62.834, 1033.824 56.453 C 1002.818 47.519, 974.881 45.208, 938.153 48.537 M 1211.665 680.623 C 1209.006 684.220, 1206.981 687.275, 1207.165 687.411 C 1207.349 687.546, 1212.321 690.381, 1218.213 693.710 L 1228.926 699.762 1230.510 695.631 C 1231.382 693.359, 1232.922 690.410, 1233.932 689.077 L 1235.770 686.654 1226.831 680.327 C 1221.914 676.847, 1217.579 674.018, 1217.196 674.041 C 1216.813 674.064, 1214.324 677.025, 1211.665 680.623 " stroke="none" fill="#000000" fill-rule="evenodd"/><path d="M 1085.500 335.934 C 1079.450 337.498, 1064.382 341.995, 1052.016 345.927 C 1018.320 356.642, 1004.674 359.717, 978.363 362.521 C 929.281 367.752, 877.203 361.247, 838 344.989 C 831.125 342.138, 824.587 339.591, 823.470 339.328 C 817.995 338.041, 787.831 384.879, 764.892 430.288 C 752.015 455.777, 746.535 471.069, 740.628 498 C 733.469 530.641, 730.724 577.963, 734.456 604.406 C 737.402 625.283, 744.482 649.033, 752.546 665.091 L 756.861 673.683 771.180 674.303 C 806.407 675.829, 847.512 684.604, 884.500 698.493 C 897.949 703.543, 905.369 707.382, 907.898 710.598 C 910.311 713.665, 910.457 714.902, 908.829 718.477 C 907.058 722.362, 904.042 722.553, 897.374 719.202 C 879.216 710.075, 835.022 697.862, 802.165 692.892 C 784.876 690.277, 762.266 689.252, 759.111 690.941 C 757.356 691.880, 755.818 691.883, 752.178 690.953 C 748.416 689.993, 744.529 690.067, 732.333 691.332 C 706.069 694.056, 681.643 700.615, 654.648 712.194 C 636.050 720.172, 632.597 720.700, 613.645 718.464 C 591.248 715.822, 578.621 716.078, 567.600 719.398 C 549.812 724.755, 537.481 731.922, 523.719 744.903 C 511.776 756.168, 502.837 771.374, 497.445 789.600 C 492.704 805.624, 493.903 828.361, 500.578 849 C 504.011 859.614, 507.156 866, 508.951 866 C 509.490 866, 514.334 863.546, 519.716 860.548 C 534.655 852.223, 549.906 847.822, 558.334 849.403 C 562.602 850.204, 564.955 854.610, 563.186 858.491 C 562.055 860.974, 559.926 861.784, 548.655 864.024 C 534.951 866.748, 508.196 883.599, 498.772 895.441 C 491.792 904.213, 489.559 909.580, 489.597 917.500 C 489.682 935.552, 502.804 949.854, 522.112 952.938 C 533.177 954.706, 544.081 951.994, 562 943.018 C 578.942 934.532, 592.318 924.944, 609.992 908.615 C 625.747 894.059, 630.333 892.180, 636.077 897.923 C 639.809 901.656, 639.844 904.676, 636.360 922.781 C 634.037 934.853, 633.707 939.141, 633.610 958.500 C 633.517 977.135, 633.779 981.418, 635.321 986.500 C 637.795 994.647, 641.182 999.522, 646.251 1002.230 C 650.127 1004.301, 651.773 1004.495, 665 1004.438 C 681.588 1004.366, 687.955 1003.062, 699.088 997.455 C 715.802 989.039, 724.047 973.854, 722.719 953.934 C 722.082 944.378, 717.851 933.488, 710.511 922.516 C 699.928 906.695, 681.301 892.036, 671.741 892.006 C 669.716 891.999, 664 886.878, 664 885.070 C 664 884.403, 664.563 883.230, 665.250 882.463 C 665.938 881.697, 667.131 880.325, 667.901 879.415 C 669.787 877.189, 682.959 877.872, 688 880.458 C 692.077 882.549, 703.304 891.368, 710.549 898.170 L 715.599 902.911 728.323 901.501 C 735.321 900.725, 743.848 899.331, 747.273 898.403 C 758.108 895.467, 795.522 880.211, 823.298 867.404 C 838.036 860.609, 852.230 854.290, 854.838 853.364 C 859.328 851.769, 859.726 851.774, 862.302 853.462 C 865.767 855.732, 866.697 859.287, 864.646 862.417 C 859.807 869.803, 783.253 903.826, 753.496 911.816 C 749.094 912.998, 741.278 914.401, 736.128 914.934 C 730.977 915.467, 726.580 916.086, 726.357 916.310 C 726.133 916.534, 727.976 920.943, 730.454 926.109 C 736.445 938.600, 738 945.173, 738 958 C 738 974.277, 734.281 985.571, 725.346 996.423 C 715.731 1008.103, 699.306 1016.598, 680.705 1019.513 C 677.806 1019.967, 676.651 1020.744, 675.813 1022.804 C 674.156 1026.877, 673.620 1052.856, 674.883 1067.936 C 678.925 1116.231, 700.389 1171.967, 725.834 1200.243 C 732.860 1208.050, 734.621 1212.578, 732.554 1217.526 C 731.031 1221.171, 729.504 1221.828, 716 1224.653 C 705.076 1226.937, 684.795 1226.924, 673 1224.624 C 651.743 1220.479, 643.822 1219.669, 635.782 1220.815 C 631.537 1221.420, 626.791 1222.574, 625.234 1223.379 C 616.673 1227.806, 610.856 1253.258, 610.896 1286.116 C 610.942 1322.989, 620.697 1361.212, 644.060 1416.059 C 666.191 1468.015, 686.164 1493.713, 724.314 1519.319 C 765.573 1547.012, 832.725 1566.771, 878.496 1564.687 C 923.003 1562.659, 989.805 1528.990, 989.972 1508.500 C 989.981 1507.400, 989.497 1504.727, 988.895 1502.560 C 986.729 1494.758, 968.223 1478.489, 951.163 1469.389 C 918.698 1452.073, 897.497 1437.868, 876.500 1419.366 C 868.055 1411.924, 834.823 1375.069, 825.896 1363.247 C 820.816 1356.518, 819.912 1352.088, 822.992 1349.008 C 827.930 1344.070, 832.529 1347.506, 853 1371.422 C 859.325 1378.811, 865.036 1384.889, 865.690 1384.929 C 866.345 1384.968, 872.545 1381.193, 879.468 1376.541 C 901.568 1361.689, 918.591 1352.904, 940.750 1344.915 C 945.837 1343.080, 950 1341.287, 950 1340.929 C 950 1340.220, 924.875 1332.975, 905 1327.955 C 889.836 1324.124, 878.481 1319.051, 877.649 1315.736 C 876.731 1312.078, 877.966 1309.257, 881.043 1307.982 C 883.463 1306.980, 885.077 1307.191, 891.698 1309.380 C 895.989 1310.799, 904.450 1313.108, 910.500 1314.512 C 965.485 1327.269, 988.433 1335.664, 1043 1362.980 C 1086.645 1384.828, 1114.341 1400.888, 1161.798 1431.868 C 1218.426 1468.834, 1241.733 1482.041, 1275.204 1496.130 C 1291.064 1502.806, 1295.650 1503.974, 1306.068 1503.988 C 1320.172 1504.008, 1332.850 1498.961, 1342.595 1489.449 C 1349.153 1483.048, 1355.399 1470.452, 1364.885 1444.500 C 1375.274 1416.079, 1377.693 1404.909, 1384.488 1354 C 1386.433 1339.425, 1388.242 1326.375, 1388.508 1325 C 1391.134 1311.409, 1397.874 1248.156, 1398.926 1227.223 C 1400.269 1200.522, 1397.072 1148.867, 1393.443 1138.627 C 1392.638 1136.357, 1390.321 1129.559, 1388.292 1123.521 C 1383.358 1108.829, 1372.036 1086.288, 1361.962 1071.098 C 1352.093 1056.216, 1337.252 1040.972, 1324.013 1032.116 C 1313.646 1025.182, 1309.456 1023.606, 1303.032 1024.223 C 1288.737 1025.596, 1274.328 1040.409, 1246.339 1082.500 C 1223.874 1116.284, 1208.153 1143.101, 1195.629 1169 C 1183.200 1194.703, 1171 1221.339, 1171 1222.772 C 1171 1223.564, 1169.737 1225.852, 1168.192 1227.856 C 1166.648 1229.860, 1163.267 1234.947, 1160.678 1239.159 C 1155.923 1246.897, 1150.117 1253, 1147.512 1253 C 1144.725 1253, 1140.943 1250.621, 1140.421 1248.540 C 1139.761 1245.912, 1141.040 1242.475, 1145.518 1234.834 C 1147.433 1231.566, 1149 1228.549, 1149 1228.129 C 1149 1227.709, 1146.412 1226.561, 1143.250 1225.578 C 1123.945 1219.577, 1091.147 1204.164, 1074.500 1193.270 C 1053.277 1179.381, 1013.301 1148.066, 1011.178 1143.668 C 1008.220 1137.538, 1013.692 1132.387, 1020.269 1135.111 C 1022.010 1135.833, 1035.150 1145.192, 1049.468 1155.909 C 1082.026 1180.279, 1089.236 1184.958, 1111 1195.843 C 1126.215 1203.453, 1153.230 1215, 1155.819 1215 C 1156.303 1215, 1160.657 1206.563, 1165.495 1196.250 C 1183.105 1158.709, 1186.791 1151.220, 1195.228 1135.840 C 1214.655 1100.426, 1247.884 1050.493, 1264.795 1031.302 C 1283.398 1010.191, 1301.971 1003.671, 1320.300 1011.817 C 1331.540 1016.813, 1349.537 1031.139, 1361.024 1044.235 C 1373.887 1058.900, 1390.899 1087.027, 1398.532 1106.250 C 1400.007 1109.963, 1401.555 1113, 1401.974 1113 C 1403.134 1113, 1408.743 1097.467, 1411.484 1086.662 C 1416.012 1068.813, 1417.386 1056.225, 1417.342 1033 C 1417.259 988.996, 1407.446 950.791, 1384.426 904.853 C 1365.730 867.542, 1331.262 818.354, 1299.445 783.578 C 1264.783 745.692, 1230.599 717.516, 1200.993 702.428 L 1193.879 698.802 1178.690 713.670 C 1162.202 729.809, 1148.258 741.468, 1144.235 742.477 C 1140.817 743.335, 1136.101 741.250, 1135.432 738.584 C 1134.461 734.716, 1136.686 731.433, 1145.668 723.477 C 1159.577 711.157, 1192.216 677.810, 1198.219 669.786 C 1205.076 660.619, 1211.940 649.276, 1216.010 640.382 C 1232.111 605.199, 1244.620 557.468, 1247.953 518.500 C 1249.299 502.765, 1249.321 478, 1247.989 478 C 1247.433 478, 1242.821 478.640, 1237.739 479.421 C 1232.658 480.203, 1225.462 481.139, 1221.749 481.501 C 1214.177 482.240, 1214.939 481.194, 1213.002 493.500 C 1208.260 523.620, 1200.704 545.202, 1188.451 563.617 C 1173.648 585.865, 1163.771 589.638, 1134 584.419 C 1100.799 578.599, 1067.791 563.771, 1038.500 541.518 C 1018.219 526.110, 1010.564 518.002, 996.820 497.368 L 988.500 484.877 982.500 485.484 C 979.200 485.817, 973.125 486.500, 969 487.001 C 956.691 488.496, 948.656 488.137, 935.403 485.500 C 928.492 484.125, 922.673 483, 922.471 483 C 921.403 483, 917 478.071, 917 476.875 C 917 476.108, 918.143 474.247, 919.540 472.740 C 921.619 470.499, 922.938 470.001, 926.790 470.006 C 929.381 470.009, 933.075 470.447, 935 470.979 C 951.288 475.482, 973.881 473.322, 998.880 464.871 C 1008.971 461.461, 1012.821 461.285, 1016.365 464.073 C 1021.490 468.103, 1018.845 472.813, 1008.896 477.375 L 1002.080 480.500 1010.229 492 C 1020.759 506.861, 1030.058 515.999, 1048.213 529.323 C 1071.240 546.225, 1087.824 554.980, 1111 562.470 C 1135.650 570.436, 1154.570 572.839, 1162.481 569.009 C 1169.126 565.793, 1180.381 549.699, 1186.267 535 C 1192.307 519.915, 1199.099 490.224, 1199.534 477 C 1199.875 466.638, 1205.238 446.604, 1208.904 442 C 1212.300 437.734, 1217.691 434.513, 1225 432.382 C 1228.025 431.500, 1230.876 430.430, 1231.335 430.004 C 1232.572 428.858, 1229.979 424.454, 1222.176 414.446 C 1204.738 392.081, 1176.756 369.880, 1137.538 347.297 C 1123.564 339.251, 1117.047 336.796, 1109.882 336.883 C 1105.502 336.935, 1103.871 336.515, 1102.477 334.975 C 1100.177 332.433, 1098.730 332.515, 1085.500 335.934 M 1082.500 340.446 C 1077.194 342.398, 1071.429 348.693, 1069.962 354.137 C 1066.279 367.800, 1074.410 384.632, 1094.175 404.262 C 1100.217 410.263, 1105.012 415.261, 1104.830 415.370 C 1104.649 415.478, 1101.230 417.698, 1097.233 420.303 L 1089.965 425.039 1088.913 422.269 C 1082.180 404.543, 1079.005 398.127, 1071.176 386.429 C 1064.064 375.803, 1053.910 365.732, 1047.405 362.855 C 1040.725 359.900, 1033.296 360.607, 1028.240 364.678 C 1019.523 371.698, 1016.524 382.791, 1017.249 405.335 C 1017.881 425.012, 1019.813 433.365, 1027.036 447.631 L 1032.671 458.763 1029.346 461.416 C 1024.676 465.142, 1024.060 468.400, 1027.436 471.528 C 1030.828 474.672, 1031.718 474.635, 1040.002 470.999 C 1047.061 467.901, 1060.489 465.206, 1063.366 466.310 C 1064.657 466.806, 1065 468.369, 1065 473.759 C 1065 487.529, 1069.840 499.160, 1079.458 508.500 C 1093.785 522.414, 1111.765 528.398, 1129.245 525.072 C 1137.679 523.467, 1153.999 515.415, 1163.825 508.011 C 1171.438 502.275, 1178.963 493.945, 1183.827 485.871 C 1187.490 479.791, 1191.948 468.053, 1192.945 461.861 C 1195.907 443.467, 1184.782 424.003, 1165.485 413.819 L 1158.509 410.137 1161.371 409.049 C 1176.601 403.259, 1183 399.356, 1183 395.857 C 1183 393.572, 1177.919 390, 1174.698 390.021 C 1172.053 390.039, 1163.952 392.488, 1157 395.373 C 1155.902 395.828, 1154.766 394.414, 1152.758 390.093 C 1145.511 374.495, 1133.648 361.243, 1116.905 350.044 C 1102.879 340.662, 1090.955 337.336, 1082.500 340.446 M 1086.250 356.116 C 1084.185 358.238, 1084.799 366.026, 1087.487 371.799 C 1089.972 377.139, 1099.857 390.905, 1101.250 390.967 C 1101.662 390.985, 1102 389.636, 1102 387.968 C 1102 383.490, 1104.455 378.403, 1107.619 376.328 C 1109.186 375.299, 1113.047 374.281, 1116.446 374 L 1122.488 373.500 1114.124 367.206 C 1109.524 363.745, 1103.562 359.798, 1100.874 358.436 C 1094.880 355.399, 1088.009 354.308, 1086.250 356.116 M 1035.647 379.750 C 1033.459 384.036, 1032 392.386, 1032 400.622 L 1032 408.145 1034.635 406.073 C 1038.120 403.331, 1046.607 403.248, 1051.814 405.905 C 1060.245 410.206, 1069.009 422.868, 1072.669 436.035 C 1074.374 442.164, 1074.412 442.209, 1076.139 440.077 C 1077.820 438.001, 1077.755 437.558, 1074.407 428.210 C 1067.024 407.597, 1057.853 391.879, 1047.489 382.078 C 1041.189 376.120, 1037.837 375.461, 1035.647 379.750 M 1308.017 626.705 C 1302.855 629.329, 1284.630 647.277, 1277.353 656.902 C 1273.859 661.524, 1271 665.596, 1271 665.951 C 1271 666.306, 1274.713 666.636, 1279.250 666.684 C 1288.952 666.787, 1297.390 669.497, 1306.186 675.336 C 1318.503 683.511, 1331.589 700.838, 1336.141 715 C 1341.791 732.573, 1336.246 755.061, 1322.956 768.477 C 1319.668 771.797, 1318.353 772.455, 1315.008 772.455 C 1312.804 772.455, 1311 772.600, 1311 772.778 C 1311 772.957, 1314.263 776.798, 1318.250 781.315 C 1322.237 785.831, 1328.425 793.215, 1332 797.723 L 1338.500 805.919 1345.678 805.960 C 1380.798 806.157, 1414.442 788.857, 1426.390 764.456 C 1431.883 753.238, 1433.456 737.535, 1430.489 723.529 C 1426.598 705.160, 1409.396 680.069, 1395 671.764 C 1392.525 670.336, 1386.450 667.960, 1381.500 666.485 C 1353.120 658.025, 1349.518 656, 1336.907 641.422 C 1332.181 635.959, 1326.453 630.200, 1324.180 628.624 C 1318.956 625.004, 1312.800 624.273, 1308.017 626.705 M 1268 682.889 C 1263.651 684.303, 1255.401 688.792, 1252.201 691.485 C 1248.840 694.312, 1243 705.057, 1243.001 708.410 C 1243.001 709.872, 1245.769 712.602, 1252.216 717.500 C 1263.413 726.005, 1279.115 740.320, 1296.500 757.872 C 1309.036 770.528, 1312.233 773.173, 1310.035 769.066 C 1308.168 765.577, 1308.940 762.410, 1313.056 756.662 C 1328.191 735.525, 1325.772 715.917, 1305.500 695.423 C 1296.040 685.860, 1289.285 682.574, 1278.500 682.288 C 1274.100 682.172, 1269.375 682.442, 1268 682.889 M 1447.477 732.773 C 1448.662 744.575, 1445.719 760.516, 1440.390 771.161 L 1438.056 775.823 1452.778 786.344 C 1460.875 792.130, 1473.125 800.938, 1480 805.916 C 1486.875 810.895, 1492.863 814.975, 1493.306 814.984 C 1495.383 815.025, 1498.383 805.154, 1498.797 796.920 C 1499.819 776.595, 1488.522 752.316, 1471.220 737.652 C 1464.969 732.354, 1452.948 726, 1449.177 726 C 1446.838 726, 1446.809 726.116, 1447.477 732.773 M 1384.500 815.488 C 1376.738 818.029, 1360.741 821, 1354.824 821 C 1352.721 821, 1351 821.246, 1351 821.547 C 1351 821.848, 1355.201 828.036, 1360.336 835.297 C 1369.720 848.566, 1385.963 874.047, 1389.790 881.500 C 1393.966 889.634, 1393.192 889.322, 1406.053 888.060 C 1419.110 886.780, 1429.317 884.263, 1438.289 880.110 C 1449.711 874.823, 1449.806 875.934, 1436.820 862.929 C 1425.399 851.490, 1419.698 845.132, 1402.088 824.192 C 1396.911 818.037, 1392.411 813.044, 1392.088 813.099 C 1391.764 813.153, 1388.350 814.228, 1384.500 815.488" stroke="none" fill="#ffffff" fill-rule="evenodd"/><path d="M 1235.025 635.750 C 1233.737 638.913, 1230.734 645.418, 1228.352 650.208 L 1224.022 658.915 1227.261 661.327 C 1235.310 667.319, 1247.640 675, 1249.211 675 C 1250.392 675, 1252.069 672.554, 1254.505 667.282 C 1256.467 663.037, 1259.463 657.395, 1261.164 654.744 C 1262.865 652.093, 1264.087 649.800, 1263.879 649.650 C 1263.670 649.499, 1260.522 647.286, 1256.883 644.732 C 1253.243 642.178, 1247.618 637.823, 1244.383 635.053 C 1241.147 632.284, 1238.245 630.014, 1237.934 630.009 C 1237.623 630.004, 1236.314 632.587, 1235.025 635.750 M 1424.460 792.740 C 1420.523 796.249, 1414.343 800.933, 1406.160 806.611 C 1405.453 807.101, 1435.250 839.918, 1445.160 849.565 C 1491.596 894.765, 1547.071 938.518, 1574.500 951.574 C 1596.032 961.823, 1617.557 962.821, 1626.992 954.008 C 1629.215 951.931, 1630 950.295, 1630 947.737 C 1630 939.924, 1618.785 925.171, 1600.006 908.280 C 1585.966 895.651, 1575.238 888.050, 1541.131 866.563 C 1519.541 852.960, 1467.267 816.490, 1435.960 793.187 L 1429.420 788.319 1424.460 792.740" stroke="none" fill="#ba3725" fill-rule="evenodd"/><path d="M 715.533 227.106 C 706.340 233.255, 687.286 251.350, 678.319 262.446 C 664.906 279.045, 639.464 319.491, 627.152 343.788 C 613.543 370.645, 603.262 398.610, 601.630 413.212 C 601.072 418.204, 601.234 419.055, 602.915 419.954 C 603.973 420.521, 606.846 420.709, 609.300 420.372 L 613.762 419.761 615.510 411.630 C 618.087 399.637, 629.453 362.415, 634.119 350.689 C 643.648 326.741, 657.928 301.656, 675.407 278.161 C 690.969 257.243, 705.256 240.805, 716.370 231.033 C 721.667 226.375, 726 222.438, 726 222.283 C 726 220.955, 721.916 222.837, 715.533 227.106 M 726.321 242.937 C 718.591 249.666, 711.004 257.993, 699.386 272.500 C 670.220 308.916, 654.340 337.430, 640.353 378.500 C 634.431 395.889, 628 417.310, 628 419.646 C 628 420.764, 629.093 421.038, 632.622 420.805 L 637.245 420.500 642.461 405 C 647.198 390.920, 656.686 366.729, 663.399 351.609 C 667.957 341.344, 678.555 322.812, 695.431 295.596 C 715.069 263.926, 721.347 254.396, 727.697 246.613 C 730.339 243.375, 733.117 239.888, 733.872 238.863 C 736.592 235.169, 733.048 237.081, 726.321 242.937 M 1333 310.699 C 1331.625 310.934, 1325.146 312.465, 1318.601 314.102 C 1298.091 319.233, 1278.978 327.192, 1265.377 336.265 C 1256.320 342.308, 1229.583 365.730, 1229.200 367.959 C 1228.400 372.608, 1264.109 370.868, 1284 365.288 C 1303.597 359.792, 1325.642 348.035, 1336.381 337.354 C 1343.522 330.252, 1348.192 318.886, 1346.591 312.507 C 1346.014 310.207, 1345.531 310.011, 1340.731 310.136 C 1337.854 310.211, 1334.375 310.464, 1333 310.699 M 1319.500 320.027 C 1307.267 322.499, 1279.803 335.523, 1262.679 346.973 C 1251.611 354.374, 1249.746 356.789, 1251.938 360.884 C 1253.464 363.736, 1255.885 364.852, 1262.148 365.588 C 1266.787 366.133, 1268.850 365.715, 1277.503 362.482 C 1290.314 357.695, 1306.769 349.456, 1319.644 341.381 C 1325.223 337.881, 1330.422 334.775, 1331.197 334.478 C 1333.055 333.765, 1336 328.708, 1336 326.231 C 1336 325.152, 1335.067 323.084, 1333.927 321.635 C 1331.686 318.786, 1327.792 318.352, 1319.500 320.027 M 1356.288 337.134 C 1352.516 343.805, 1342.143 354.025, 1333.245 359.838 C 1318.495 369.472, 1295.083 379.218, 1278.845 382.481 C 1269.893 384.280, 1253.057 386, 1244.394 386 C 1240.877 386, 1238 386.284, 1238 386.632 C 1238 387.528, 1241.236 392.763, 1250.076 406.166 C 1254.308 412.582, 1258.571 420.007, 1259.550 422.666 C 1260.528 425.325, 1262.331 428.625, 1263.557 430 C 1266.915 433.767, 1270.285 441.086, 1275.407 455.733 C 1283.512 478.910, 1291.087 493.171, 1297.429 497.196 C 1300.071 498.873, 1301.688 499.067, 1309 498.589 C 1321.945 497.743, 1345.169 493.387, 1358 489.399 C 1373.011 484.733, 1388.364 477.306, 1394.523 471.729 C 1399.379 467.333, 1399.421 467.243, 1399.817 460.235 C 1400.055 456.013, 1399.545 449.819, 1398.548 444.836 C 1395.487 429.537, 1366.940 346.092, 1360.846 334.634 L 1359.322 331.767 1356.288 337.134 M 1249.500 440.480 C 1248.950 440.670, 1247.263 441.098, 1245.750 441.432 C 1243.162 442.002, 1243 442.358, 1243 447.470 C 1243 450.457, 1242.506 455.205, 1241.902 458.020 C 1241.299 460.835, 1240.990 463.323, 1241.216 463.549 C 1241.775 464.109, 1259.331 461.831, 1260.166 461.090 C 1260.532 460.766, 1259.139 456, 1257.070 450.500 C 1253.585 441.237, 1252.286 439.518, 1249.500 440.480 M 1223.083 447.798 C 1219.969 449.350, 1219.465 450.251, 1217.380 458 C 1216.122 462.675, 1215.072 466.870, 1215.047 467.322 C 1214.995 468.234, 1226.114 467.145, 1227.159 466.136 C 1227.521 465.786, 1228.137 461.113, 1228.528 455.750 C 1229.317 444.907, 1229.208 444.747, 1223.083 447.798" stroke="none" fill="#b9702c" fill-rule="evenodd"/><path d="M 1124.269 424.925 C 1107.766 429.645, 1093.598 440.549, 1083.631 456.202 C 1080.304 461.427, 1080.001 462.515, 1080.012 469.202 C 1080.041 486.834, 1087.004 498.348, 1102.244 505.964 C 1115.171 512.424, 1124.325 512.084, 1139.500 504.581 C 1159.010 494.934, 1169.913 483.194, 1176.123 465.142 C 1179.591 455.064, 1177.758 445.415, 1170.896 437.620 C 1159.350 424.503, 1142.133 419.815, 1124.269 424.925" stroke="none" fill="#eb1c25" fill-rule="evenodd"/><path d="M 954.217 183.561 C 947.700 188.125, 947.095 200.144, 952.609 215.500 C 954.584 221, 956.431 226.983, 956.714 228.795 C 957.013 230.703, 957.707 231.901, 958.365 231.640 C 958.989 231.392, 962.712 230.401, 966.639 229.438 L 973.778 227.687 974.483 215.456 C 975.255 202.065, 974.260 194.602, 970.985 189.216 C 967.135 182.884, 959.067 180.164, 954.217 183.561 M 994.583 190.886 L 989.667 192.617 989.903 205.195 C 990.035 212.249, 989.640 219.623, 989.003 221.987 C 988.379 224.305, 988.015 226.348, 988.194 226.527 C 988.372 226.706, 991.664 227.303, 995.509 227.853 L 1002.500 228.854 1005.296 225.677 C 1008.667 221.846, 1016.244 208.819, 1017.846 204.101 C 1019.765 198.449, 1019.283 195.129, 1016.077 191.923 C 1013.396 189.242, 1012.589 189.006, 1006.327 189.078 C 1002.572 189.120, 997.287 189.934, 994.583 190.886 M 1047 220.890 C 1039.363 223.365, 1028.525 229.004, 1022.049 233.870 C 1015.037 239.140, 1014.250 240.556, 1016.787 243.333 C 1020.517 247.416, 1022 251.707, 1022 258.412 L 1022 264.923 1026.231 266.062 C 1033.353 267.980, 1037.621 266.791, 1043.227 261.327 C 1057.121 247.784, 1067.595 225.738, 1062.538 220.681 C 1060.352 218.494, 1054.134 218.578, 1047 220.890 M 915.247 225.250 C 909.968 231.866, 909.141 242.514, 913.278 250.607 C 916.547 257.001, 920.157 261.332, 924.292 263.817 C 927.907 265.990, 934.902 267.314, 938.282 266.465 C 940.384 265.938, 940.528 265.373, 940.514 257.701 C 940.502 250.540, 940.849 248.907, 943.250 244.822 C 944.763 242.249, 946 239.943, 946 239.697 C 946 238.746, 930.853 228.839, 925.811 226.492 C 919.911 223.746, 916.745 223.373, 915.247 225.250 M 947.578 286.233 C 942.476 292.065, 941.875 295.148, 944.543 301.815 C 946.154 305.842, 950.889 309.006, 955.284 308.993 C 958.351 308.984, 962.699 305.923, 965.375 301.888 C 967.338 298.930, 971 290.457, 971 288.875 C 971 288.568, 969.087 287.756, 966.750 287.071 C 964.413 286.386, 960.531 284.739, 958.124 283.413 C 955.717 282.086, 953.390 281, 952.952 281 C 952.514 281, 950.095 283.355, 947.578 286.233 M 1002.963 284.170 C 999.918 285.750, 994.529 287.509, 990.988 288.079 C 987.448 288.650, 984.496 289.202, 984.428 289.308 C 984.361 289.414, 984.619 292.743, 985.002 296.708 C 985.770 304.665, 988.952 310.271, 993.732 312.088 C 996.932 313.305, 1005.938 311.742, 1009.617 309.331 C 1012.357 307.536, 1017.998 296.964, 1017.999 293.622 C 1018.001 290.485, 1012.042 280.983, 1010.177 281.148 C 1009.254 281.230, 1006.008 282.589, 1002.963 284.170" stroke="none" fill="#f798bf" fill-rule="evenodd"/><path d="M 968.566 244.864 C 959.886 247.198, 956 250.956, 956 257.013 C 956 262.188, 960.966 267.879, 968.197 270.989 C 972.652 272.906, 974.713 273.162, 982.938 272.822 C 991.140 272.483, 993.245 272.019, 997.733 269.564 C 1003.385 266.472, 1005.707 263.713, 1006.657 258.966 C 1007.549 254.505, 1001.402 248.950, 992.324 246.015 C 982.832 242.945, 976.789 242.652, 968.566 244.864" stroke="none" fill="#91c4ee" fill-rule="evenodd"/><path d="M 623.586 133.532 C 619.689 134.871, 608.318 144.341, 604.984 149.022 C 601.155 154.400, 599.142 160.455, 596.594 174.265 C 593.809 189.363, 593.256 190.867, 589.371 193.922 C 584.859 197.472, 579.412 196.727, 568 191 C 562.520 188.250, 556.862 186, 555.427 186 C 552.965 186, 549.393 188.903, 525.057 210.683 L 521.500 213.867 523.500 217.623 C 524.600 219.688, 528.919 225.006, 533.098 229.439 C 544.027 241.035, 545.136 243.955, 540.404 248.687 C 537.879 251.212, 537.559 251.265, 528.654 250.662 C 523.619 250.320, 515.376 249.620, 510.336 249.106 C 494.991 247.542, 492.786 248.668, 484.955 262.076 C 476.257 276.969, 460.463 319.118, 459.278 330.598 C 458.741 335.797, 458.743 335.801, 463.120 339.030 C 465.529 340.807, 472.507 344.633, 478.626 347.534 C 484.745 350.435, 490.483 353.851, 491.376 355.127 C 493.920 358.758, 493.450 363.500, 490.250 366.481 C 486.797 369.699, 483.993 370.448, 463.822 373.542 C 440.442 377.129, 441.801 376.749, 443.145 379.328 C 445.780 384.384, 464.287 408.083, 468.488 411.781 C 474.372 416.960, 480.010 418, 502.197 418 C 517.121 418, 518.974 418.191, 521.230 419.966 C 525.405 423.250, 526.478 427.150, 524.667 432.464 C 523.669 435.393, 523.501 437, 524.193 437 C 524.782 437, 532.967 434.489, 542.382 431.420 C 551.797 428.350, 565.350 424.336, 572.500 422.499 L 585.500 419.159 586.234 411.966 C 586.638 408.010, 587.423 403.137, 587.979 401.137 C 589.886 394.272, 590.363 394.639, 571.693 388.632 C 562.174 385.570, 548.787 381.703, 541.943 380.038 C 526.529 376.288, 524.315 375.393, 523.623 372.635 C 522.087 366.516, 526.584 363.320, 535.281 364.350 C 542.618 365.219, 569.444 372.115, 582.293 376.436 C 592.514 379.872, 595 380.161, 595 377.909 C 595 377.374, 598.103 369.747, 601.895 360.962 C 605.687 352.176, 608.499 344.826, 608.145 344.628 C 607.790 344.430, 604.350 343.246, 600.500 341.998 C 596.650 340.750, 585.850 336.135, 576.500 331.742 C 556.933 322.551, 543.668 317.106, 526 311.014 C 514.002 306.877, 508 303.196, 508 299.977 C 508 298.481, 513.520 293, 515.027 293 C 515.676 293, 524.598 295.762, 534.854 299.137 C 553.996 305.437, 567.608 310.915, 597.803 324.470 C 614.320 331.885, 615.170 332.153, 616.521 330.369 C 617.299 329.341, 617.924 328.275, 617.909 328 C 617.893 327.725, 611.270 323.095, 603.190 317.711 C 595.111 312.327, 580.775 302.652, 571.333 296.211 C 561.891 289.770, 548.465 281.575, 541.497 278 C 528.375 271.268, 526.375 269.336, 527.575 264.556 C 528.170 262.185, 531.693 260, 534.920 260 C 537.417 260, 560.423 271.458, 571.796 278.366 C 580.808 283.841, 594.264 292.990, 614.118 307.143 C 619.409 310.915, 624.134 313.996, 624.618 313.991 C 625.103 313.986, 628.157 309.599, 631.405 304.241 C 641.282 287.946, 659.457 260.941, 665.890 253 C 672.024 245.429, 672.833 244, 670.986 244 C 668.961 244, 663.925 237.165, 653.815 220.696 C 637.743 194.513, 625.116 178.519, 618.059 175.406 C 613.381 173.342, 611.413 169.673, 612.895 165.776 C 614.003 162.863, 618.224 161.451, 622.812 162.459 C 630.267 164.096, 645.521 180.592, 660.763 203.500 C 669.894 217.225, 679 232.806, 679 234.708 C 679 237.228, 681.339 235.923, 687.883 229.750 C 691.527 226.313, 697.086 221.488, 700.235 219.028 L 705.962 214.556 703.143 211.528 C 701.592 209.863, 699.144 206.426, 697.703 203.892 C 694.279 197.872, 685.211 185.682, 673.360 171.171 C 668.118 164.752, 661.505 156.650, 658.664 153.166 C 653.694 147.069, 642.911 137.524, 638.264 135.108 C 634.090 132.937, 627.404 132.219, 623.586 133.532 M 610.250 183.603 C 608.837 185.215, 608 187.468, 608 189.659 C 608 194.316, 611.886 205.637, 618.523 220.320 C 621.518 226.944, 623.786 232.548, 623.562 232.772 C 623.337 232.996, 617.385 228.864, 610.334 223.590 C 603.169 218.230, 596.539 214, 595.304 214 C 589.360 214, 585.604 218.523, 587.934 222.876 C 588.541 224.011, 592.517 227.636, 596.769 230.933 C 601.021 234.230, 610.575 241.677, 618 247.481 C 640.307 264.920, 645.362 267.920, 650.250 266.617 C 654.144 265.580, 655.136 264.406, 655.705 260.166 C 656.216 256.354, 655.617 254.974, 647.726 241.772 C 637.705 225.009, 634.461 218.585, 626.019 198.777 C 621.771 188.812, 619.138 183.861, 617.872 183.459 C 616.842 183.133, 616 182.446, 616 181.933 C 616 180.067, 612.444 181.100, 610.250 183.603 M 744.468 250.750 C 740.793 255.012, 735.050 262.546, 731.705 267.492 C 721.137 283.116, 693.035 328.958, 685.415 343 C 676.516 359.400, 661.676 393.408, 655.023 412.644 L 650.132 426.788 655.437 438.318 C 665.105 459.328, 674.696 472.209, 683.606 476.150 C 688.132 478.152, 698.808 479.949, 706.355 479.980 C 711.512 480.001, 727.749 475.579, 729.604 473.649 C 730.211 473.017, 732.685 466.650, 735.103 459.500 C 737.600 452.116, 743.850 437.722, 749.571 426.180 L 759.644 405.859 756.016 404.008 C 750.979 401.439, 742.591 394.312, 738.461 389.093 C 735.579 385.450, 735 383.899, 735 379.819 C 735 376.976, 735.799 373.354, 736.905 371.187 C 739.091 366.902, 747.822 355.327, 755.642 346.346 C 758.589 342.962, 761 339.935, 761 339.620 C 761 339.305, 759.021 336.096, 756.602 332.489 C 742.968 312.161, 748.783 286.967, 769.305 277.447 C 773.846 275.341, 776.868 274.513, 787.847 272.371 C 789.837 271.983, 790.094 271.500, 789.535 269.206 C 788.413 264.610, 784.453 256.658, 781.614 253.301 C 778.152 249.208, 770.295 245.545, 761.918 244.120 C 751.573 242.360, 751.764 242.287, 744.468 250.750" stroke="none" fill="#fdb015" fill-rule="evenodd"/></svg>