<?xml version="1.0" encoding="utf-8"?>
<!-- Generator: Adobe Illustrator 25.4.1, SVG Export Plug-In . SVG Version: 6.00 Build 0)  -->
<svg version="1.1" id="Layer_1" xmlns="http://www.w3.org/2000/svg" xmlns:xlink="http://www.w3.org/1999/xlink" x="0px" y="0px"
	 viewBox="0 0 590.4 576" style="enable-background:new 0 0 590.4 576;" xml:space="preserve">
<style type="text/css">
	.st0{fill:#3D89C8;}
	.st1{fill:#E91A45;}
	.st2{fill:#FDD36A;}
	.st3{fill:#F1C3AD;}
	.st4{fill:#FFFFFF;}
	.st5{fill:#982D27;}
	.st6{fill:#C76B6B;}
	.st7{fill:#246AA5;}
</style>
<g>
	<path class="st0" d="M265.32,138.6c81.4-31.79,138.77-21.71,176.76,11.63s48.03,79.64,59.75,86.81
		c19.72,12.05,31.37,29.99,42.38,65.25c1.47,4.69,2.43,9.1,3.02,13.23c1.12-7.9,1.7-15.96,1.7-24.14c0-33.84-9.85-65.92-27.04-93.68
		C487.27,141.8,358.03,5.77,350.04,6.07c-13.51,0.52-138.82,135.61-173.48,191.37c-4.68,7.53-8.8,15.39-12.35,23.5
		C192.9,187.37,225.13,154.29,265.32,138.6z"/>
	<path class="st1" d="M220.8,138.87c-1.42,0.58,40.15-47,41.28-47.59c1.12-0.59,37.47-21.53,76.07-22.04
		c71.77-0.94,94.38,19.78,96.9,21.51c2.52,1.73,44.38,50.88,44.38,50.88s-50.92-41.14-133.07-40.02
		C265.62,102.71,230.8,134.78,220.8,138.87z"/>
	<path class="st2" d="M471.47,243.22c-24.03-11.63-55.69-31.77-124.69-11.61S218.09,368.05,137.46,366.5s-102.33-4.65-124.04-64.35
		s16.28,39.54,69,5.43s101.5-137.2,182.9-168.99s138.77-21.71,176.76,11.63s48.03,79.64,59.75,86.81
		c19.72,12.05,31.37,29.99,42.38,65.25c8.03,25.7,1.26,43.2-2.05,49.81c-0.01,0.02-1.04,0.01-2.04,0.09
		c-0.96,0.07-1.87,0.22-1.87,0.22s-30.22-5.29-43.4-56.45S471.47,243.22,471.47,243.22z"/>
	<path class="st3" d="M542.83,352.1c-1.26,0-2.5,0.08-3.73,0.19c-0.48,0.06-0.84,0.12-0.84,0.12s-30.22-5.29-43.4-56.45
		c-13.18-51.17-23.39-52.74-23.39-52.74c-24.03-11.63-55.69-31.77-124.69-11.61c-69,20.16-128.69,136.44-209.32,134.89
		c-4.66-0.09-9.09-0.19-13.37-0.3c-6.07,7.06-9.76,16.22-9.76,26.26c0,22.3,18.07,40.37,40.37,40.37c2.1,0,4.16-0.16,6.17-0.47
		c23.99,79.59,97.85,137.56,185.26,137.56c87.81,0,161.94-58.5,185.59-138.64c3.53,1.01,7.25,1.56,11.1,1.56
		c22.3,0,40.37-18.07,40.37-40.37C583.2,370.17,565.13,352.1,542.83,352.1z"/>
	<path class="st4" d="M400.67,336.17c-8.55,0-15.94,2.83-21.41,8.21c-7.25,7.13-11.08,18.42-11.08,32.66
		c0,25.83,16.64,46.85,37.09,46.85c8.31,0,15.64-2.97,21.19-8.6c7.62-7.72,11.7-20.13,11.5-34.93l0,0
		c-0.3-22.4-18.11-43.88-36.63-44.19C401.1,336.17,400.88,336.17,400.67,336.17z"/>
	<circle cx="397.55" cy="383.34" r="24.87"/>
	<path d="M319.46,345.39c-5.94-5.84-13.97-8.84-23.27-8.69c-19.72,0.33-37.96,22.18-38.28,45.84c-0.21,15.26,4.05,28.09,11.98,36.14
		c5.87,5.95,13.61,9.1,22.38,9.1c21.38,0,38.77-21.77,38.77-48.53C331.04,364.55,327.03,352.84,319.46,345.39z M292.27,426.1
		c-8.31,0-15.64-2.97-21.19-8.6c-7.62-7.72-11.7-20.13-11.5-34.93c0.3-22.4,18.11-43.88,36.64-44.19
		c8.88-0.16,16.45,2.69,22.06,8.21c7.25,7.13,11.08,18.42,11.08,32.66C329.36,405.08,312.72,426.1,292.27,426.1z"/>
	<path d="M371,441.09c-0.01,0-0.02,0-0.03,0c-0.46-0.02-0.82-0.41-0.81-0.87c0.54-15.3-5.32-26.01-15.66-28.66
		c-5.35-1.37-11.35-0.27-16.46,3.02c-5.31,3.42-9.12,8.75-10.72,15c-0.12,0.45-0.58,0.72-1.02,0.61c-0.45-0.11-0.72-0.57-0.61-1.02
		c1.7-6.67,5.77-12.35,11.44-16c5.5-3.54,11.99-4.71,17.78-3.23c11.17,2.85,17.5,14.2,16.93,30.34
		C371.82,440.74,371.45,441.09,371,441.09z"/>
	<path d="M377.04,312.12c-2.41,3.87-3.88-18.89,15.18-21.75s29.21,12.46,32.67,18.23c3.46,5.78-13.44-7.71-26.83-7.61
		C389.37,301.06,379.66,307.92,377.04,312.12z"/>
	<path d="M320.49,312.18c2.4,3.88,3.92-18.88-15.13-21.79c-19.06-2.91-29.24,12.38-32.72,18.15c-3.48,5.77,13.46-7.68,26.85-7.54
		C308.19,301.09,317.88,307.97,320.49,312.18z"/>
	<path class="st5" d="M309.15,473.63c8.76,5.57,62.64,8.18,78.7-5.04c7.13-5.87-6.77,39.82-35.89,42.18
		C323.72,513.06,302.23,469.22,309.15,473.63z"/>
	<path class="st6" d="M324.4,498.89c0,0,13.71-4.33,21.74,0.71c8.03,5.04,8.66,10.86,8.66,10.86s-9.72,2.6-19.48-3.07
		C325.56,501.72,324.4,498.89,324.4,498.89z"/>
	<g>
		<path class="st7" d="M442.08,150.23c37.99,33.34,48.03,79.64,59.75,86.81c12.78,7.81,22.15,18.12,30.18,33.98
			c-6.29-63.68-53.12-116.93-117.24-138.91C424.8,136.95,433.89,143.04,442.08,150.23z"/>
		<path class="st7" d="M292.63,129.23c-1.26,0.37-2.52,0.74-3.77,1.13C290.12,129.97,291.37,129.6,292.63,129.23z"/>
	</g>
	<path class="st4" d="M259.58,382.56c-0.2,14.81,3.88,27.22,11.5,34.93c5.55,5.63,12.88,8.6,21.19,8.6
		c20.45,0,37.09-21.02,37.09-46.85c0-14.24-3.83-25.53-11.08-32.66c-5.61-5.51-13.18-8.37-22.06-8.21
		C277.69,338.69,259.88,360.16,259.58,382.56L259.58,382.56z"/>
	<circle cx="299.98" cy="385.54" r="24.87"/>
	<path d="M401.35,334.5c-9.29-0.17-17.33,2.85-23.27,8.69c-7.58,7.45-11.58,19.16-11.58,33.86c0,26.76,17.39,48.53,38.77,48.53
		c8.77,0,16.51-3.15,22.38-9.1c7.93-8.04,12.19-20.87,11.98-36.14C439.31,356.68,421.06,334.82,401.35,334.5z M426.45,415.29
		c-5.55,5.63-12.88,8.6-21.19,8.6c-20.45,0-37.09-21.02-37.09-46.85c0-14.24,3.83-25.53,11.08-32.66
		c5.47-5.38,12.86-8.21,21.41-8.21c0.22,0,0.43,0,0.65,0.01c18.53,0.31,36.33,21.78,36.63,44.19
		C438.15,395.17,434.07,407.57,426.45,415.29z"/>
</g>
</svg>
