<svg xmlns="http://www.w3.org/2000/svg" width="2160" height="1620" viewBox="0 0 2160 1620" version="1.1"><path d="M 1127 71.695 C 1101.253 74.452, 1066.447 87.731, 1062.951 96.130 L 1061.856 98.761 1040.178 99.274 C 1012.313 99.934, 996.726 102.831, 968.120 112.669 L 957.741 116.238 953.879 111.720 C 943.039 99.038, 917.273 84.846, 898.648 81.300 C 879.308 77.617, 859.277 85.759, 829.500 109.409 C 818.431 118.200, 808.192 129.806, 803.997 138.318 C 794.401 157.786, 794.597 180.977, 804.530 201.629 C 809.094 211.118, 814.733 216.862, 823.664 221.116 L 830.766 224.500 824.748 233.202 C 821.438 237.989, 817.679 242.892, 816.395 244.099 C 814.121 246.235, 813.921 246.251, 808.780 244.718 C 796.599 241.084, 788.652 241.734, 777 247.318 C 768.430 251.426, 757.938 261.736, 754.264 269.661 C 752.095 274.339, 751.551 276.991, 751.528 283 C 751.513 287.125, 751.853 291.465, 752.284 292.644 C 752.963 294.503, 752.431 295.094, 748.284 297.080 C 740.776 300.676, 730.939 311.159, 726.774 320 C 722.235 329.637, 720.805 335.700, 720.876 345 C 720.982 358.680, 725.852 370.985, 732.094 373.341 C 733.997 374.060, 734.831 374.964, 734.517 375.968 C 732.081 383.757, 729.793 403.244, 729.757 416.500 C 729.606 472.436, 761.346 532.924, 817.222 583.188 C 821.693 587.210, 826.084 591.175, 826.981 592 C 827.878 592.825, 830.745 595.441, 833.353 597.814 L 838.094 602.128 828.567 601.428 C 809.743 600.046, 802.999 605.299, 809.442 616.322 C 812.251 621.127, 814.174 636.321, 815.994 668.090 C 818.111 705.020, 820.143 724.740, 823.004 736.103 C 825.043 744.201, 822.222 749.548, 787.788 802.851 C 728.900 894.006, 706.870 930.594, 702.106 945.149 C 694.193 969.326, 706.466 987.941, 743.206 1007.485 L 751.893 1012.107 752.525 1016.803 C 754.535 1031.739, 762.379 1051.048, 770.886 1062 C 784.841 1079.963, 811.974 1096.010, 831.250 1097.699 C 834.962 1098.024, 838.002 1098.562, 838.004 1098.895 C 838.079 1110.075, 844.166 1167.863, 847.073 1185 C 848.775 1195.029, 852.402 1211.278, 853.687 1214.627 C 853.925 1215.246, 853.071 1216.016, 851.789 1216.338 C 846.386 1217.694, 840.270 1222.945, 838.031 1228.150 C 835.961 1232.963, 835.901 1233.772, 837.022 1241.882 C 837.677 1246.622, 839.070 1254.733, 840.116 1259.907 C 841.163 1265.081, 841.848 1269.485, 841.640 1269.694 C 841.431 1269.902, 839.049 1269.202, 836.346 1268.136 C 828.528 1265.055, 827.144 1266.105, 816.093 1283.512 C 799.752 1309.249, 797.514 1315.619, 801.874 1323.983 L 803.994 1328.050 798.906 1334.525 C 793.214 1341.768, 793.527 1341.677, 779.571 1340.128 C 770.202 1339.088, 763.230 1340.357, 754.674 1344.658 C 748.059 1347.982, 740.128 1352.924, 737.348 1355.452 C 724.911 1366.764, 720.076 1373.260, 720.022 1378.731 C 719.995 1381.489, 721.857 1381.072, 687.500 1386.010 C 643.725 1392.302, 634.538 1394.135, 611.500 1401.169 C 590.468 1407.590, 556.257 1422.266, 521.565 1439.750 C 479.843 1460.776, 462.839 1477.072, 468.482 1490.623 C 470.513 1495.501, 473.728 1498.304, 482.212 1502.593 C 492.215 1507.651, 502.746 1510.344, 540.376 1517.470 C 633.511 1535.106, 685.414 1543.201, 718.247 1545.213 L 736.993 1546.361 735.291 1548.931 C 725.697 1563.412, 724.291 1567.610, 726.993 1573.716 C 728.537 1577.207, 729.879 1578.520, 733.711 1580.289 L 738.500 1582.500 842 1582.162 C 946.959 1581.818, 991.984 1582.634, 1027.500 1585.523 C 1060.842 1588.235, 1096.316 1587.168, 1106.268 1583.153 C 1110.098 1581.607, 1110.755 1579.093, 1110.491 1567 C 1110.100 1549.108, 1105.051 1529.385, 1092.444 1496.500 C 1077.445 1457.377, 1075.036 1450.088, 1068.536 1424.144 C 1061.763 1397.109, 1057.649 1371.130, 1054.946 1338.310 C 1054.365 1331.264, 1053.029 1318.075, 1051.975 1309 C 1050.921 1299.925, 1049.359 1281.751, 1048.503 1268.613 C 1046.545 1238.556, 1045.124 1231.872, 1039.426 1225.923 C 1037.060 1223.453, 1036.998 1223.062, 1037.926 1216.423 C 1039.595 1204.497, 1041.222 1164.065, 1040.560 1151 C 1038.755 1115.393, 1034.204 1085.536, 1028.914 1074.586 C 1027.861 1072.407, 1027 1070.467, 1027 1070.275 C 1027 1070.082, 1031.114 1070.054, 1036.142 1070.212 L 1045.284 1070.500 1046.474 1074.500 C 1049.219 1083.728, 1054.053 1089.406, 1062.840 1093.720 C 1073.412 1098.912, 1084.388 1097.021, 1099.165 1087.462 C 1103.704 1084.526, 1106.196 1083.427, 1106.453 1084.250 C 1111.510 1100.443, 1114.168 1106.532, 1119.695 1114.588 C 1130.237 1129.953, 1151.274 1135.951, 1173.979 1130.065 C 1191.148 1125.615, 1204.550 1117.677, 1218 1103.993 C 1231.007 1090.759, 1239.542 1074.144, 1244.574 1052.263 C 1248.256 1036.255, 1248.711 1026.920, 1246.172 1019.455 L 1244.117 1013.411 1246.985 1004.877 C 1250.308 994.987, 1253.421 975.675, 1255.025 955 C 1256.129 940.767, 1255.845 932.219, 1253.887 920.726 L 1252.903 914.952 1256.190 912.226 C 1257.998 910.727, 1261.976 907.250, 1265.031 904.500 C 1268.086 901.750, 1274.378 896.125, 1279.013 892 C 1304.922 868.943, 1320.540 847.605, 1325.461 828.540 C 1327.580 820.333, 1327.444 807.604, 1325.159 800.263 L 1323.318 794.347 1328.802 786.924 C 1335.359 778.049, 1343.399 761.637, 1344.934 753.994 C 1348.270 737.388, 1336.364 717.427, 1312.883 700.262 C 1297.990 689.375, 1272.655 675.427, 1260 671.149 C 1253.718 669.025, 1254.220 671.211, 1255.488 651.500 C 1257.523 619.878, 1245.045 587.708, 1221.538 563.976 C 1217.251 559.648, 1212.186 555.367, 1210.282 554.463 L 1206.820 552.821 1209.084 550.410 C 1210.330 549.085, 1212.378 548, 1213.637 548 C 1219.438 548, 1229.916 542.541, 1239.549 534.500 C 1260.454 517.050, 1272.440 503.910, 1285.718 483.887 C 1296.765 467.228, 1298.576 464.137, 1304.438 451.941 C 1318.897 421.860, 1327 385.621, 1327 351.038 C 1327 316.014, 1314.930 264.721, 1299.955 236.110 C 1293.949 224.635, 1281.389 207.584, 1271.259 197.154 L 1263.921 189.598 1264.960 184.750 C 1266.893 175.738, 1266.263 161.933, 1263.526 153.302 C 1260.878 144.952, 1254.524 133.040, 1248.934 125.944 C 1242.226 117.431, 1228.372 104.348, 1219.553 98.201 C 1203.137 86.758, 1176.853 75.554, 1159.205 72.476 C 1151.496 71.132, 1135.809 70.752, 1127 71.695 M 915 1060.606 C 915 1060.686, 916.110 1063.261, 917.467 1066.329 C 921.218 1074.810, 923.663 1085.650, 926.415 1106 C 931.227 1141.575, 933.994 1173.927, 934.402 1199.392 C 934.566 1209.619, 935.088 1215.469, 936.018 1217.500 C 937.864 1221.530, 937.543 1229.453, 935.052 1241.389 C 931.611 1257.877, 930.833 1268.001, 931.977 1281.407 C 932.909 1292.314, 936.965 1312.239, 939.011 1315.960 C 940.677 1318.989, 941.271 1307.221, 940.394 1288.546 C 939.902 1278.071, 939.500 1263.650, 939.500 1256.500 C 939.500 1244.610, 939.705 1243.143, 941.899 1239.313 C 944.445 1234.868, 950.224 1230.234, 956 1228.005 C 957.925 1227.263, 959.605 1226.590, 959.733 1226.511 C 959.861 1226.432, 959.533 1224.860, 959.005 1223.017 C 957.566 1218.001, 955.223 1196.179, 953.526 1172 C 951.410 1141.839, 951.416 1079.331, 953.536 1072.192 C 954.380 1069.348, 955.168 1066.691, 955.286 1066.287 C 955.404 1065.884, 946.388 1064.408, 935.250 1063.007 C 924.112 1061.607, 915 1060.526, 915 1060.606 " stroke="none" fill="#000000" fill-rule="evenodd"/><path d="M 785.377 262.499 C 774.110 268.114, 767.028 277.923, 768.493 285.885 C 769.402 290.826, 772.759 298.254, 773.895 297.839 C 774.406 297.653, 777.860 293.450, 781.571 288.500 C 785.282 283.550, 791.842 275.389, 796.148 270.364 C 803.406 261.894, 803.814 261.183, 801.738 260.627 C 796.780 259.298, 790.316 260.038, 785.377 262.499 M 868.187 271.066 C 861.949 274.643, 848.265 288.126, 843.332 295.555 C 839.977 300.609, 837 308.414, 837 312.159 C 837 315.498, 838.699 314.078, 840.481 309.250 C 845.205 296.444, 852.091 287.425, 857.936 286.389 C 859.896 286.041, 862.999 284.852, 864.831 283.747 C 867.533 282.116, 869.281 281.838, 874.086 282.274 C 879.852 282.797, 880.026 282.741, 880.643 280.156 C 880.991 278.695, 881.734 276.919, 882.294 276.209 C 883.040 275.264, 882.414 273.990, 879.960 271.459 C 878.116 269.557, 875.908 268.004, 875.054 268.009 C 874.199 268.015, 871.109 269.390, 868.187 271.066 M 934.424 286.750 C 930.457 292.789, 925.554 302.066, 920.505 313.089 C 908.889 338.449, 905.716 355.121, 909.890 368.863 C 911.082 372.788, 912.445 376, 912.917 376 C 913.390 376, 914.084 374.368, 914.458 372.374 C 915.754 365.463, 919.949 352.163, 922.509 346.844 C 923.943 343.867, 926.686 340.282, 928.702 338.750 C 931.959 336.275, 933.132 336, 940.411 335.998 L 948.500 335.996 951.443 331.339 C 953.061 328.777, 955.861 325.206, 957.664 323.402 L 960.943 320.123 954.620 310.812 C 951.141 305.690, 945.940 297.563, 943.061 292.750 C 940.183 287.938, 937.468 284, 937.029 284 C 936.589 284, 935.417 285.238, 934.424 286.750 M 755.188 312.850 C 749.718 315.766, 744.186 321.877, 740.814 328.727 C 738.237 333.961, 737.551 336.743, 737.207 343.345 C 736.796 351.226, 738.213 360, 739.896 360 C 740.347 360, 742.410 355.837, 744.481 350.750 C 748.534 340.796, 756.259 325.760, 761.656 317.324 C 763.495 314.448, 765 311.849, 765 311.548 C 765 310.313, 758.271 311.206, 755.188 312.850 M 1114.500 377.903 C 1105.444 382.111, 1099.461 391.640, 1095.590 408.020 C 1092.904 419.389, 1091.304 421.752, 1085.674 422.666 C 1082.538 423.174, 1080.546 422.521, 1072.734 418.423 C 1064.499 414.102, 1062.797 413.574, 1057 413.539 C 1049.317 413.493, 1043.692 415.878, 1036.451 422.252 C 1026.664 430.867, 1026.613 440.536, 1036.277 455.100 C 1039.945 460.626, 1042 465.076, 1042 467.488 C 1042 469.954, 1036.822 475.057, 1031.671 477.667 C 1024.802 481.148, 1010.143 495.985, 1006.697 502.946 C 1001.557 513.327, 1003.935 527.560, 1011.934 534.291 C 1013.705 535.781, 1016.171 537, 1017.415 537 C 1018.659 537, 1024.362 534.702, 1030.089 531.893 C 1041.316 526.386, 1050.132 523.590, 1053.196 524.562 C 1055.059 525.154, 1057 528.702, 1057 531.517 C 1057 532.280, 1054.278 535.963, 1050.950 539.702 C 1039.020 553.108, 1032.841 572.851, 1037.618 582.300 C 1043.391 593.717, 1051.587 597.909, 1062.315 594.929 C 1067.381 593.523, 1076.553 584.285, 1082.017 575.087 C 1084.348 571.164, 1087.588 567.006, 1089.217 565.846 C 1091.825 563.989, 1092.632 563.873, 1095.979 564.875 C 1100.476 566.223, 1101.717 567.979, 1105.398 578.207 C 1108.255 586.147, 1114.657 596.211, 1117.983 597.991 C 1122.870 600.606, 1129.621 598.207, 1137.339 591.110 C 1143.893 585.085, 1144.354 579.466, 1139.510 564.627 C 1135.603 552.659, 1136.420 547.335, 1142.500 545.136 C 1145.216 544.154, 1147.552 544.245, 1155.106 545.627 C 1167.959 547.978, 1181.536 546.515, 1190.969 541.760 C 1196.744 538.850, 1197.760 537.872, 1200.428 532.651 C 1208.530 516.800, 1202.663 501.861, 1184.834 492.947 C 1167.489 484.274, 1166.810 478.284, 1181.838 466.482 C 1186.052 463.172, 1190.349 458.887, 1191.387 456.958 C 1193.183 453.621, 1193.194 453.181, 1191.628 447.793 C 1189.575 440.731, 1186.187 436.635, 1179.664 433.330 C 1175.407 431.172, 1172.613 430.640, 1162.347 430.029 C 1148.714 429.217, 1146.306 428.271, 1143.656 422.687 C 1142.752 420.782, 1140.881 413.436, 1139.498 406.362 C 1136.547 391.265, 1132.387 381.842, 1127.102 378.286 C 1123.006 375.530, 1119.815 375.433, 1114.500 377.903 M 1091 589.922 C 1091 590.429, 1087.935 594.008, 1084.189 597.875 C 1074.902 607.462, 1067.511 610.998, 1056.761 610.999 C 1048.092 611, 1041.449 608.970, 1035.652 604.548 L 1032.068 601.814 1026.045 605.472 C 1011.478 614.322, 994.695 618.699, 960 622.696 C 939.029 625.112, 898.910 625.145, 880 622.761 C 872.575 621.825, 859.073 620.382, 849.995 619.554 C 840.917 618.725, 831.979 617.746, 830.133 617.377 C 826.855 616.721, 826.790 616.773, 827.366 619.603 C 828.879 627.044, 831.290 649.482, 834.016 681.500 C 837.370 720.894, 837.485 721.905, 839.655 731.265 C 841.603 739.671, 843.609 741.410, 853.275 743.066 C 863.978 744.900, 894.277 744.634, 907.313 742.593 C 928.587 739.261, 973.636 724.950, 995.500 714.579 C 1030.804 697.832, 1066.055 669.627, 1092.728 636.788 C 1099.551 628.388, 1110 613.776, 1110 612.635 C 1110 612.385, 1107.638 609.715, 1104.750 606.703 C 1101.862 603.691, 1097.925 598.481, 1096 595.124 C 1092.767 589.487, 1091 587.649, 1091 589.922 M 1108.285 642.041 L 1102.070 649.967 1118.868 675.301 C 1140.223 707.508, 1146.660 720.165, 1167.475 770.891 C 1176.036 791.752, 1191.487 840.052, 1193.438 852.048 C 1194.008 855.554, 1194.107 855.618, 1201.712 857.387 C 1211.721 859.716, 1219.351 863.641, 1226.409 870.090 C 1232.107 875.299, 1243.568 891.431, 1244.660 895.781 C 1244.978 897.049, 1245.606 897.955, 1246.054 897.794 C 1247.953 897.110, 1276.819 870.912, 1283.271 864.017 C 1307.404 838.227, 1315.135 816.970, 1306.644 799.745 C 1303.179 792.714, 1289.400 775.620, 1277.330 763.377 C 1271.923 757.893, 1254.225 741.404, 1238 726.735 C 1221.775 712.065, 1203.325 695.095, 1197 689.023 C 1183.813 676.365, 1171.105 667.098, 1147.595 652.998 C 1138.487 647.535, 1127.995 641.026, 1124.279 638.533 C 1120.562 636.040, 1116.842 634.026, 1116.011 634.057 C 1115.180 634.088, 1111.703 637.681, 1108.285 642.041 M 1236.202 690.281 L 1227.903 696.496 1234.204 702.498 C 1237.669 705.799, 1248.828 715.901, 1259.002 724.946 C 1281.031 744.533, 1296.328 759.817, 1305.559 771.465 C 1309.279 776.159, 1312.666 780, 1313.086 780 C 1314.179 780, 1323.444 763.521, 1326.018 757 C 1332.536 740.486, 1319.738 723.402, 1285.365 702.733 C 1267.857 692.205, 1250.186 683.896, 1245.593 684.032 C 1244.992 684.050, 1240.766 686.862, 1236.202 690.281 M 830.638 764.406 L 825.272 774.500 831.886 776.672 C 841.851 779.944, 849.610 780.511, 858.201 778.594 C 868.620 776.271, 874.920 773.033, 879.788 767.503 C 886.018 760.426, 885.705 760.001, 874.250 759.992 C 861.522 759.981, 848.142 758.410, 841.401 756.134 L 836.005 754.312 830.638 764.406 M 787.687 834.750 C 777.990 849.801, 772 859.595, 772 860.401 C 772 860.804, 773.211 862.791, 774.691 864.817 C 782.965 876.141, 789.900 880.385, 800 880.305 C 813.567 880.198, 822.425 875.918, 826.556 867.476 C 828.944 862.595, 829.204 861.104, 828.782 854.724 C 828.493 850.361, 827.404 845.424, 826.033 842.258 C 821.785 832.457, 810.458 825.028, 799.734 825.010 L 793.969 825 787.687 834.750 M 1155.181 872.585 C 1114.200 877.547, 1066.802 892.698, 1053.938 904.948 C 1049.661 909.020, 1047.589 915.101, 1048.547 920.765 C 1052.751 945.610, 1076.854 996.701, 1083.578 995.019 C 1086.615 994.259, 1112.332 994.671, 1138.500 995.900 C 1168.609 997.313, 1198.858 1000.344, 1214.721 1003.539 C 1221.443 1004.893, 1227.340 1006, 1227.826 1006 C 1229.265 1006, 1233.105 991.616, 1235.139 978.609 C 1237.703 962.212, 1238.649 935.866, 1237.064 925.023 C 1234.811 909.614, 1228.067 894.852, 1218.337 884.030 C 1209.773 874.505, 1199.013 870.974, 1179 871.122 C 1172.125 871.173, 1161.406 871.831, 1155.181 872.585 M 1084.634 1015.102 C 1083.318 1018.077, 1079.639 1025.008, 1076.457 1030.505 C 1061.387 1056.546, 1058.750 1069.894, 1067.376 1076.473 C 1073.995 1081.522, 1084.145 1078.450, 1096.933 1067.528 C 1104.599 1060.982, 1108.603 1059.369, 1113.250 1060.953 C 1118.021 1062.579, 1119.728 1065.655, 1123.117 1078.733 C 1130.509 1107.262, 1139.659 1116.086, 1160.448 1114.733 C 1169.852 1114.122, 1182.734 1109.791, 1190.490 1104.633 C 1213.373 1089.414, 1225.257 1068.847, 1230.030 1036.207 C 1231.084 1028.998, 1231.033 1027.699, 1229.610 1025.527 C 1224.791 1018.173, 1178.256 1012.095, 1113.763 1010.397 L 1087.026 1009.693 1084.634 1015.102 M 769 1018.983 C 769 1021.935, 773.833 1034.761, 777.859 1042.494 C 786.119 1058.362, 808.462 1074.875, 828.661 1080.041 C 832.873 1081.119, 836.923 1082, 837.660 1082 C 838.738 1082, 839 1077.815, 839 1060.571 L 839 1039.142 833.750 1037.638 C 830.862 1036.811, 824.225 1034.939, 819 1033.477 C 805.043 1029.574, 796.024 1026.703, 781.750 1021.623 C 770.156 1017.497, 769 1017.257, 769 1018.983" stroke="none" fill="#fcfcfc" fill-rule="evenodd"/><path d="M 901 1225.678 C 876.948 1228.135, 858.259 1231.225, 854.810 1233.315 C 853.086 1234.359, 852.929 1235.225, 853.491 1240.604 C 854.268 1248.046, 859.647 1281.018, 860.144 1281.382 C 860.340 1281.526, 864.800 1284.609, 870.055 1288.235 C 881.356 1296.031, 886.489 1301.389, 887.989 1306.958 C 889.554 1312.772, 888.519 1317.098, 882.724 1328.966 C 878.633 1337.346, 876.207 1340.859, 870.557 1346.590 C 864.650 1352.580, 862.729 1353.910, 858.770 1354.748 C 850.181 1356.566, 841.582 1353.549, 824.900 1342.867 C 820.720 1340.190, 816.895 1338.005, 816.400 1338.012 C 815.661 1338.022, 809.705 1345.785, 806.768 1350.566 C 806.309 1351.313, 807.537 1352.752, 810.060 1354.421 C 815.987 1358.343, 825.611 1368.316, 828.014 1373.027 C 831.232 1379.335, 831.655 1385.796, 829.169 1390.669 C 826.335 1396.224, 814.123 1407.283, 806.759 1410.963 C 796.920 1415.879, 792.698 1415.425, 766.475 1406.629 C 754.389 1402.576, 741.884 1398.088, 738.686 1396.656 C 732.989 1394.106, 732.746 1394.083, 726.686 1395.538 C 723.284 1396.355, 703.474 1399.945, 682.664 1403.516 C 642.357 1410.433, 631.805 1412.776, 612.007 1419.206 C 582.262 1428.867, 524.794 1455.470, 503.596 1469.392 C 494.241 1475.535, 486 1482.594, 486 1484.462 C 486 1485.941, 492.403 1488.853, 502.357 1491.901 C 515.492 1495.924, 627.060 1516.241, 670.500 1522.522 C 683.700 1524.430, 700.350 1526.441, 707.500 1526.990 C 714.650 1527.539, 726.350 1528.439, 733.500 1528.991 C 740.650 1529.542, 747.400 1530.222, 748.500 1530.503 C 750.064 1530.902, 751.481 1529.650, 755 1524.762 C 769.570 1504.519, 790.008 1488.959, 819.611 1475.569 C 845.286 1463.956, 849.316 1461.961, 855.357 1457.869 C 861.928 1453.420, 868.992 1447.305, 872.913 1442.674 C 875.176 1440.001, 875.231 1439.657, 873.799 1437.162 C 869.941 1430.439, 870.971 1423.993, 878.210 1409.566 C 886.480 1393.081, 890.395 1389.555, 904.923 1385.501 C 918.954 1381.587, 919.431 1381.230, 924.539 1370.811 C 926.993 1365.808, 929 1361.285, 929 1360.761 C 929 1360.237, 928.096 1358.540, 926.992 1356.989 C 924.067 1352.881, 923.601 1348.992, 924.975 1340.158 C 926.186 1332.376, 926.164 1332.199, 922.683 1321.401 C 913.450 1292.769, 911.906 1268.865, 917.488 1241 C 920.975 1223.593, 921.431 1224.970, 912.250 1225.160 C 907.987 1225.248, 902.925 1225.481, 901 1225.678 M 994.544 1238.096 C 974.041 1239.479, 959.506 1243.318, 956.993 1248.013 C 956.120 1249.645, 955.993 1257.751, 956.504 1279.357 C 957.157 1306.943, 956.974 1310.468, 954.457 1318.727 L 953.779 1320.954 969.139 1320.787 C 980.897 1320.659, 985.790 1321.006, 990 1322.268 C 1005.474 1326.903, 1011.935 1340.007, 1005.530 1353.763 C 1001.565 1362.280, 994.494 1372.522, 990.448 1375.608 C 983.270 1381.082, 968.534 1379.915, 949.703 1372.381 C 944.825 1370.429, 940.740 1368.983, 940.624 1369.166 C 939.842 1370.412, 933.046 1386.358, 933.248 1386.475 C 933.387 1386.555, 940.390 1388.505, 948.812 1390.809 C 978.883 1399.033, 991 1407.925, 991 1421.769 C 991 1427.353, 987.120 1434.631, 979.207 1443.895 C 966.400 1458.887, 963.038 1460.527, 946.741 1459.726 C 933.494 1459.075, 909.324 1455.080, 896.178 1451.370 L 886.855 1448.738 878.678 1456.972 C 867.725 1468.001, 855.389 1475.914, 832 1486.917 C 790.260 1506.551, 781.586 1513.735, 755.690 1550.113 C 750.361 1557.601, 746 1564.021, 746 1564.379 C 746 1564.738, 796.513 1564.996, 858.250 1564.953 C 965.166 1564.878, 998.189 1565.487, 1026.500 1568.054 C 1043.490 1569.594, 1073.432 1570.367, 1084.310 1569.545 L 1094.119 1568.804 1093.472 1563.152 C 1091.572 1546.564, 1086.052 1527.742, 1073.487 1495 C 1069.793 1485.375, 1064.793 1471.945, 1062.376 1465.155 C 1056.844 1449.617, 1045.624 1405.041, 1043.585 1390.500 C 1041.347 1374.537, 1038.254 1347.828, 1037.506 1338 C 1037.150 1333.325, 1036.008 1322.075, 1034.968 1313 C 1033.928 1303.925, 1032.594 1289.525, 1032.005 1281 C 1029.667 1247.215, 1029.080 1241.771, 1027.513 1239.379 C 1026.036 1237.125, 1025.444 1237.008, 1016.227 1237.145 C 1010.877 1237.224, 1001.120 1237.652, 994.544 1238.096" stroke="none" fill="#029cc8" fill-rule="evenodd"/><path d="M 877.272 99.954 C 860.524 105.982, 832.846 126.350, 823.383 139.611 C 816.558 149.176, 814.685 155.347, 814.613 168.500 C 814.569 176.712, 815.025 180.894, 816.414 185 C 822.345 202.537, 827.915 207.219, 842.364 206.815 C 854.229 206.483, 855.018 207.164, 866.904 227.985 C 871.496 236.030, 885.027 253.932, 891.124 260.028 C 899.569 268.473, 903.012 267.752, 907.014 256.700 C 913.020 240.110, 917.663 234.438, 924.500 235.334 C 930.330 236.097, 933.118 239.900, 945.334 263.742 C 951.184 275.159, 959.606 290.087, 964.052 296.916 C 971.779 308.788, 984.014 323, 986.506 323 C 987.847 323, 992.973 312.339, 998.926 297.168 C 1003.966 284.325, 1006.073 281.265, 1010.436 280.446 C 1014.257 279.729, 1017.328 281.045, 1019.472 284.317 C 1020.281 285.552, 1022.093 293.749, 1023.498 302.531 C 1026.530 321.487, 1029.469 330.961, 1035.448 341.044 C 1042.248 352.513, 1048.321 359.502, 1057.293 366.184 C 1066.640 373.146, 1072.693 376.188, 1082.119 378.660 L 1088.706 380.388 1094.784 373.890 C 1101.769 366.423, 1108.691 362.264, 1115.644 361.357 C 1118.315 361.009, 1121.022 360.314, 1121.660 359.814 C 1125.977 356.429, 1142.204 285.804, 1139.326 282.926 C 1137.253 280.853, 1115.805 274.016, 1103.310 271.445 C 1086.769 268.041, 1082.711 265.636, 1084.421 260.248 C 1086.645 253.241, 1103.609 254.601, 1129.977 263.900 C 1136.289 266.126, 1141.763 267.621, 1142.141 267.223 C 1143.391 265.908, 1145.894 216.560, 1144.767 215.434 C 1144.463 215.129, 1137.753 212.632, 1129.857 209.883 C 1102.013 200.191, 1062.459 192, 1043.502 192 C 1031.635 192, 1030.191 191.633, 1028.922 188.294 C 1027.564 184.724, 1028.844 181.132, 1032.068 179.465 C 1038.870 175.948, 1067.946 178.531, 1100.500 185.545 C 1118.200 189.359, 1124.506 191.168, 1136.818 195.960 C 1141.393 197.741, 1145.325 199.008, 1145.557 198.777 C 1146.558 197.776, 1143.347 158.060, 1142.125 156.327 C 1141.147 154.941, 1109.713 145.231, 1097.500 142.543 C 1080.004 138.692, 1068.101 137.607, 1044 137.668 C 1021.621 137.724, 1007.036 138.879, 995.411 141.516 C 987.970 143.203, 985.515 142.658, 983.991 138.978 C 981.207 132.256, 986.052 128.806, 1002.106 126.081 C 1017.948 123.391, 1046.941 121.617, 1062.475 122.387 C 1084.386 123.474, 1105.313 127.414, 1128.965 134.906 C 1134.170 136.555, 1138.601 137.733, 1138.810 137.523 C 1139.019 137.314, 1138.897 135.808, 1138.539 134.177 C 1137.959 131.535, 1137.373 131.138, 1133.194 130.554 C 1130.612 130.193, 1122.934 128.325, 1116.132 126.402 C 1089.543 118.886, 1073.506 116.690, 1044.500 116.593 C 1015.389 116.496, 1001.519 118.730, 969.765 128.630 C 960.467 131.529, 954.137 133, 952.610 132.617 C 951.260 132.278, 947.969 129.183, 945.164 125.614 C 937.643 116.044, 921.652 105.890, 905.631 100.512 C 896.260 97.366, 885.073 97.146, 877.272 99.954 M 905.844 138.394 C 895.193 142.198, 881.870 154.022, 876.232 164.674 C 874.435 168.069, 871.841 175.388, 870.468 180.937 C 868.142 190.337, 868.081 191.194, 869.575 193.474 C 871.426 196.300, 874.142 197.407, 876.997 196.501 C 879.702 195.642, 883.388 188.986, 885.905 180.416 C 889.665 167.613, 899.297 156.124, 910.045 151.622 C 913.629 150.121, 918 145.840, 918 143.832 C 918 142.418, 912.051 136.983, 910.570 137.044 C 909.981 137.068, 907.855 137.675, 905.844 138.394 M 970 151 C 966.515 154.485, 967.471 157.331, 974.635 164.793 C 984.542 175.112, 1010.120 211.229, 1022.447 232.305 C 1030.914 246.782, 1047.133 280.497, 1061.983 314.490 C 1069.189 330.985, 1075.765 345.518, 1076.595 346.786 C 1078.914 350.324, 1082.330 351.520, 1085.897 350.043 C 1092.460 347.324, 1091.173 342.237, 1073.999 303 C 1054.600 258.679, 1038.812 227.647, 1025.668 208 C 1015.560 192.892, 995.004 166.269, 986.862 157.742 C 979.691 150.230, 978.037 148.984, 975.250 148.992 C 973.342 148.997, 971.174 149.826, 970 151 M 941.483 169.958 C 922.240 179.965, 912.122 188.526, 902.582 202.876 C 896.740 211.665, 893.391 220.594, 891.477 232.485 C 889.521 244.642, 890.413 251.270, 894.565 255.422 C 896.891 257.748, 899.586 257.351, 902.525 254.250 C 904.790 251.860, 905.056 250.907, 904.559 246.965 C 903.902 241.749, 905.240 233.156, 908.062 224.462 C 911.889 212.671, 922.646 199.603, 934.853 191.914 C 956.709 178.146, 960 175.477, 960 171.520 C 960 169.242, 955.482 165, 953.054 165 C 951.934 165, 946.727 167.231, 941.483 169.958 M 1254.681 217.938 L 1252.006 226.876 1257.546 234.188 C 1266.877 246.502, 1277.525 269.796, 1284.429 293 C 1290.517 313.461, 1293.252 342.921, 1291.066 364.500 C 1288.365 391.172, 1277.497 448.353, 1272.127 464.152 C 1269.035 473.249, 1261.989 475.747, 1258.493 468.986 C 1257.064 466.222, 1257.140 465.089, 1259.522 453.750 C 1274.212 383.827, 1275.482 375.228, 1275.439 346 C 1275.406 324.323, 1275.193 321.509, 1272.690 309.719 C 1269.141 293.005, 1262.351 272.543, 1256.111 259.752 C 1249.795 246.807, 1247.097 242.492, 1246.023 243.616 C 1245.559 244.102, 1242.894 250.516, 1240.102 257.870 L 1235.024 271.240 1237.471 274.148 C 1244.416 282.401, 1253.339 324.743, 1256.090 362.500 C 1257.337 379.607, 1256.915 395.973, 1254.517 423.500 C 1252.181 450.317, 1252.067 450.948, 1249.008 454.149 C 1246.013 457.283, 1244.567 457.637, 1242.463 455.750 C 1241.697 455.063, 1240.379 453.920, 1239.535 453.211 C 1237.543 451.537, 1237.532 440.615, 1239.500 417 C 1241.211 396.468, 1241.397 370.384, 1239.953 353.500 C 1237.626 326.296, 1231.174 289.997, 1228.667 290.002 C 1228.025 290.004, 1223.556 299.341, 1218.736 310.752 L 1209.972 331.500 1214.014 340.830 C 1222.634 360.731, 1226.395 379.663, 1225.767 400 C 1225.357 413.306, 1224.204 417.452, 1220.658 418.379 C 1213.199 420.330, 1211.271 415.630, 1210.657 394 C 1210.384 384.404, 1209.513 374.362, 1208.573 370 C 1206.459 360.181, 1203.074 350, 1201.924 350 C 1201.421 350, 1196.902 358.212, 1191.881 368.250 C 1181.912 388.179, 1175.723 399.378, 1169.769 408.264 C 1165.480 414.664, 1165.382 414.505, 1174.263 415.501 C 1182.221 416.393, 1192.814 421.858, 1198.097 427.798 C 1204.265 434.732, 1207.270 441.954, 1207.801 451.120 C 1208.204 458.087, 1207.988 459.251, 1205.415 463.980 C 1203.858 466.839, 1200.223 471.337, 1197.337 473.975 L 1192.089 478.771 1197.857 482.331 C 1213.311 491.870, 1221.405 507.819, 1219.131 524.250 C 1218.693 527.413, 1218.686 530, 1219.115 530 C 1221.926 530, 1245.670 507.603, 1256.220 495 C 1284.115 461.677, 1301.762 423.004, 1307.601 382.394 C 1309.669 368.011, 1309.968 337.136, 1308.152 325.500 C 1302.381 288.531, 1292.563 256.388, 1281.426 238 C 1275.352 227.971, 1260.164 209, 1258.209 209 C 1257.740 209, 1256.153 213.022, 1254.681 217.938 M 1068 245 C 1065.446 247.554, 1065.355 253.106, 1067.829 255.345 C 1070.565 257.821, 1076.535 257.502, 1078.443 254.777 C 1082.003 249.695, 1078.909 243, 1073 243 C 1071.333 243, 1069.111 243.889, 1068 245 M 1183 560.536 C 1179.425 561.222, 1171.614 561.833, 1165.643 561.892 C 1155.743 561.990, 1154.845 562.154, 1155.457 563.748 C 1155.826 564.709, 1156.586 567.634, 1157.147 570.248 C 1157.991 574.185, 1158.547 575, 1160.387 575 C 1171.857 575, 1198.455 602.890, 1204.027 620.760 C 1206.661 629.207, 1207.861 647.508, 1206.065 651.844 C 1203.981 656.875, 1197.636 657.039, 1194.740 652.137 C 1193.851 650.632, 1192.444 644.248, 1191.614 637.950 C 1190.784 631.653, 1189.422 624.574, 1188.586 622.221 C 1185.332 613.047, 1174.623 599.675, 1164.640 592.318 C 1161.417 589.943, 1158.492 588.002, 1158.140 588.004 C 1157.788 588.006, 1156.660 590.050, 1155.633 592.546 C 1153.965 596.603, 1153.927 597.266, 1155.272 598.792 C 1159.709 603.824, 1169.492 627.902, 1168.579 631.541 C 1167.788 634.694, 1163.380 636.400, 1159.827 634.928 C 1156.943 633.734, 1156.245 632.515, 1147.983 614.250 C 1146.180 610.263, 1144.297 607, 1143.799 607 C 1143.301 607, 1141.230 608.139, 1139.197 609.531 C 1137.164 610.923, 1133.111 612.762, 1130.192 613.619 C 1126.229 614.781, 1124.645 615.804, 1123.942 617.653 C 1123.424 619.015, 1123 620.304, 1123 620.517 C 1123 621.118, 1136.321 629.589, 1145.354 634.732 C 1161.597 643.982, 1179.664 654.978, 1187.168 660.182 C 1193.027 664.245, 1210.394 679.468, 1217.174 686.484 C 1217.544 686.867, 1222.314 683.560, 1227.773 679.135 L 1237.698 671.090 1238.958 660.457 C 1241.748 636.917, 1235.631 611.861, 1222.124 591.500 C 1214.567 580.109, 1193.321 558.547, 1190.241 559.144 C 1189.834 559.222, 1186.575 559.849, 1183 560.536 M 827.334 1295.250 C 819.627 1308.165, 817 1313.405, 817 1315.857 C 817 1316.922, 818.645 1319.238, 820.657 1321.003 C 828.419 1327.819, 849.655 1340, 853.774 1340 C 856.837 1340, 864.404 1330.942, 868.982 1321.796 C 871.192 1317.381, 873 1313.005, 873 1312.071 C 873 1309.991, 869.522 1306.714, 861 1300.765 C 855.251 1296.752, 835.041 1285, 833.889 1285 C 833.647 1285, 830.697 1289.612, 827.334 1295.250 M 951.173 1337.390 C 940.739 1338.632, 939.667 1339.449, 940.191 1345.767 C 940.456 1348.968, 941.179 1349.954, 945.260 1352.681 C 951.596 1356.916, 964.238 1361.704, 973.087 1363.222 L 980.260 1364.452 983.183 1360.976 C 984.791 1359.064, 987.729 1354.231, 989.713 1350.234 L 993.319 1342.969 990.984 1340.483 C 989.699 1339.116, 987.040 1337.550, 985.074 1337.004 C 980.551 1335.748, 963.325 1335.944, 951.173 1337.390 M 766.979 1357.282 C 758.629 1360.424, 739 1375.311, 739 1378.503 C 739 1379.179, 742.038 1381.084, 745.750 1382.735 C 753.386 1386.133, 791.895 1399, 794.426 1399 C 797.432 1399, 803.807 1395.093, 809.602 1389.699 C 814.716 1384.939, 815.238 1384.086, 814.599 1381.540 C 813.560 1377.397, 802.866 1367.696, 794.629 1363.422 C 790.708 1361.387, 786.766 1359.088, 785.868 1358.313 C 783.545 1356.307, 771.342 1355.641, 766.979 1357.282 M 905.834 1400.522 C 903.037 1401.415, 900.066 1403.311, 898.417 1405.256 C 895.850 1408.283, 889.065 1421.692, 887.546 1426.739 C 886.581 1429.945, 890.540 1433.239, 898.500 1435.852 C 911.318 1440.060, 949.858 1446.005, 955.362 1444.624 C 958.528 1443.829, 966.892 1435.323, 972.044 1427.657 C 976.668 1420.779, 976.383 1419.467, 969.289 1414.969 C 964.164 1411.718, 955.461 1408.667, 936.829 1403.590 C 921.307 1399.360, 912.273 1398.466, 905.834 1400.522" stroke="none" fill="#fed92b" fill-rule="evenodd"/><path d="M 843.956 232.750 C 839.445 240.767, 826.931 257.413, 809.938 278 C 769.785 326.646, 753.963 357.181, 748.432 396.699 C 746.469 410.722, 746.969 432.327, 749.526 444 C 759.634 490.147, 787.709 534.393, 831 572.403 C 846.864 586.333, 860.759 600.236, 861.953 603.375 C 862.501 604.819, 863.629 606, 864.459 606 C 865.288 606, 873.512 606.741, 882.734 607.646 C 917.025 611.012, 960.564 608.872, 990 602.376 C 998.629 600.471, 1020.251 592.820, 1023.822 590.407 C 1023.999 590.287, 1023.436 588.106, 1022.572 585.560 C 1019.932 577.785, 1020.644 570.031, 1025.519 553.478 C 1026.085 551.554, 1025.752 551.474, 1018.716 551.829 C 1009.806 552.279, 1005.559 550.499, 999.276 543.684 C 988.519 532.013, 985.260 514.563, 991.080 499.796 C 993.855 492.756, 1000.390 483.813, 1008.136 476.453 C 1013.129 471.710, 1020.504 465.654, 1022.773 464.434 C 1022.923 464.354, 1021.279 460.833, 1019.120 456.611 C 1008.889 436.606, 1012.936 419.250, 1030.714 406.885 C 1042.512 398.678, 1052.674 396.071, 1063.810 398.393 C 1067.643 399.192, 1072.610 400.781, 1074.849 401.923 C 1080.205 404.655, 1080.642 404.576, 1081.284 400.750 C 1081.584 398.962, 1082.120 396.768, 1082.475 395.873 C 1082.997 394.555, 1082.205 394.108, 1078.310 393.526 C 1071.188 392.462, 1062.877 388.768, 1053.367 382.440 C 1032.605 368.626, 1016.662 346.014, 1011.430 322.961 C 1010.436 318.582, 1009.370 315.015, 1009.061 315.034 C 1008.753 315.053, 1006.933 318.541, 1005.017 322.784 C 1002.627 328.077, 999.905 332.110, 996.348 335.628 C 991.673 340.249, 990.856 341.746, 988.062 350.799 C 977.508 385.001, 956.961 403.470, 929.500 403.441 C 921.725 403.432, 919.820 403.073, 915.500 400.800 C 894.627 389.815, 887.174 360.376, 897.450 329.500 C 902.878 313.190, 917.293 285.389, 927.054 272.406 L 930.131 268.312 927.357 262.656 C 925.832 259.545, 924.336 257, 924.033 257 C 923.730 257, 922.407 259.997, 921.093 263.661 C 917.024 275.009, 909.947 281, 900.615 281 L 896.166 281 895.063 286.141 C 893.046 295.549, 887.350 304.694, 877.025 315.102 C 863.644 328.591, 853.078 333.088, 833.823 333.490 L 824.146 333.692 819.168 337.859 C 805.824 349.031, 797.518 361.369, 794.922 373.876 C 794.268 377.028, 793.958 383.660, 794.217 388.996 C 794.755 400.098, 796.228 404.020, 804.910 417.477 C 815.039 433.176, 815.442 434.467, 811.455 438.455 C 806.787 443.122, 803.622 441.482, 794.716 429.777 C 782.331 413.503, 778.695 403.473, 778.665 385.500 C 778.628 364.031, 784.161 350.923, 799.950 335.071 C 805.203 329.797, 811.809 323.596, 814.631 321.289 C 819.379 317.407, 819.893 316.551, 821.523 309.797 C 825.156 294.747, 828.576 288.666, 840.417 276.196 C 848.169 268.031, 856.412 261.317, 862.715 258.031 L 866.773 255.917 858.454 243.461 C 853.880 236.610, 849.850 230.104, 849.501 229.003 C 848.501 225.854, 847.428 226.579, 843.956 232.750 M 925.945 411.885 C 906.941 417.967, 892.838 434.620, 891.316 452.775 C 890.599 461.320, 891.705 460.860, 869.894 461.674 C 848.001 462.490, 838.730 460.653, 807.596 449.329 C 791.017 443.299, 788.024 443.113, 786.006 447.984 C 784.557 451.484, 785.350 454.353, 788.289 456.243 C 790.189 457.465, 803.960 463.138, 817.500 468.276 C 820.534 469.427, 821.430 470.272, 821.208 471.772 C 821.048 472.860, 822.029 478.679, 823.389 484.703 C 824.749 490.728, 826.361 500.347, 826.972 506.078 C 828.454 519.995, 830.229 525.888, 834.034 529.528 C 836.773 532.149, 837.812 532.488, 842.820 532.395 C 855.280 532.166, 875.940 519.875, 894.826 501.455 L 906.339 490.227 910.919 493.020 C 919.946 498.525, 933.705 500.518, 944.888 497.939 C 956.343 495.299, 969.232 485.644, 975.713 474.851 C 982.429 463.665, 983.758 448.002, 979.036 435.683 C 974.749 424.498, 962.200 413.899, 949.885 411.060 C 943.203 409.519, 932.147 409.901, 925.945 411.885 M 856.994 1056.750 C 856.990 1057.713, 856.300 1059.818, 855.460 1061.430 C 853.065 1066.022, 855.315 1107.594, 861.046 1164.626 C 862.683 1180.912, 867.929 1212.263, 869.237 1213.570 C 869.403 1213.736, 874.255 1213.260, 880.019 1212.511 C 885.784 1211.763, 896.561 1210.644, 903.968 1210.024 C 911.376 1209.404, 917.534 1208.800, 917.653 1208.681 C 918.474 1207.859, 914.773 1154.948, 912.429 1134 C 906.557 1081.525, 901.717 1064.705, 891.228 1060.322 C 886.764 1058.457, 867.377 1055, 861.379 1055 C 857.878 1055, 856.999 1055.351, 856.994 1056.750 M 974.739 1075.914 C 972.670 1076.340, 970.661 1077.006, 970.273 1077.394 C 968.969 1078.698, 968.755 1128.405, 969.921 1159.090 C 971.186 1192.385, 972.465 1210.595, 974.120 1218.880 L 975.196 1224.260 980.848 1223.606 C 983.957 1223.246, 994.202 1222.672, 1003.615 1222.329 L 1020.730 1221.706 1022.003 1198.452 C 1024.213 1158.069, 1022.435 1121.837, 1016.899 1094.500 C 1013.323 1076.839, 1011.739 1075.620, 992 1075.334 C 984.575 1075.227, 976.808 1075.487, 974.739 1075.914" stroke="none" fill="#f4d8a9" fill-rule="evenodd"/><path d="M 1133 88.662 C 1122.522 89.687, 1113.114 91.376, 1105.286 93.636 C 1096.391 96.204, 1081.607 101.940, 1082.243 102.576 C 1082.433 102.767, 1088.419 104.061, 1095.545 105.452 C 1102.670 106.844, 1113.860 109.561, 1120.412 111.491 C 1126.963 113.421, 1132.869 115, 1133.537 115 C 1134.204 115, 1135.021 113.645, 1135.352 111.989 C 1136.159 107.956, 1139.786 106.254, 1143.924 107.968 C 1146.257 108.935, 1147.417 110.489, 1149.063 114.858 C 1153.576 126.833, 1157.976 150.535, 1159.949 173.500 C 1161.830 195.397, 1160.848 241.550, 1157.939 268 C 1155.035 294.400, 1147.880 327.554, 1139.950 351.353 C 1137.777 357.872, 1136 363.529, 1136 363.924 C 1136 364.319, 1137.975 366.703, 1140.389 369.223 C 1145.764 374.832, 1150.462 384.185, 1152.584 393.500 C 1155.326 405.532, 1155.098 405.446, 1160.408 396.479 C 1169.889 380.468, 1194.001 329.587, 1208.045 295.956 C 1234.623 232.312, 1247.274 194.312, 1248.684 173.887 C 1249.488 162.238, 1247.040 154.181, 1239.081 142.283 C 1232.472 132.401, 1217.905 117.717, 1208.140 111.091 C 1200.221 105.718, 1182.089 96.978, 1171.500 93.430 C 1158.863 89.195, 1145.046 87.484, 1133 88.662 M 1084.484 669.301 C 1076.342 677.656, 1055.994 695.098, 1044.632 703.461 C 1017.200 723.655, 986.993 737.359, 941 750.476 C 924.431 755.201, 919.475 756.329, 905.674 758.513 C 902.414 759.029, 901.635 759.665, 900.407 762.810 C 894.101 778.952, 883.956 787.326, 864.853 792.157 C 853.079 795.134, 840.954 794.430, 827.720 790.001 C 822.340 788.200, 817.784 786.901, 817.595 787.114 C 817.405 787.326, 814.037 792.670, 810.110 798.989 L 802.970 810.477 809.235 812.021 C 830.781 817.328, 844.219 834.572, 844.289 857 C 844.365 881.238, 827.753 895.500, 799.446 895.500 C 789.838 895.500, 789.053 895.333, 781.788 891.741 C 776.458 889.106, 772.661 886.316, 769.092 882.410 C 766.291 879.346, 764 876.425, 764 875.919 C 764 872.782, 760.403 877.743, 746.357 900.250 C 723.888 936.253, 717 950.001, 717 958.841 C 717 967.759, 725.520 977.115, 743.532 987.975 C 760.739 998.349, 786.389 1007.738, 843 1024.384 C 888.723 1037.829, 907.944 1042.071, 943 1046.454 C 974.083 1050.340, 994.505 1051.769, 1026.839 1052.322 L 1049.178 1052.704 1050.238 1050.102 C 1053.770 1041.433, 1057.380 1034.303, 1062.697 1025.487 C 1066.010 1019.994, 1069.706 1013.561, 1070.911 1011.190 L 1073.102 1006.880 1069.884 1003.215 C 1058.115 989.811, 1040.724 954.094, 1035.009 931.590 C 1029.885 911.416, 1034.616 898.363, 1050.950 887.602 L 1057.930 883.003 1056.050 878.617 C 1055.016 876.204, 1051.616 865.966, 1048.494 855.865 C 1043.923 841.075, 1034.071 813.421, 1025.892 792.426 C 1023.302 785.778, 1027.807 780.435, 1033.881 782.951 C 1037.438 784.424, 1039.029 787.579, 1049.418 813.753 C 1057.915 835.162, 1065.093 855.640, 1068.433 868 C 1070.321 874.985, 1071.067 876.475, 1072.615 876.359 C 1073.652 876.281, 1079.225 874.561, 1085 872.535 C 1105.545 865.329, 1142.696 857.648, 1162.682 856.473 C 1168.082 856.155, 1173.913 855.683, 1175.639 855.423 L 1178.779 854.951 1174.356 839.725 C 1163.303 801.672, 1145.123 754.458, 1128.640 721 C 1121.244 705.988, 1094.262 661.984, 1092.500 662.060 C 1091.950 662.084, 1088.343 665.342, 1084.484 669.301" stroke="none" fill="#fe3f58" fill-rule="evenodd"/><path d="M 932.746 426.031 C 922.073 428.701, 911.569 437.761, 908.526 446.922 C 907.183 450.966, 907.082 453.149, 907.927 459.886 C 909.076 469.054, 910.400 472.129, 915.165 476.699 C 925.574 486.684, 943.380 485.903, 955.382 474.934 C 962.938 468.028, 966.425 460.773, 966.371 452.069 C 966.324 444.351, 964.568 439.742, 959.568 434.207 C 953.226 427.187, 941.912 423.739, 932.746 426.031" stroke="none" fill="#f7beaa" fill-rule="evenodd"/></svg>