<svg id="Layer_1" data-name="Layer 1" xmlns="http://www.w3.org/2000/svg" viewBox="0 0 576 576"><defs><style>.cls-1{fill:#231f20;}.cls-2{fill:#f1c3ad;}.cls-3{fill:#982d27;}.cls-4{fill:#f9b5a4;}</style></defs><path class="cls-1" d="M497.87,241.51c-25-46.35-66.37-101.32-140-123.3a50.21,50.21,0,0,0,1.43-11.76c0-38.81-44.92-70.28-100.34-70.28S158.59,67.64,158.59,106.45a52.45,52.45,0,0,0,7.62,26.89c-58.35,28.13-79.27,73.56-95.95,103.93-23.71,43.19-23.12,85.8-14.6,87,18.41,2.49,59.62-40.15,70.49-59.85C139.7,239.81,171,178,171,178c5.92,9.31,67.74,27.1,102.45,29.64S392.87,217,431.82,242.35s73.16,69,86.45,70.57C526.63,313.93,515.65,274.53,497.87,241.51Z"/><path class="cls-2" d="M529.64,311.21a45.85,45.85,0,0,0-9.8,1.15,1.88,1.88,0,0,1-1.57.56c-13.29-1.61-47.5-45.16-86.45-70.57S308.2,210.18,273.48,207.64,177,187.31,171,178c0,0-31.33,61.81-44.88,86.37-10.87,19.7-52.08,62.34-70.49,59.85l0,0a47,47,0,0,0-9.25-.93A46.36,46.36,0,1,0,68,410.63c32.35,75.31,118.64,129.2,220,129.2,105.92,0,195.33-58.8,224-139.39a46.36,46.36,0,1,0,17.63-89.23Z"/><path class="cls-1" d="M257.09,363.57a1.51,1.51,0,0,1-.68-.16,1.55,1.55,0,0,1-.71-2.08c2.24-4.59,21.07-24.16,31.88-24.16,11.24,0,30.47,19.22,32.72,23.72a1.56,1.56,0,0,1-2.79,1.4c-2-3.94-20.21-22-29.93-22-8.69,0-26.84,17.81-29.09,22.42A1.55,1.55,0,0,1,257.09,363.57Z"/><path class="cls-3" d="M231.94,402.13c14.52,8.94,39.4,15.61,55.66,15.22s43.18-7.11,56.62-14.83c4.15-2.39-14.39,40.46-55.67,40.93C244.86,444,226.91,399,231.94,402.13Z"/><path class="cls-1" d="M254.61,301.47c0,10.76-5.69,19.48-12.7,19.48s-12.7-8.72-12.7-19.48S234.9,282,241.91,282,254.61,290.71,254.61,301.47Z"/><path class="cls-1" d="M201.54,276.64l-.35,0a2.27,2.27,0,0,1-1.88-2.58,33.66,33.66,0,0,1,33.44-28.6,34,34,0,0,1,27.32,13.85,2.26,2.26,0,0,1-3.65,2.67,29.47,29.47,0,0,0-23.67-12,29.17,29.17,0,0,0-29,24.77A2.25,2.25,0,0,1,201.54,276.64Z"/><path class="cls-1" d="M334.09,282c7,0,12.7,8.71,12.7,19.47S341.1,321,334.09,321s-12.7-8.72-12.7-19.48S327.08,282,334.09,282Z"/><path class="cls-1" d="M374.46,276.64a2.25,2.25,0,0,1-2.23-1.91,29.17,29.17,0,0,0-29-24.77,29.47,29.47,0,0,0-23.67,12,2.26,2.26,0,1,1-3.65-2.67,34,34,0,0,1,27.32-13.85A33.66,33.66,0,0,1,376.69,274a2.27,2.27,0,0,1-1.88,2.58Z"/><circle class="cls-4" cx="172.96" cy="375.14" r="29.64"/><circle class="cls-4" cx="421.06" cy="375.14" r="29.64"/></svg>