<?xml version="1.0" encoding="utf-8"?>
<!-- Generator: Adobe Illustrator 25.4.1, SVG Export Plug-In . SVG Version: 6.00 Build 0)  -->
<svg version="1.1" id="Layer_1" xmlns="http://www.w3.org/2000/svg" xmlns:xlink="http://www.w3.org/1999/xlink" x="0px" y="0px"
	 viewBox="0 0 590.4 446.4" style="enable-background:new 0 0 590.4 446.4;" xml:space="preserve">
<style type="text/css">
	.st0{fill:#CA7156;}
	.st1{fill:#F8F8F9;}
	.st2{fill:#D28D5E;}
	.st3{fill:#ED1C24;}
	.st4{fill:#FFFFFF;}
</style>
<g>
	<path class="st0" d="M577.39,14.27c-15.18-15.18-68.31-5.42-107.34,11.93c-37.48,16.66-45.8,34.39-57.12,62.58
		c-32.71-24.74-73.44-39.42-117.61-39.42c-44.25,0-85.05,14.74-117.79,39.56c-11.35-28.27-19.64-46.03-57.18-62.72
		C81.31,8.84,28.19-0.91,13.01,14.27s1.08,83.49,29.27,117.1c22.44,26.76,51.74,46.63,67.14,53.63c-6,18.76-9.25,38.76-9.25,59.51
		c0,107.78,87.37,195.15,195.15,195.15s195.15-87.37,195.15-195.15c0-20.79-3.26-40.81-9.28-59.6
		c15.45-7.08,44.59-26.89,66.94-53.54C576.31,97.75,592.57,29.45,577.39,14.27z M124.21,150.6c-7.87,1.83-20.78,6.72-35.31,1.37
		c-20.6-7.59-53.13-32.53-61.8-65.05S7.59,26.19,18.43,22.94c10.84-3.25,0-11.93,57.47-3.25s54.21,30.36,54.21,34.7
		c0,4,4.62,57.77,13.84,66.96C136.53,130.45,129.91,140.24,124.21,150.6z M563.3,86.91c-8.67,32.53-41.2,57.47-61.8,65.05
		c-14.37,5.29-27.15,0.57-35.05-1.31c-5.73-10.43-12.39-20.29-19.87-29.45c9.14-9.54,13.71-62.85,13.71-66.83
		c0-4.34-3.25-26.02,54.21-34.7c57.47-8.67,46.62,0,57.47,3.25C582.81,26.19,571.97,54.38,563.3,86.91z"/>
	<path class="st1" d="M365.72,354.72c-2.5-20.15-16.62-30.93-37.11-35.83c0.02,0.43,0.06,0.84,0.06,1.27
		c0,18.49-14.99,33.48-33.48,33.48c-18.49,0-33.48-14.99-33.48-33.48c0-0.57,0.06-1.13,0.09-1.7
		c-22.51,4.67-38.52,15.45-37.18,36.26c1.73,26.74,37.79,71.02,70.22,69.93C329.37,423.5,368.36,376.04,365.72,354.72z"/>
	<path class="st2" d="M88.9,151.97c-20.6-7.59-53.13-32.53-61.8-65.05S7.59,26.19,18.43,22.94c10.84-3.25,0-11.93,57.47-3.25
		s54.21,30.36,54.21,34.7c0,4,4.62,57.77,13.84,66.96c-7.42,9.11-14.03,18.9-19.73,29.26C116.34,152.43,103.44,157.32,88.9,151.97z"
		/>
	<path class="st2" d="M563.3,86.91c-8.67,32.53-41.2,57.47-61.8,65.05c-14.37,5.29-27.15,0.57-35.05-1.31
		c-5.73-10.43-12.39-20.29-19.87-29.45c9.14-9.54,13.71-62.85,13.71-66.83c0-4.34-3.25-26.02,54.21-34.7
		c57.47-8.67,46.62,0,57.47,3.25C582.81,26.19,571.97,54.38,563.3,86.91z"/>
	<g>
		<path d="M206.2,92.92c1.94,1.97,14.37,8.96,29.92,3.92s24.61-9.87,23.53-16.27c-1.08-6.4-10.63-26.33-16.02-34.84
			c-6.72-10.61-19.58-12.34-25.17-11.78c-5.59,0.57-17.13,10.85-15.87,23.31C203.55,66.71,206.2,92.92,206.2,92.92z"/>
		<path d="M384.2,92.92c-1.94,1.97-14.37,8.96-29.92,3.92c-15.55-5.05-24.61-9.87-23.53-16.27c1.08-6.4,10.63-26.33,16.02-34.84
			c6.72-10.61,19.58-12.34,25.17-11.78c5.59,0.57,17.13,10.85,15.87,23.31C386.85,66.71,384.2,92.92,384.2,92.92z"/>
	</g>
	<g>
		<circle class="st3" cx="295.2" cy="320.16" r="33.48"/>
		<ellipse class="st4" cx="295.25" cy="308.73" rx="5.96" ry="4.52"/>
	</g>
	<path d="M252.27,382.19c7.93,3.69,26.38,10.06,42.05,10.34c15.69,0.28,32.63-4.47,43.52-10.07c9.23-4.75-20.88,27.17-43.52,27.1
		C276.07,409.49,243.68,378.19,252.27,382.19z"/>
	<g>
		<g>
			<path d="M229.42,212.31c-3.67-14.46-13.41-52.89-35.61-54.49c-14.24-1.06-37.52,15.1-44.56,54.17
				c-10.34,57.37,19.66,76.7,23.12,78.72c6.86,4,19.45,8.32,30.73,8.32c3.11,0,6.11-0.33,8.88-1.08
				c11.95-3.26,18.04-9.59,20.36-21.18C235.07,263.07,234.4,231.93,229.42,212.31z M199.01,210.42c-17.83,0-32.29,14.45-32.29,32.29
				c0,15.09,11.25,42.99,25.51,51.22c-7.09-1.5-13.77-4.12-17.93-6.55c-3.22-1.87-31.14-19.91-21.27-74.7
				c6.62-36.72,27.64-51.93,40.49-51.01c19.43,1.4,28.67,37.86,32.15,51.59c1.3,5.11,2.27,10.8,2.96,16.64
				C223.69,218.44,212.29,210.42,199.01,210.42z"/>
			<path class="st4" d="M199.01,210.42c-17.83,0-32.29,14.45-32.29,32.29c0,15.09,11.25,42.99,25.51,51.22
				c-7.09-1.5-13.77-4.12-17.93-6.55c-3.22-1.87-31.14-19.91-21.27-74.7c6.62-36.72,27.64-51.93,40.49-51.01
				c19.43,1.4,28.67,37.86,32.15,51.59c1.3,5.11,2.27,10.8,2.96,16.64C223.69,218.44,212.29,210.42,199.01,210.42z"/>
		</g>
		<g>
			<path d="M358.07,276.77c2.32,11.59,8.41,17.92,20.36,21.18c2.76,0.75,5.77,1.08,8.88,1.08c11.28,0,23.87-4.32,30.73-8.32
				c3.46-2.02,33.46-21.35,23.12-78.72c-7.04-39.07-30.31-55.23-44.56-54.17c-22.21,1.6-31.95,40.02-35.61,54.49
				C356,231.93,355.33,263.07,358.07,276.77z M361.75,229.9c0.7-5.84,1.67-11.53,2.96-16.64c3.48-13.73,12.72-50.19,32.15-51.59
				c12.84-0.93,33.87,14.29,40.49,51.01c9.87,54.79-18.05,72.83-21.27,74.7c-4.16,2.43-10.84,5.05-17.93,6.55
				c14.26-8.23,25.51-36.13,25.51-51.22c0-17.83-14.45-32.29-32.29-32.29C378.11,210.42,366.71,218.44,361.75,229.9z"/>
			<path class="st4" d="M361.75,229.9c0.7-5.84,1.67-11.53,2.96-16.64c3.48-13.73,12.72-50.19,32.15-51.59
				c12.84-0.93,33.87,14.29,40.49,51.01c9.87,54.79-18.05,72.83-21.27,74.7c-4.16,2.43-10.84,5.05-17.93,6.55
				c14.26-8.23,25.51-36.13,25.51-51.22c0-17.83-14.45-32.29-32.29-32.29C378.11,210.42,366.71,218.44,361.75,229.9z"/>
		</g>
	</g>
</g>
</svg>
