<?xml version="1.0" encoding="utf-8"?>
<!-- Generator: Adobe Illustrator 25.4.1, SVG Export Plug-In . SVG Version: 6.00 Build 0)  -->
<svg version="1.1" id="Layer_1" xmlns="http://www.w3.org/2000/svg" xmlns:xlink="http://www.w3.org/1999/xlink" x="0px" y="0px"
	 viewBox="0 0 568.8 590.4" style="enable-background:new 0 0 568.8 590.4;" xml:space="preserve">
<style type="text/css">
	.st0{fill:#F1F2F2;}
	.st1{fill:#E6E7E8;}
	.st2{fill:#BCBEC0;}
	.st3{fill:#F7D030;}
	.st4{fill:#006838;}
</style>
<g>
	<path class="st0" d="M562.8,373.6c0,121.94-124.88,209.6-278.64,209.6S6,495.54,6,373.6s124.64-220.8,278.4-220.8
		S562.8,251.66,562.8,373.6z"/>
	<circle class="st1" cx="284.4" cy="354.17" r="48.69"/>
	<path class="st2" d="M432.77,365.37c-3.66-2.29-17.83,3.66-38.86,7.31c-21.03,3.66-30.17-6.86-43.43-7.77
		c-7.93-0.55-14.71,1.56-19.77,4.23c-6.32,19.56-24.65,33.72-46.32,33.72s-40-14.16-46.32-33.72c-5.06-2.66-11.84-4.77-19.77-4.23
		c-13.26,0.91-22.4,11.43-43.43,7.77c-21.03-3.66-35.2-9.6-38.86-7.31c-3.66,2.29,3.66,32,35.2,50.74
		c20.46,12.16,41.72,16.92,59.13,16.43c-2.55,13.63-7.31,50.21,8.01,78.66c19.2,35.66,54.86,48.46,54.86,48.46
		s44.8-24.23,56.23-54.86c9.96-26.69,6.17-53.96,1.28-72.73c14.65-1.55,30.99-6.54,46.83-15.96
		C429.11,397.37,436.43,367.66,432.77,365.37z M287.74,446.74c-28.95,0.78-41.97-7.66-47.82-15.06c5.51-0.86,10.47-2.29,14.62-4.26
		c11.83-5.62,23.25-15,29.86-20.93c6.61,5.94,18.02,15.31,29.86,20.93c5.63,2.67,12.7,4.39,20.7,4.96
		C326.66,438.89,312.61,446.07,287.74,446.74z"/>
	<path d="M314.26,427.43c-11.83-5.62-23.25-15-29.86-20.93c-6.61,5.94-18.02,15.31-29.86,20.93c-0.38,0.18-0.81,0.33-1.2,0.51
		c7.83,5.1,18.83,8.29,31.06,8.29s23.23-3.19,31.06-8.29C315.06,427.76,314.64,427.61,314.26,427.43z"/>
	<g>
		<path d="M233.45,310.5c-1.43,5.57-7.08,9.21-19.74,5.68c-11.78-3.28-16-8.91-14.57-14.48s8.26-9.19,19.74-5.68
			C230.15,299.46,234.88,304.93,233.45,310.5z"/>
		<path d="M335.35,310.5c1.43,5.57,7.08,9.21,19.74,5.68c11.78-3.28,16-8.91,14.57-14.48s-8.26-9.19-19.74-5.68
			C338.65,299.46,333.92,304.93,335.35,310.5z"/>
	</g>
	<g>
		<path class="st2" d="M340.28,256.58c8.13-1.24,37.07-0.68,64.37,8.24c30.9,10.09,54.2,34.06,64.01,42.28
			c3.2,2.68-0.59-22.11-13.34-37.51c-12.75-15.4-17.02-16.14-17.02-16.14s8.98-0.21,16.09,2.41c5.03,1.85-12.8-27.88-56.14-27.06
			C365.27,229.42,340.28,256.58,340.28,256.58z"/>
		<path class="st2" d="M228.52,256.58c-8.13-1.24-37.07-0.68-64.37,8.24c-30.9,10.09-54.2,34.06-64.01,42.28
			c-3.2,2.68,0.59-22.11,13.34-37.51s17.02-16.14,17.02-16.14s-8.98-0.21-16.09,2.41c-5.03,1.85,12.8-27.88,56.14-27.06
			C203.53,229.42,228.52,256.58,228.52,256.58z"/>
	</g>
	<g>
		<path class="st3" d="M132.58,161.57l3.09-28.41c0,0,53.49,10.02,141.71,9.5c116.57-0.69,156.34-8.23,156.34-8.23l2.49,27.01
			c0,0-60.32,9.33-157.24,10.71C198.3,173.28,132.58,161.57,132.58,161.57z"/>
		<g>
			<path class="st4" d="M277.47,142.66c114.42-0.67,154.82-7.95,156.27-8.22c-0.02-0.25-0.04-0.53-0.07-0.76
				C423.15,49.97,388.41,7.53,284.06,7.2c-100.81-0.32-138.13,41.89-148.2,125.05c-0.03,0.28-0.05,0.61-0.07,0.92
				C136.46,133.29,189.8,143.17,277.47,142.66z"/>
			<path class="st4" d="M482.72,146.06c-3.88,0-29.43,9.83-46.53,15.43c0,0,0-0.02,0-0.03c-2.55,0.39-62.3,9.35-157.11,10.69
				c-80.69,1.14-146.4-10.57-146.4-10.57l0.1-0.88c-0.07,0.48-0.11,0.78-0.11,0.8c-17.1-5.59-42.69-15.44-46.57-15.44
				c-4.8,0-4.8,3.77-4.8,6.17c0,2.4,7.54,19.2,16.46,27.77s15.09,13.71,15.09,13.71s2.08,9.84,89.54,12.41
				c24.03,2.59,52.46,3.01,82.42,3.01c30.1,0,58.45-0.42,82.33-3.03c86.79-2.61,88.86-12.39,88.86-12.39s6.17-5.14,15.09-13.71
				c8.91-8.57,16.46-25.37,16.46-27.77C487.52,149.83,487.52,146.06,482.72,146.06z"/>
		</g>
	</g>
</g>
</svg>
