<svg id="Layer_1" data-name="Layer 1" xmlns="http://www.w3.org/2000/svg" viewBox="0 0 576 576"><defs><style>.cls-1{fill:#fbc2af;}.cls-2{fill:#231f20;}.cls-3{fill:#f9a986;}.cls-4{fill:#f1f2f2;}.cls-5{fill:#fff;}.cls-6{fill:#ed1c24;}.cls-7{fill:#f58968;}</style></defs><path class="cls-1" d="M222.15,339.1c22.52,23.83,63.92,18.48,79.51,16.71,11.75-1.33,22.27-2.51,35.19-11.05,5,4.5,12.94,7.44,22,7.44,8.82,0,16.64-2.81,21.62-7.13,12.71,8.27,23.12,9.42,34.73,10.74,15.69,1.78,57.52,7.18,79.93-17.19,6-4.1,39.11-17.06,29.76-83.36a.37.37,0,0,1,.25-.38c-10.8-16-51.18-59.42-170.51-58.68-113.6.7-157.67,50.2-168.76,62.57C181.23,280.45,182.4,331.52,222.15,339.1Z"/><path class="cls-1" d="M538.73,258.58a26,26,0,0,0-10.12,2.08c2.52,10.78,8.17,35.06,13,56.81,13.94-1.55,24.81-14.1,24.81-29.36C566.45,271.8,554,258.58,538.73,258.58Z"/><path class="cls-1" d="M182.18,261.26a3.32,3.32,0,0,1-.55-.39,1.38,1.38,0,0,0,0,.2,26.1,26.1,0,0,0-11.13-2.49c-15.31,0-27.72,13.22-27.72,29.53,0,15.75,11.59,28.59,26.17,29.45C173.09,289.5,179,270.21,182.18,261.26Z"/><path class="cls-2" d="M342,243.91c0,7.54-5.48,13.66-12.25,13.66s-12.26-6.12-12.26-13.66,5.49-13.66,12.26-13.66S342,236.36,342,243.91Z"/><path class="cls-2" d="M393.27,243.91c0,7.54-5.48,13.66-12.25,13.66s-12.26-6.12-12.26-13.66,5.49-13.66,12.26-13.66S393.27,236.36,393.27,243.91Z"/><path class="cls-3" d="M385.34,274.65c0,9.32-12.06,16.87-26.92,16.87s-26.93-7.55-26.93-16.87,12.06-16.88,26.93-16.88S385.34,265.33,385.34,274.65Z"/><path class="cls-4" d="M481.87,249.74c-16.77-13.31-11.2-6.68-8.84-1.61,3,6.46,4.82,26.12-5.62,32.95s-24.91-.81-45.81-8c-13.08-4.53-26.78-2-36.29,1.27,0,.11,0,.22,0,.34,0,9.32-12.06,16.87-26.92,16.87s-26.93-7.55-26.93-16.87c0-.12,0-.23,0-.34-9.51-3.24-23.21-5.8-36.29-1.27-20.89,7.23-35.36,14.87-45.81,8s-8.63-26.49-5.62-32.95c2.36-5.07,7.93-11.7-8.84,1.61-17.9,14.2-39.63,41.58-20.74,78.15s69.76,29.93,87.44,27.92,32.42-3.61,56.76-30.21c24.33,26.6,39.15,28.21,56.75,30.21s68.56,8.64,87.45-27.92S499.77,263.94,481.87,249.74Z"/><path class="cls-4" d="M183.33,261.39c4.82-3.62,45.3-64.42,171.27-65.19,146.15-.91,173.88,64.48,173.88,64.48s22.3-33.45,12.66-75.63c-5.25-23-82.57-66.91-191.06-62.69-102.24,4-184.29,54.9-186.84,61.48C151.79,213.37,179.24,264.46,183.33,261.39Z"/><path class="cls-5" d="M275.64,222.41c-.58,5.23,4.52,15.37,12.06,18.08s18.72-7.73,28-12.65c10.25-5.43,27.13-7.84,31.55-14.07,3.9-5.49,2.51-21.19-8.34-22.7-5.77-.8-17.78.91-21.7,2.11s-19.79,6.43-28.23,13.36C282,212.28,276.25,217,275.64,222.41Z"/><path class="cls-5" d="M369.67,187.46c-3,1.55-13.36,17.07-3.72,23.5,5.63,3.76,21.3,5.33,30.34,12.26s18.78,16.07,28.72,10.64,11.16-16.77,7.84-21.29-13.46-13.26-27.12-20.29C396.46,187.51,376.6,183.84,369.67,187.46Z"/><path class="cls-5" d="M549.77,356.62c-1.95-13.43-16.68-76.82-21.19-96.09l-.1.15a39.33,39.33,0,0,0-3.37-5.8.37.37,0,0,0-.25.38c9.35,66.3-23.8,79.26-29.76,83.36-22.41,24.37-64.24,19-79.93,17.19-11.61-1.32-22-2.47-34.73-10.74-5,4.32-12.8,7.13-21.62,7.13-9,0-17-2.94-22-7.44-12.92,8.54-23.44,9.72-35.19,11.05-15.59,1.77-57,7.12-79.51-16.71-39.75-7.58-40.92-58.65-36.31-80.33a27.31,27.31,0,0,1-2.51,2.62c-.28.21-.67.14-1.15-.13-4.53,12.88-14.84,47.14-17.33,98.17-3.22,65.89,8.84,131.79,47,170.36S334.81,576,361.73,576s100.85.4,151.08-59.87S553,378.71,549.77,356.62Z"/><path class="cls-6" d="M453.74,62.7C445.91,51.24,413.36.62,353.69,0S254.85,17.49,230.14,33.77c-12.83,8.45-41.59,24.71-77.75,63.88-24.74,26.81-45.34,55.78-56.38,72.2a65.48,65.48,0,0,1,31.21,22.62C132.79,187,139.73,180,142.75,176c5.42-7.23,33.15-34.35,57.86-38.57,4-.68-.7,13-3.78,25,33.68-16.85,89.54-37.56,153.25-40,62-2.41,113.8,10.92,147.81,27.07C486.25,124.83,460.14,72.05,453.74,62.7Z"/><circle class="cls-5" cx="74.94" cy="231.75" r="65.39"/><path class="cls-7" d="M358.42,325.6a132,132,0,0,1-16.66,15.65,28.73,28.73,0,0,0,33.31,0A132,132,0,0,1,358.42,325.6Z"/></svg>