<svg xmlns="http://www.w3.org/2000/svg" width="2160" height="1620" viewBox="0 0 2160 1620" version="1.1"><path d="M 1071 87.593 C 1069.075 87.812, 1063.225 88.471, 1058 89.058 C 1045.697 90.441, 1020.830 95.374, 1010 98.581 C 987.142 105.349, 971.008 114.019, 953.500 128.943 C 948.550 133.163, 942.424 137.810, 939.887 139.269 C 937.350 140.729, 933.850 143.546, 932.108 145.530 C 926.223 152.232, 912.723 183.227, 910.065 196.140 C 908.979 201.417, 908.551 202.015, 903.426 205.418 C 889.278 214.812, 863.624 244.296, 855.438 260.572 L 850.705 269.983 845.102 269.408 C 842.021 269.092, 838.912 268.650, 838.193 268.426 C 836.216 267.810, 813.170 269.868, 798.487 271.971 C 770.714 275.950, 749.265 282.195, 742.265 288.340 C 734.962 294.752, 734.348 301.365, 739.497 318.121 C 742.988 329.482, 743.621 333.522, 742.235 335.603 C 741.831 336.210, 737.450 339.301, 732.500 342.473 C 722.365 348.966, 712.404 357.105, 706.584 363.645 L 702.668 368.046 699.803 362.077 C 697.473 357.222, 696.275 355.867, 693.386 354.823 C 689.145 353.289, 688.968 352.919, 680.810 328.500 C 670.594 297.923, 661.991 282.235, 646.707 266.315 C 638.236 257.491, 629.130 251.874, 621.099 250.517 C 615.703 249.605, 607.309 252.123, 601.816 256.300 C 598.215 259.040, 592.338 266.445, 590.566 270.477 C 590.307 271.066, 589.698 270.864, 589.129 270 C 583.185 260.964, 568.170 242.018, 562.486 236.381 C 551.961 225.945, 543.764 223.749, 533.392 228.587 C 528.035 231.086, 518.978 240.544, 516.191 246.548 C 514.553 250.076, 512.729 252.187, 509.920 253.804 C 501.424 258.693, 495.216 271.826, 492.957 289.688 C 491.175 303.781, 493.957 328.670, 497.918 334.078 C 499.489 336.224, 499.661 337.430, 498.944 341.269 C 497.395 349.559, 495.747 385.248, 496.402 396.308 L 497.043 407.116 493.018 410.983 C 488.819 415.017, 486.136 420.235, 484.158 428.212 C 482.126 436.410, 480 458.042, 480 470.520 C 480 504.709, 489.604 534.192, 507.659 555.430 C 511.790 560.289, 511.853 562.224, 508.467 580.116 C 504.905 598.943, 504.373 609.464, 506.434 620.374 C 510.311 640.891, 517.835 657.773, 528.948 670.890 C 532.495 675.075, 542.289 685.299, 550.712 693.610 L 566.027 708.719 563.566 718.110 C 558.388 737.867, 556.781 756.299, 558.088 780.958 C 559.438 806.426, 563.109 828.449, 572.932 870 C 575.728 881.825, 578.957 895.550, 580.109 900.500 C 581.261 905.450, 583.738 913.628, 585.615 918.674 L 589.026 927.847 583.550 947.996 C 575.063 979.219, 572.054 1004.602, 575.109 1019.201 C 577.261 1029.487, 583.473 1038.358, 594.227 1046.500 L 596.869 1048.500 595.992 1058 C 595.510 1063.225, 594.639 1072.450, 594.058 1078.500 C 593.477 1084.550, 593.001 1095.861, 593.001 1103.636 C 593 1114.229, 592.626 1118.489, 591.506 1120.636 C 589.651 1124.193, 589.618 1126.003, 591.363 1128.527 C 592.283 1129.858, 593.086 1136.680, 593.830 1149.500 C 595.017 1169.929, 599.238 1197.950, 603.469 1213.481 C 606.319 1223.940, 622.312 1270.985, 629.919 1291.284 C 635.285 1305.602, 649.972 1339.290, 654.211 1347 C 655.571 1349.475, 658.625 1355.100, 660.998 1359.500 C 666.235 1369.213, 678.555 1387.871, 683.724 1393.917 C 695.772 1408.012, 705.098 1414.437, 718.107 1417.607 L 724.713 1419.217 725.296 1430.358 C 725.616 1436.486, 727.061 1448.408, 728.505 1456.851 C 729.950 1465.294, 730.923 1472.410, 730.669 1472.665 C 730.414 1472.919, 722.977 1472.719, 714.142 1472.219 C 686.926 1470.681, 668.919 1473.257, 652.014 1481.104 C 633.125 1489.874, 624.471 1502.310, 616.974 1531.459 C 607.831 1567.008, 610.914 1583.682, 628.279 1592.607 C 634.394 1595.750, 649.111 1599.629, 659.974 1600.961 C 673.066 1602.566, 702.186 1602.181, 727 1600.074 C 739.375 1599.023, 754.675 1597.872, 761 1597.517 C 773.649 1596.806, 813.032 1593.288, 817 1592.515 C 818.375 1592.247, 827.024 1591.329, 836.219 1590.475 C 861.225 1588.154, 867.804 1585.439, 872.088 1575.678 C 874.508 1570.164, 874.587 1568.550, 876.420 1487.500 C 876.669 1476.500, 877.168 1463, 877.529 1457.500 C 878.501 1442.702, 875.796 1423.643, 871 1411.500 C 869.898 1408.711, 870.178 1407.902, 874.979 1400 C 877.820 1395.325, 885.568 1380.475, 892.197 1367 C 910.842 1329.099, 934.952 1280.714, 935.435 1280.232 C 936.655 1279.011, 956.341 1324.468, 968.544 1356.686 C 976.525 1377.755, 982.328 1390.101, 987.058 1396.073 L 990.142 1399.967 989.007 1407.733 C 988.382 1412.005, 986.557 1422.475, 984.950 1431 C 980.098 1456.741, 978.179 1470.038, 974.509 1503.320 C 970.575 1538.989, 970.379 1543.545, 972.469 1550.585 C 976.585 1564.443, 997.607 1574.362, 1030.500 1577.966 C 1068.485 1582.128, 1135.792 1583.382, 1165.110 1580.473 C 1203.538 1576.661, 1232.746 1569.977, 1244.500 1562.305 C 1258.012 1553.486, 1262.584 1539.551, 1258.123 1520.779 C 1250.578 1489.022, 1227.849 1470.673, 1190.370 1466.082 C 1166.273 1463.130, 1149.112 1463.669, 1130.686 1467.957 C 1125.470 1469.171, 1123.028 1469.397, 1123.341 1468.638 C 1135.963 1438.012, 1141.025 1423.769, 1142.472 1414.809 C 1142.997 1411.559, 1144.049 1410.432, 1151.284 1405.363 C 1192.601 1376.419, 1219.441 1341.246, 1240.844 1288 C 1260.398 1239.354, 1268.334 1210.544, 1272.431 1173.328 C 1274.905 1150.861, 1277.305 1099.065, 1276.570 1084 C 1275.484 1061.742, 1269.478 1012.456, 1264.505 985 C 1263.160 977.575, 1260.720 962.898, 1259.081 952.385 C 1257.443 941.871, 1254.940 928.682, 1253.519 923.076 C 1249.232 906.161, 1241.978 869.221, 1242.617 867.555 C 1243.423 865.455, 1242.346 861.489, 1240.456 859.599 C 1239.364 858.507, 1237.899 850.431, 1235.423 831.850 C 1233.503 817.435, 1231.112 801.862, 1230.110 797.242 L 1228.288 788.842 1230.394 789.477 C 1264.679 799.816, 1288.964 800.421, 1299.623 791.201 C 1303.485 787.860, 1306.204 782.562, 1311.099 768.843 C 1316.306 754.250, 1317.875 745.618, 1319.288 723.800 L 1320.500 705.099 1333.415 713.538 C 1341.969 719.128, 1349.904 723.376, 1356.915 726.118 C 1400.115 743.018, 1461.951 745.865, 1494.217 732.439 C 1509.204 726.203, 1522.046 715.724, 1525.996 706.509 C 1527.722 702.482, 1528.280 701.997, 1531.214 701.976 C 1538.787 701.922, 1558.110 691.176, 1564.975 683.202 C 1574.997 671.560, 1577.151 657.495, 1570.894 644.545 C 1569.302 641.249, 1569.167 640.024, 1570.090 637.228 C 1573.149 627.957, 1566.577 620.769, 1548.387 613.492 C 1536.906 608.899, 1523.376 606.043, 1503.323 603.982 C 1492.720 602.892, 1483.291 602, 1482.368 602 C 1479.387 602, 1483.634 598.316, 1496.500 589.740 C 1510.533 580.386, 1513.508 577.813, 1516.092 572.790 C 1527.464 550.680, 1480.853 531.054, 1422.500 533.381 C 1413.700 533.732, 1401.537 534.521, 1395.471 535.134 L 1384.443 536.248 1377.471 532.744 C 1361.623 524.777, 1322.926 512.022, 1302.320 507.973 C 1287.036 504.969, 1265.505 504.224, 1257.034 506.405 C 1237.827 511.349, 1224.539 525.200, 1206.851 558.714 C 1202.862 566.271, 1199.224 572, 1198.413 572 C 1194.199 572, 1175.843 568.666, 1165.903 566.095 C 1152.473 562.621, 1139.612 557.837, 1127.928 551.968 C 1118.893 547.430, 1098.430 534.705, 1093.500 530.558 L 1090.500 528.035 1098 528.635 C 1102.125 528.966, 1108.425 529.572, 1112 529.983 C 1122.624 531.205, 1133.998 527.075, 1143.231 518.642 C 1145.194 516.848, 1146.564 516.191, 1146.808 516.924 C 1147.925 520.276, 1154.071 526.675, 1158.225 528.813 C 1163.533 531.545, 1167.300 531.336, 1172.755 528.009 C 1179.387 523.964, 1187.804 507.241, 1192.418 488.943 C 1196.193 473.974, 1197.237 462.736, 1196.846 441.277 L 1196.500 422.295 1202.500 417.935 C 1205.800 415.538, 1210.300 412.110, 1212.500 410.318 C 1214.700 408.526, 1220.119 404.181, 1224.543 400.662 L 1232.587 394.264 1236.154 396.882 C 1238.116 398.322, 1243.046 402.024, 1247.111 405.108 C 1251.175 408.193, 1256.412 411.763, 1258.750 413.042 C 1261.224 414.397, 1263 416.093, 1263 417.104 C 1263 418.059, 1261.828 423.704, 1260.395 429.650 C 1257.534 441.522, 1257.552 447.163, 1260.472 453.306 C 1263.263 459.179, 1268.082 462.306, 1275.126 462.815 C 1282.438 463.344, 1287.895 461.883, 1295.018 457.487 C 1298.033 455.627, 1300.783 454.418, 1301.129 454.802 C 1301.475 455.186, 1302.331 457.300, 1303.031 459.500 C 1306.809 471.377, 1314.916 476.771, 1324.961 474.091 C 1330.716 472.555, 1336.597 468.775, 1350.310 457.796 L 1361.246 449.040 1367.469 452.520 C 1374.256 456.315, 1378.463 456.846, 1383.033 454.483 C 1388.310 451.754, 1390.733 444.511, 1392.394 426.500 L 1393.500 414.500 1401.243 413.951 C 1409.700 413.351, 1413.446 411.470, 1415.818 406.632 C 1417.452 403.300, 1416.301 399.214, 1411.275 390.500 C 1407.591 384.113, 1397.910 370.687, 1394.844 367.711 C 1392.380 365.321, 1392.501 364.423, 1395.862 360.144 C 1400.315 354.473, 1407.752 341.123, 1410.148 334.500 C 1417.528 314.095, 1406.925 304.685, 1380.163 307.892 C 1374.298 308.595, 1367.422 309.408, 1364.883 309.699 L 1360.267 310.229 1357.567 303.364 C 1352.229 289.791, 1343.829 280.323, 1336.220 279.303 C 1330.669 278.558, 1324.636 282.018, 1313.981 292.057 L 1305.500 300.048 1300.362 289.274 C 1293.100 274.046, 1288.986 262.504, 1280.930 234.757 C 1271.832 203.421, 1269.953 198.232, 1261.830 182 C 1248.544 155.455, 1231.883 137.310, 1204 119.023 C 1182.162 104.699, 1154.622 93.978, 1128 89.436 C 1118.946 87.891, 1079.581 86.619, 1071 87.593 " stroke="none" fill="#000000" fill-rule="evenodd"/><path d="M 1075.776 106.083 C 1050.774 107.515, 1015.515 114.740, 996.939 122.236 C 987.408 126.083, 974 133.569, 974 135.044 C 974 135.570, 975.741 136, 977.869 136 C 983.555 136, 998.212 138.684, 1008.500 141.610 C 1041.811 151.082, 1101.854 182.531, 1142.473 211.781 C 1178.253 237.547, 1200.604 260.095, 1227.211 297.267 C 1237.033 310.989, 1248.207 332.096, 1250.080 340.467 C 1250.761 343.510, 1251.634 346, 1252.020 346 C 1252.406 346, 1252.940 335.087, 1253.206 321.750 C 1253.729 295.472, 1254.136 293.398, 1259.615 289.088 C 1263.826 285.776, 1267.890 286.399, 1275.340 291.500 C 1278.954 293.975, 1282.139 296, 1282.418 296 C 1282.696 296, 1281.332 292.288, 1279.386 287.750 C 1274.212 275.685, 1268.731 259.347, 1262.581 237.657 C 1256.196 215.139, 1251.659 202.254, 1246.495 191.966 C 1234.317 167.709, 1217.897 149.862, 1192.748 133.548 C 1176.447 122.974, 1151.933 113.060, 1132.112 109.025 C 1123.998 107.373, 1095.879 104.732, 1091 105.164 C 1090.175 105.237, 1083.324 105.650, 1075.776 106.083 M 1058.613 521.750 C 1057.612 525.108, 1053.015 550.724, 1047.981 581 C 1041.871 617.747, 1038.692 633.481, 1036.412 638.262 C 1032.759 645.922, 1024.698 646.857, 1017.254 640.485 C 1015.014 638.568, 1012.773 637, 1012.274 637 C 1011.774 637, 1010.556 639.587, 1009.566 642.750 C 1005.486 655.786, 991.725 684.516, 981.665 701 C 979.483 704.575, 974.003 714.475, 969.487 723 C 957.379 745.857, 954.548 750.322, 949.013 755.298 C 940.013 763.390, 913.042 778.981, 908 779.006 C 903.376 779.029, 895.104 784.949, 881.260 798.143 C 855.108 823.067, 836.997 837.806, 825.392 843.609 C 815.530 848.541, 809.030 849.023, 798.622 845.595 C 789.617 842.628, 784.069 842.406, 772.063 844.529 C 754.806 847.580, 748.245 843.436, 737.998 823.013 C 729.662 806.400, 724.008 789.579, 715.473 756 C 713.026 746.375, 710.728 737.437, 710.366 736.137 C 709.878 734.385, 707.594 732.802, 701.536 730.017 C 691.503 725.403, 686.345 721.057, 685.091 716.159 C 684.576 714.146, 684.164 701.925, 684.176 689 C 684.208 655, 682.900 648.651, 672.282 631.241 C 661.405 613.406, 658.860 607.310, 658.257 597.643 C 657.889 591.734, 658.239 587.022, 659.454 581.562 C 660.399 577.314, 660.963 573.630, 660.708 573.375 C 660.075 572.742, 635.141 613.169, 621.774 636.500 C 596.446 680.710, 582.739 712.116, 578.327 736.047 C 577.007 743.208, 576.593 750.712, 576.621 767 C 576.673 797.526, 579.742 818.957, 590.496 863.893 C 593.523 876.543, 596 887.142, 596 887.447 C 596 887.751, 597.064 888, 598.365 888 C 602.657 888, 660.536 905.922, 677.832 912.607 C 690.132 917.361, 692 917.753, 692 915.577 C 692 914.794, 693.125 912.816, 694.500 911.182 C 695.875 909.548, 697 907.856, 697 907.421 C 697 904.863, 701.635 897.771, 704.439 896.038 C 711.063 891.944, 718.650 892.743, 789.500 904.997 C 831.153 912.201, 834.547 914.077, 840.690 933.289 C 843.184 941.090, 843.733 942.021, 845.575 941.564 C 852.776 939.779, 877.228 936.602, 907.500 933.519 C 954.362 928.745, 1037.425 915.889, 1086 905.891 C 1120.978 898.691, 1162.475 886.689, 1186.456 876.837 C 1193.080 874.115, 1203.675 869.863, 1210 867.389 C 1216.325 864.914, 1221.792 862.577, 1222.149 862.195 C 1222.505 861.813, 1222.417 857.129, 1221.952 851.787 C 1220.358 833.481, 1214.953 804.484, 1207.545 774.500 C 1197.354 733.250, 1194.538 717.953, 1191.437 687 C 1189.304 665.703, 1189.308 625.178, 1191.445 604.500 C 1192.298 596.250, 1192.997 589.163, 1192.998 588.750 C 1192.999 588.337, 1191.987 587.998, 1190.750 587.996 C 1189.513 587.994, 1182.134 586.680, 1174.353 585.077 C 1146.054 579.246, 1122.112 569.319, 1099.085 553.867 C 1086.117 545.165, 1070.772 532.197, 1064.342 524.505 C 1060.196 519.545, 1059.387 519.155, 1058.613 521.750 M 654.500 543.649 C 653.400 544.522, 649.800 546.483, 646.500 548.007 C 624.906 557.985, 596.397 563.761, 558 565.939 C 547.825 566.515, 537.239 567.235, 534.475 567.538 L 529.449 568.088 527.086 580.794 C 525.786 587.782, 524.526 598.450, 524.286 604.500 C 523.913 613.914, 524.212 616.900, 526.356 625.206 C 529.732 638.279, 535.366 649.869, 543.001 659.446 C 549.310 667.360, 572.733 692.024, 573.891 691.973 C 574.226 691.959, 576.938 686.671, 579.918 680.223 C 592.959 652.004, 612.664 617.153, 633.612 585.257 C 640.924 574.124, 648.994 561.576, 651.545 557.373 C 659.130 544.877, 660.403 538.969, 654.500 543.649 M 598.238 952.765 C 587.123 999.025, 587.793 1020.740, 600.638 1030.537 C 612.746 1039.773, 644.766 1048.463, 687 1053.975 C 762.067 1063.773, 816.629 1068.089, 889.500 1069.994 C 912.600 1070.598, 943.650 1071.431, 958.500 1071.846 C 1014.884 1073.421, 1061.502 1070.417, 1104.881 1062.415 C 1123.450 1058.989, 1134.132 1056.166, 1157 1048.642 C 1197.647 1035.267, 1238.902 1017.808, 1247.933 1010.160 L 1251.367 1007.252 1246.658 978.876 C 1240.358 940.906, 1239.840 938, 1239.368 938 C 1239.145 938, 1234.358 940.211, 1228.731 942.912 C 1217.422 948.343, 1188.972 958.887, 1170.693 964.423 C 1154.035 969.469, 1098.097 984.247, 1082 987.856 C 1060.828 992.602, 1038.625 996.717, 1025 998.421 C 988.063 1003.039, 916.459 1006.547, 873.012 1005.867 L 849.525 1005.500 848.784 1011.500 C 846.549 1029.599, 840.817 1033.281, 819.133 1030.547 C 785.308 1026.282, 745.358 1016.503, 712.852 1004.532 C 698.532 999.258, 691.736 995.177, 687.821 989.500 C 685.276 985.810, 684.530 983.524, 682.300 972.576 C 681.653 969.404, 680.925 968.470, 678.500 967.704 C 671.485 965.486, 639.630 952.854, 629.500 948.272 C 623.450 945.535, 615.455 941.430, 611.732 939.148 C 608.010 936.867, 604.410 935.007, 603.732 935.015 C 602.965 935.024, 600.890 941.728, 598.238 952.765 M 1251.500 1121.622 C 1244.053 1124.378, 1208.599 1133.923, 1191 1137.909 C 1167.420 1143.250, 1152.328 1146.044, 1114.500 1152.074 C 1096.900 1154.879, 1075.750 1158.257, 1067.500 1159.580 C 1059.250 1160.903, 1045.975 1162.665, 1038 1163.497 C 1030.025 1164.328, 1018.550 1165.671, 1012.500 1166.481 C 972.705 1171.809, 938.706 1173.413, 880.500 1172.708 C 814.873 1171.912, 774.396 1168.449, 713.500 1158.419 C 680.889 1153.047, 648.264 1145.595, 623.646 1137.895 C 616.577 1135.683, 610.530 1134.137, 610.208 1134.459 C 609.886 1134.781, 610.153 1142.797, 610.802 1152.272 C 612.008 1169.904, 615.548 1193.462, 619.057 1207.218 C 621.957 1218.584, 641.863 1276.494, 649.504 1295.795 C 658.590 1318.745, 676.221 1354.036, 685.931 1368.712 C 695.299 1382.870, 707.297 1395.639, 714.215 1398.814 C 726.713 1404.549, 748.933 1405.716, 807.530 1403.714 C 854.697 1402.103, 853.639 1402.293, 858.988 1394.518 C 860.683 1392.054, 876.222 1361.496, 893.520 1326.610 C 927.672 1257.733, 926.898 1258.991, 935.118 1259.007 C 941.630 1259.019, 946.904 1264.529, 953.900 1278.628 C 959.039 1288.984, 977.373 1332.781, 983.988 1350.500 C 990.230 1367.222, 997.320 1382.647, 1000.148 1385.657 C 1006.557 1392.479, 1024.486 1395.314, 1081 1398.439 C 1096.125 1399.276, 1111.117 1400.220, 1114.316 1400.537 C 1123.562 1401.454, 1129.850 1399.611, 1139.825 1393.061 C 1160.379 1379.565, 1183.421 1356.787, 1196.520 1337.017 C 1211.941 1313.741, 1219.592 1298.028, 1233.819 1260.404 C 1250.159 1217.193, 1255.708 1188.552, 1258.552 1132.750 C 1259.285 1118.357, 1259.482 1118.667, 1251.500 1121.622" stroke="none" fill="#f1000b" fill-rule="evenodd"/><path d="M 953.721 153.420 C 951.093 154.127, 947.840 155.741, 946.493 157.007 C 943.628 159.698, 936.652 172.903, 931.705 185 C 926.186 198.494, 926.225 197.999, 930.683 198.004 C 941.367 198.014, 960.139 202.477, 976.782 208.963 C 1011.543 222.510, 1044.535 241.214, 1070.574 262.138 C 1097.167 283.506, 1111.796 303.767, 1115.106 323.813 C 1116.194 330.399, 1116.494 331, 1118.689 331 C 1123.262 331, 1136.542 334.193, 1144.142 337.119 C 1153.854 340.859, 1167.269 348.889, 1172.720 354.226 C 1180.149 361.500, 1185.702 374.326, 1190.387 395.033 L 1192.754 405.500 1194.539 402.500 C 1195.520 400.850, 1201.508 395.450, 1207.844 390.500 C 1214.181 385.550, 1220.071 380.279, 1220.933 378.787 C 1221.795 377.295, 1223.665 375.182, 1225.089 374.091 C 1231.719 369.013, 1236.524 349.190, 1233.412 339.762 C 1232.551 337.156, 1231.468 334.789, 1231.005 334.503 C 1230.541 334.216, 1228.481 330.949, 1226.427 327.241 C 1214.772 306.210, 1192.233 277.193, 1173.375 258.943 C 1153.451 239.662, 1118.082 213.899, 1087 196.029 C 1058.440 179.608, 1020.647 162.312, 1001.963 157.113 C 985.072 152.412, 963.586 150.767, 953.721 153.420 M 946.363 244.922 C 944.088 245.956, 940.304 248.533, 937.956 250.651 L 933.685 254.500 939.593 255.141 C 948.383 256.096, 972 256.124, 972 255.180 C 972 253.623, 964.791 245.943, 961.949 244.474 C 958.064 242.465, 951.350 242.658, 946.363 244.922 M 1005 282.548 C 1005 282.915, 1007.209 286.518, 1009.908 290.554 C 1016.604 300.566, 1019.110 307.616, 1019.750 318.250 C 1020.040 323.063, 1020.643 327, 1021.091 327 C 1022.677 327, 1028.699 319.970, 1031.564 314.773 C 1033.949 310.449, 1034.474 308.301, 1034.486 302.836 C 1034.498 297.044, 1034.107 295.605, 1031.493 291.836 C 1027.629 286.264, 1021.658 283.376, 1012.250 282.530 C 1008.263 282.172, 1005 282.180, 1005 282.548 M 927 285.727 C 926.175 286.040, 923.647 287.560, 921.383 289.105 C 914.705 293.660, 913.779 302.626, 919.438 307.942 C 921.465 309.846, 922.657 310.175, 925.932 309.736 C 928.139 309.440, 931.577 308.188, 933.574 306.954 L 937.204 304.711 934.237 302.389 C 930.213 299.239, 928.596 294.967, 929.349 289.474 C 929.964 284.983, 929.771 284.675, 927 285.727 M 818.500 288.099 C 787.219 291.358, 756.948 298.366, 755.271 302.736 C 754.946 303.584, 756.109 309.155, 757.856 315.117 C 761.871 328.819, 762.495 333.448, 761.049 338.817 C 759.376 345.030, 754.422 349.891, 741.611 357.888 C 728.416 366.125, 717.786 375.586, 711.277 384.888 C 708.733 388.525, 705.865 392.400, 704.904 393.500 C 703.352 395.279, 703.162 397.990, 703.193 418 C 703.261 462.452, 695.637 493.492, 678.203 519.750 C 674.903 524.719, 674.726 525.326, 676.248 526.439 C 679.083 528.512, 680.123 533.045, 680.159 543.479 C 680.196 554.184, 679.241 560.890, 675.532 576 C 670.503 596.480, 671.127 599.917, 683.671 620.838 C 697.127 643.279, 699.066 651.733, 699.072 688.003 C 699.075 700.380, 699.414 711.052, 699.827 711.720 C 700.240 712.388, 704.385 714.703, 709.039 716.864 C 722.923 723.314, 721.932 721.433, 732.494 761.392 C 742.909 800.795, 753.368 825.916, 761.076 830.041 C 762.536 830.822, 765.290 830.692, 771.363 829.554 C 783.540 827.272, 791.079 827.541, 801.156 830.616 C 807.319 832.497, 810.841 833.065, 813.384 832.588 C 820.764 831.203, 839.540 816.653, 865.854 791.927 C 874.298 783.992, 883.748 775.524, 886.854 773.108 C 889.959 770.693, 901.275 764.417, 912 759.162 C 930.419 750.138, 931.916 749.189, 939.001 742.054 C 945.252 735.758, 947.570 732.418, 952.916 722 C 956.444 715.125, 963.081 703.081, 967.663 695.236 C 981.488 671.570, 992.444 648.315, 997.016 632.930 C 1001.168 618.961, 1004.325 615, 1011.308 615 C 1015.229 615, 1016.415 615.923, 1022.777 623.928 L 1024.706 626.355 1027.341 612.428 C 1028.791 604.767, 1032.027 586.125, 1034.534 571 C 1040.231 536.626, 1045.364 510.418, 1048.558 499.397 L 1051.019 490.906 1049.055 483.203 C 1043.790 462.550, 1042.667 447.496, 1045.921 441.210 C 1051.686 430.072, 1075.571 414.187, 1096.002 407.901 C 1105.821 404.881, 1119.977 404.668, 1127.968 407.422 C 1135.876 410.146, 1143.308 417.810, 1145.562 425.567 C 1147.743 433.066, 1147.083 445.317, 1144.095 452.816 C 1135.420 474.590, 1110.859 495.213, 1086.416 501.247 L 1077.965 503.334 1080.104 505.611 C 1083.775 509.518, 1088.340 510.938, 1101.127 512.148 C 1122.448 514.165, 1122.974 514.040, 1134.300 504.306 C 1141.524 498.098, 1144.556 496.677, 1149.240 497.305 C 1154.039 497.949, 1156.369 499.954, 1160.218 506.750 C 1161.853 509.637, 1163.751 512, 1164.435 512 C 1166.078 512, 1172.250 499.240, 1174.853 490.465 C 1178.732 477.386, 1180 466.673, 1180 446.975 C 1180 419.230, 1177.922 402.875, 1171.935 383.500 C 1168.742 373.164, 1165.690 367.803, 1160.205 362.892 C 1151.331 354.948, 1129.297 345, 1120.574 345 C 1117.210 345, 1117 345.191, 1116.994 348.250 C 1116.978 357.570, 1111.309 365.740, 1102.927 368.524 C 1098.799 369.895, 1094.368 370.113, 1076.205 369.834 C 1056.485 369.531, 1054.169 369.672, 1051.640 371.323 C 1049.683 372.601, 1046.977 377.083, 1042.585 386.323 C 1035.807 400.582, 1031.271 406.238, 1023.660 409.923 C 1011.106 416, 990.353 415.397, 958 408.014 C 939.982 403.903, 933.188 403.470, 916.798 405.393 C 887.695 408.806, 870.242 407.176, 855.291 399.647 C 839.186 391.536, 821.522 373.951, 814.919 359.454 C 811.752 352.501, 808.992 340.267, 809.017 333.292 C 809.064 320.495, 815.909 302.766, 824.489 293.224 C 829.240 287.939, 829.788 286.916, 827.750 287.133 C 827.063 287.206, 822.900 287.641, 818.500 288.099 M 1321.804 305.944 C 1314.991 312.400, 1310.688 317.322, 1309.702 319.788 C 1307.760 324.641, 1306.017 326.063, 1301.289 326.652 C 1296.982 327.188, 1290.481 323.755, 1277.937 314.318 C 1274.049 311.393, 1270.673 309, 1270.434 309 C 1270.195 309, 1269.991 316.538, 1269.980 325.750 C 1269.960 343.011, 1268.916 353.897, 1266.844 358.443 C 1264.881 362.750, 1259.676 365.319, 1254.013 364.775 L 1249.154 364.308 1247.458 368.904 C 1246.526 371.432, 1244.898 375.019, 1243.841 376.876 C 1242.784 378.733, 1242.050 380.361, 1242.209 380.494 C 1251.484 388.226, 1260.696 394.873, 1271.150 401.379 C 1276.601 404.771, 1280.001 410.248, 1279.999 415.636 C 1279.998 417.761, 1278.873 424.141, 1277.499 429.814 C 1274.697 441.378, 1274.393 445.553, 1276.297 446.284 C 1278.291 447.049, 1284.234 444.683, 1292.190 439.957 C 1297.144 437.014, 1300.919 435.522, 1304.216 435.205 C 1308.677 434.777, 1309.258 434.994, 1312.323 438.244 C 1314.638 440.698, 1316.015 443.491, 1316.933 447.589 C 1318.342 453.889, 1319.935 458, 1320.965 458 C 1322.268 458, 1331.449 451.724, 1338.237 446.192 C 1354.277 433.122, 1354.836 432.811, 1361.500 433.260 C 1364.800 433.482, 1368.945 434.282, 1370.712 435.037 C 1372.478 435.792, 1374.173 436.160, 1374.479 435.855 C 1374.784 435.549, 1375.291 430.845, 1375.605 425.400 C 1376.655 407.176, 1380.295 400.465, 1390.526 397.889 C 1392.987 397.270, 1395 396.405, 1395 395.968 C 1395 395.280, 1389.687 388.060, 1379.748 375.245 C 1373.875 367.672, 1374.154 361.486, 1380.768 352.642 C 1388.401 342.437, 1395 330.028, 1395 325.878 C 1395 324.241, 1394.199 324, 1388.750 324.004 C 1385.313 324.006, 1378.450 324.673, 1373.500 325.486 C 1352.616 328.918, 1349.636 327.589, 1343.325 312.032 C 1338.880 301.072, 1336.250 296.690, 1333.832 296.213 C 1333.031 296.055, 1327.618 300.434, 1321.804 305.944 M 964.359 320.319 C 960.091 323.234, 959.223 324.456, 957.226 330.373 C 953.654 340.956, 956.096 347, 963.945 347 C 969.985 347, 981.896 339.539, 978.010 338.190 C 977.190 337.906, 975.277 336.431, 973.760 334.913 C 970.280 331.434, 969.997 325.359, 973.082 320.368 L 975.163 317 972.191 317 C 970.468 317, 967.176 318.395, 964.359 320.319 M 677.522 382.051 C 648.311 403.369, 615.330 413.936, 571.500 416.018 C 515.546 418.676, 507.657 420.088, 503.713 428.154 C 499.294 437.193, 497.334 477.490, 500.453 495.171 C 502.346 505.901, 506.321 518.686, 510.091 526.169 C 511.662 529.287, 516.109 536.008, 519.973 541.106 C 523.838 546.203, 527 550.798, 527 551.317 C 527 551.858, 528.604 551.983, 530.750 551.610 C 532.813 551.251, 544.321 550.291, 556.324 549.477 C 596.146 546.773, 622.532 541.312, 641.159 531.917 C 657.572 523.639, 673.456 500.104, 680.583 473.503 C 685.385 455.577, 686.519 443.836, 686.280 414.500 C 686.159 399.650, 685.709 385.128, 685.280 382.229 L 684.500 376.958 677.522 382.051 M 798.500 390.521 C 797.400 391.895, 794.404 395.225, 791.843 397.920 C 789.282 400.615, 785.321 406.583, 783.042 411.183 C 768.695 440.137, 780.805 467.642, 815.072 483.927 C 828.776 490.440, 839.476 493.096, 854.537 493.724 C 880.047 494.787, 898.050 488.161, 921.325 469.143 C 932.285 460.187, 934.893 455.013, 931.414 449.123 C 929.183 445.347, 925.908 444.546, 918.387 445.936 C 900.349 449.271, 875.710 444.894, 855.500 434.764 C 839.347 426.668, 822.591 413.087, 814.462 401.502 C 808.440 392.918, 803.944 387.999, 802.134 388.010 C 801.235 388.016, 799.600 389.146, 798.500 390.521 M 805 415.790 C 805 419.396, 808.122 429.662, 811.048 435.675 C 817.023 447.957, 833.927 460.480, 853.500 467.124 C 859.478 469.153, 862.398 469.496, 873.500 469.473 C 886.620 469.445, 895.176 467.698, 902.975 463.454 C 905.396 462.137, 905.289 462.078, 900.381 462.040 C 893.373 461.985, 879.140 459.433, 869.500 456.503 C 850.911 450.852, 829.775 437.925, 815.232 423.312 C 810.135 418.191, 805.748 414, 805.482 414 C 805.217 414, 805 414.805, 805 415.790 M 1257.759 523.423 C 1245.629 527.752, 1235.574 539.817, 1220.856 567.703 C 1217.002 575.005, 1212.370 582.375, 1210.562 584.080 C 1207.342 587.117, 1207.263 587.401, 1206.686 597.841 C 1206.362 603.703, 1205.588 616.825, 1204.966 627 C 1202.668 664.558, 1207.727 713.926, 1218.133 755.500 C 1219.785 762.100, 1221.530 767.902, 1222.010 768.392 C 1223.289 769.697, 1238.901 774.667, 1251 777.620 C 1263.480 780.666, 1279.948 781.832, 1285.344 780.051 C 1289.773 778.590, 1290.916 776.600, 1296.108 761.306 C 1300.563 748.182, 1301.447 741.911, 1303.500 708.883 C 1308.586 627.033, 1318.094 594.154, 1344.903 565.715 C 1348.531 561.866, 1355.027 556.030, 1359.338 552.746 C 1363.649 549.463, 1366.799 546.434, 1366.338 546.016 C 1363.832 543.745, 1327.060 531.074, 1311.500 527.120 C 1292.003 522.166, 1266.246 520.394, 1257.759 523.423 M 1249.975 1026.951 C 1239.367 1034.882, 1167.529 1062.520, 1135.500 1070.993 C 1114.686 1076.499, 1085.499 1081.336, 1053.760 1084.540 C 1011.007 1088.855, 868.251 1086.392, 787.500 1079.947 C 769.870 1078.539, 695.826 1070.362, 678.500 1067.908 C 654.060 1064.448, 624.276 1057.880, 612.465 1053.348 C 610.038 1052.417, 608.233 1116.649, 610.619 1119.010 C 614.166 1122.517, 675.886 1136.940, 715.597 1143.541 C 779.228 1154.119, 829.358 1158.144, 897 1158.107 C 946.943 1158.080, 967.817 1156.886, 1013 1151.468 C 1061.630 1145.637, 1054.127 1146.738, 1131.555 1134.069 C 1174.169 1127.097, 1224.629 1115.258, 1252.500 1105.694 L 1259.500 1103.291 1259.316 1086.396 C 1259.156 1071.718, 1258.288 1061.858, 1254.372 1030.250 C 1254.014 1027.362, 1253.447 1025.014, 1253.111 1025.032 C 1252.775 1025.049, 1251.364 1025.913, 1249.975 1026.951" stroke="none" fill="#ffffff" fill-rule="evenodd"/><path d="M 924 215.867 C 919.487 216.850, 916.754 218.346, 909.964 223.547 C 899.546 231.527, 879.848 254.562, 872.106 267.819 C 869.906 271.585, 867.407 275.247, 866.553 275.956 C 864.468 277.686, 864.592 279, 866.840 279 C 873.523 279, 891.759 293.113, 899.144 304.001 C 900.990 306.722, 902.770 308.960, 903.100 308.974 C 903.430 308.988, 903.484 305.637, 903.220 301.526 C 902.793 294.869, 903.038 293.443, 905.461 288.491 C 907.311 284.709, 909.229 282.382, 911.457 281.215 C 913.258 280.272, 917.155 278.182, 920.116 276.572 C 935.086 268.430, 952.645 276.945, 953.800 292.905 C 954.034 296.141, 953.687 300.417, 953.030 302.408 C 951.015 308.516, 944.878 315.250, 937.900 319.011 C 932.342 322.007, 930.568 322.464, 924.418 322.481 C 918.217 322.498, 916.816 322.140, 913.150 319.601 C 910.848 318.007, 908.776 316.891, 908.546 317.121 C 908.316 317.351, 910.124 320.641, 912.564 324.433 C 917.091 331.470, 917.721 333.974, 916.060 338.342 C 914.846 341.536, 909.852 342.789, 906.664 340.699 C 905.424 339.887, 900.182 332.984, 895.017 325.361 C 884.970 310.534, 875.860 300.608, 869.459 297.511 C 863.995 294.868, 853.111 294.304, 847.671 296.381 C 836.064 300.814, 825.982 318.025, 826.012 333.355 C 826.038 347.114, 830.722 356.683, 843.999 370.105 C 854.198 380.416, 861.977 385.478, 872.500 388.650 C 880.105 390.943, 897.397 390.929, 918.360 388.613 C 935.795 386.686, 941.082 387.133, 965.500 392.592 C 978.178 395.426, 984.464 396.281, 995.774 396.711 C 1017.246 397.527, 1020.507 395.723, 1027.493 379.157 C 1033.712 364.411, 1037.236 359.523, 1044.405 355.697 C 1048.213 353.665, 1050.249 353.477, 1073.473 353.006 L 1098.445 352.500 1099.742 350 C 1102.368 344.938, 1098.999 322.902, 1094.122 313.241 C 1085.307 295.779, 1061.763 273.778, 1031.829 255.031 C 1009.078 240.783, 970.046 222.923, 951 218.047 C 941.678 215.660, 929.469 214.674, 924 215.867 M 945.324 232.439 C 939.075 234.394, 935.110 237.184, 927.907 244.701 C 919.995 252.957, 917.985 257.101, 920.082 260.837 C 922.584 265.295, 926.604 266.747, 939.672 267.914 C 954.815 269.265, 972.414 269.315, 976.931 268.020 C 986.116 265.386, 988.573 257.449, 982.950 248.582 C 978.345 241.321, 970.789 234.457, 965.368 232.610 C 959.760 230.699, 951.126 230.625, 945.324 232.439 M 535.823 247.824 L 531.724 251.648 536.112 254.244 C 544.516 259.217, 553.547 270.975, 563.075 289.352 C 566.357 295.682, 566.430 296.055, 564.881 298.608 C 563.993 300.070, 562.182 301.926, 560.855 302.731 C 556.851 305.161, 552.045 301.485, 545.038 290.632 C 532.602 271.371, 529.447 268, 523.854 268 C 515.872 268, 510.045 281.850, 510.015 300.894 L 510 310.288 513.465 305.750 C 524.426 291.394, 543.264 295.652, 553.302 314.755 C 558.224 324.122, 568 349.188, 568 352.442 C 568 353.952, 566.897 356.194, 565.434 357.657 C 563.383 359.707, 562.249 360.100, 559.791 359.608 C 558.100 359.270, 556.092 358.207, 555.331 357.247 C 553.115 354.451, 546.635 341.295, 542.433 331.059 C 538.518 321.524, 532.912 314, 529.723 314 C 526.364 314, 521.527 323.847, 518.671 336.500 C 515.356 351.186, 512.027 400.358, 514.200 402.533 C 514.585 402.919, 519.310 402.709, 524.700 402.068 C 530.090 401.426, 545.975 400.503, 560 400.017 C 587.263 399.071, 602.390 396.966, 621.500 391.461 C 636.402 387.168, 658.760 375.630, 671.245 365.791 L 674.990 362.840 672.550 358.670 C 671.208 356.376, 667.189 345.854, 663.620 335.287 C 653.244 304.567, 647.146 293.318, 632.772 278.384 C 622.174 267.374, 615.960 265.619, 610.034 271.964 C 607.222 274.974, 605.532 279.585, 604.524 287 L 603.912 291.500 614.549 303 C 627.057 316.522, 629.007 319.750, 626.967 323.561 C 622.890 331.180, 617.614 329.225, 603.288 314.782 C 589.231 300.610, 582.435 292.382, 567.438 271.371 C 560.872 262.172, 553.317 252.251, 550.650 249.323 C 544.515 242.591, 541.735 242.310, 535.823 247.824 M 993.763 272.506 C 988.058 275.725, 988.830 283.311, 995.826 292.805 C 1004.392 304.428, 1006.143 308.912, 1007.095 321.661 C 1007.555 327.832, 1008.221 334.034, 1008.575 335.444 C 1009.350 338.532, 1014.396 343, 1017.109 343 C 1023.503 343, 1033 335.819, 1039.274 326.241 C 1045.507 316.724, 1047.194 311.815, 1047.163 303.278 C 1047.117 290.401, 1039.858 278.954, 1028.500 273.848 C 1024.276 271.949, 1021.405 271.550, 1010 271.280 C 999.232 271.025, 995.946 271.273, 993.763 272.506 M 965.698 306.444 C 959.900 308.512, 954.111 312.938, 949.887 318.533 C 944.500 325.668, 943 329.867, 943 337.811 C 943 346.033, 945.557 351.708, 951.385 356.421 C 954.943 359.299, 955.726 359.500, 963.346 359.493 C 970.720 359.486, 972.104 359.159, 977.813 356.070 C 985.258 352.042, 992.146 344.794, 993.811 339.236 C 999.996 318.594, 983.987 299.921, 965.698 306.444 M 1102.647 421.524 C 1090.388 424.616, 1070.207 435.793, 1061.920 444.080 L 1057.725 448.275 1058.324 456.040 C 1058.978 464.532, 1062.428 483.093, 1064.056 486.884 C 1065.035 489.165, 1065.370 489.238, 1071.790 488.583 C 1090.482 486.674, 1105.781 478.786, 1118.945 464.268 C 1127.163 455.205, 1131.356 446.646, 1131.781 438.066 C 1132.171 430.191, 1130.175 425.535, 1125.169 422.645 C 1120.795 420.119, 1110.290 419.597, 1102.647 421.524 M 1403.056 550.089 C 1387.856 550.928, 1386.419 551.175, 1384.056 553.344 C 1382.650 554.635, 1378.028 558.057, 1373.784 560.947 C 1358.364 571.450, 1347.622 583.253, 1339.149 599 C 1330.075 615.866, 1324.393 640.793, 1320.454 681.028 L 1319.815 687.555 1325.505 689.914 C 1328.635 691.211, 1335.314 694.984, 1340.348 698.299 C 1357.192 709.391, 1370.775 714.724, 1394.233 719.456 C 1412.574 723.156, 1427.988 724.359, 1448 723.653 C 1473.320 722.760, 1485.511 719.761, 1499.356 711.017 C 1515.746 700.666, 1516.651 690.889, 1502.221 680.083 C 1495.185 674.814, 1486.677 671, 1481.956 671 C 1478.164 671, 1473.616 666.557, 1474.403 663.622 C 1474.716 662.455, 1474.979 661.217, 1474.986 660.871 C 1475.023 659.204, 1481.475 657.769, 1486.571 658.295 C 1498.648 659.542, 1518.854 672.913, 1524.049 683.096 C 1526.317 687.542, 1526.856 687.500, 1538.509 681.974 C 1553.259 674.979, 1560.046 666.461, 1558.592 656.767 C 1558.236 654.393, 1557.147 651.130, 1556.171 649.517 L 1554.397 646.584 1527.880 646.880 L 1501.363 647.176 1498.182 644.499 C 1496.432 643.027, 1495 641.191, 1495 640.419 C 1495 637.990, 1499.209 634.050, 1502.418 633.475 C 1505.128 632.989, 1520.865 632.383, 1538.250 632.095 C 1546.791 631.954, 1545.961 629.700, 1536.250 626.665 C 1526.228 623.533, 1519.779 622.480, 1495.635 620.030 C 1471.936 617.626, 1468.634 616.834, 1464.310 612.510 C 1455.752 603.952, 1463.488 591.787, 1488 575.256 C 1494.325 570.990, 1499.500 566.825, 1499.500 566 C 1499.500 563.892, 1486.101 557.453, 1476.734 555.058 C 1458.299 550.347, 1431.337 548.528, 1403.056 550.089" stroke="none" fill="#ffdbb0" fill-rule="evenodd"/><path d="M 710.561 914.250 C 709.643 917.138, 707.127 923.100, 704.969 927.500 C 700.223 937.180, 697.836 949.553, 697.637 965.500 C 697.473 978.692, 698.561 981.355, 705.704 985.242 C 711.859 988.592, 739.094 997.874, 758 1003.065 C 775.909 1007.983, 802.431 1013.402, 818.968 1015.524 C 833.914 1017.441, 833.459 1017.729, 834.440 1005.717 C 835.171 996.766, 834.021 982.059, 830.963 961.250 C 826.860 933.326, 824.907 928.651, 816.128 925.726 C 806.860 922.639, 727.263 909.031, 718.365 909.013 L 712.230 909 710.561 914.250 M 746.418 931.958 C 741.349 934.214, 740.648 935.966, 738.548 951.597 C 736.232 968.835, 737.845 975.173, 746.482 982.776 C 753.870 989.278, 769.828 994.193, 778.360 992.592 C 785.378 991.276, 791.538 981.469, 796.567 963.605 C 801.346 946.628, 793.712 938.233, 768.245 932.456 C 755.614 929.590, 751.927 929.506, 746.418 931.958" stroke="none" fill="#ebb900" fill-rule="evenodd"/></svg>