<?xml version="1.0" encoding="utf-8"?>
<!-- Generator: Adobe Illustrator 25.4.1, SVG Export Plug-In . SVG Version: 6.00 Build 0)  -->
<svg version="1.1" id="Layer_1" xmlns="http://www.w3.org/2000/svg" xmlns:xlink="http://www.w3.org/1999/xlink" x="0px" y="0px"
	 viewBox="0 0 590.4 547.2" style="enable-background:new 0 0 590.4 547.2;" xml:space="preserve">
<style type="text/css">
	.st0{fill:#FBC4B3;}
	.st1{fill:#ED1C24;}
	.st2{fill:#F79D85;}
	.st3{fill:#F6917F;}
	.st4{fill:#FED402;}
	.st5{fill:#A23F36;}
</style>
<g>
	<path class="st0" d="M464.7,216.59c-19.79-4-52.64-11.99-80.06-14.74c-40.03-4-66.85-3.6-114.49-0.8
		c-30.52,1.8-61.47,9.62-80.8,14.35l-0.06,0.47c-3.69,11.9-10.43,40.41-12.67,56.4l-5.53,42.82c-2.99,18.66-5.61,33.19-4.09,40.48
		c2.67,12.81,10.94,25.62,38.16,18.68c27.22-6.94,49.77-27.09,121.16-27.22c76.35-0.14,90.07,24.15,123.16,20.95
		c33.09-3.2,36.16-19.35,37.23-30.02c0.49-4.86-1.89-20.55-4.78-45.45l-4.68-35.57C475.18,242.99,468.58,226.77,464.7,216.59z"/>
	<path class="st1" d="M472.7,173.84c-18.81-41.23-17.21-43.23-40.43-50.44c-1.44-0.45-2.96-0.88-4.55-1.29
		c-12.39-14.57-34.41-36.27-59.48-48.71c5.49-6.95,8.79-15.71,8.79-25.26c0-22.55-18.28-40.83-40.83-40.83
		c-22.55,0-40.83,18.28-40.83,40.83c0,7.67,2.16,14.83,5.84,20.96c-35.05,11.96-62.45,40.78-74.83,56.3
		c-29.44,5.51-29.24,4.35-52.7,52.44c-10.68,21.89-9.21,40.83-2.8,41.23c7.99,0.5,54.11-15.36,99.28-18.01
		c47.64-2.8,74.46-3.2,114.49,0.8s91.67,19.21,97.27,16.81C487.52,216.27,491.52,215.07,472.7,173.84z"/>
	<path class="st2" d="M363.92,269.71c0,8.59-1.88,17.1-7.02,23.21c-0.68,0.81-68.44,1.81-69.62,0c-4.37-6.69-7.02-14.62-7.02-23.21
		c0-23.1,18.73-41.83,41.83-41.83S363.92,246.61,363.92,269.71z"/>
	<g>
		<path d="M352.39,240.92c4.42-3.32,7.33-10.81,7.33-18.25c0-9.95-5.2-16.01-12.28-16.01s-13.34,6.06-13.34,16.01
			c0,2.49,0.39,4.98,1.09,7.33C341.81,232.18,347.69,235.98,352.39,240.92z"/>
		<path d="M291.79,240.92c4.7-4.94,10.58-8.74,17.2-10.92c0.7-2.34,1.09-4.84,1.09-7.33c0-9.95-6.27-16.01-13.34-16.01
			s-12.28,6.06-12.28,16.01C284.46,230.11,287.37,237.61,291.79,240.92z"/>
	</g>
	<g>
		<path class="st3" d="M323.19,343.16c22.04,0,40.69-6.43,47.07-15.3c-2.05-1.15-4.03-2.36-5.95-3.61
			c-6.15,6.59-22.21,11.3-41.12,11.3c-22.7,0-41.36-6.77-43.61-15.45c-1.82,1.1-3.69,2.1-5.61,3.02
			C276.23,334.36,297.39,343.16,323.19,343.16z"/>
		<path class="st3" d="M326.1,301.19c-2.3-0.27-4.44-0.25-6.61,0.02c1.22-0.04,2.45-0.07,3.7-0.07
			C324.17,301.13,325.13,301.17,326.1,301.19z"/>
	</g>
	<path d="M282.96,317.95c-1.11,0.76-2.24,1.47-3.38,2.16c2.25,8.68,20.91,15.45,43.61,15.45c18.91,0,34.97-4.71,41.12-11.3
		c-13.23-8.63-23.31-19.04-30.51-21.33c-2.89-0.92-5.38-1.47-7.7-1.74c-0.97-0.03-1.93-0.06-2.91-0.06c-1.25,0-2.48,0.03-3.7,0.07
		c-1.83,0.22-3.69,0.59-5.71,1.13C308.74,303.67,299.37,306.74,282.96,317.95z"/>
	<g>
		<path class="st4" d="M483.15,218.12C483.15,218.12,483.15,218.12,483.15,218.12c3.96,10.22,9.61,26.77,12.87,45.19
			c7.41,2.99,12.53,5.13,14.84,3c1.91-1.77,8.98-22.74,20.28-31.36c4.61-3.52,10.01-6.29,15.55-8.26
			c-12.23-37.55-34.28-62.7-54.27-59.01c-8.23,1.52-12.98,7.22-15.29,16.09C489.66,212.65,487.53,216.07,483.15,218.12z"/>
		<path class="st4" d="M550.79,241.22c-9.29,1.9-16.69,10.51-14.03,21.88c2.8,12.01,6,28.69-12.41,36.69
			c-6.92,3.01-14.52,2.53-21.59,0.76c2.81,15.23,5.73,30.54,8.52,44.34c0.1,0.5,0.2,1.01,0.3,1.52c4.19,3.47,8.98,4.95,14.57,3.92
			c24.06-4.44,36.02-48.93,26.71-99.37C552.24,247.66,551.54,244.41,550.79,241.22z"/>
	</g>
	<g>
		<path class="st4" d="M142.56,354.41c0.3-2.6,0.62-5.23,0.96-7.91c0.94-7.27,2.12-14.81,3.45-22.43c-1.82,0.17-3.7,0.28-5.71,0.28
			c-28.42,0-27.22-18.01-40.03-18.01c-2.02,0-3.8,0.23-5.44,0.59c2.25,29.43,13.02,51.07,29.42,54.09
			C132.07,362.28,137.74,359.78,142.56,354.41z"/>
		<path class="st4" d="M124.84,286.72c13.24,3.63,22.25,2.8,29.67-0.21c8.27-36.96,17.23-60.93,19.93-67.77c0,0,0,0,0,0
			c-1.55,0.25-2.76,0.38-3.57,0.33c-5.63-0.35-7.44-15.03-0.54-33.45c-2.67-3.82-6.39-6.33-11.42-7.26
			c-24.06-4.44-51.11,32.85-60.42,83.29c-1.47,7.98-2.41,15.8-2.85,23.34C103.58,283.43,112.79,283.42,124.84,286.72z"/>
	</g>
	<path class="st5" d="M186.87,216.01c-5.23,1.27-9.47,2.25-12.43,2.74c-2.7,6.84-11.66,30.81-19.93,67.77
		c-7.42,3.01-16.43,3.84-29.67,0.21c-24.82-6.81-37.63,0.4-52.04,6.4c-14.41,6-56.04,12.01-61.25,12.01
		c-5.2,0-11.58,5.76,19.21,9.61c12.81,1.6,29.92,2.47,38.43,1.6c15.61-1.6,19.21-10.01,32.02-10.01s11.61,18.01,40.03,18.01
		c2.01,0,3.9-0.11,5.71-0.28c-1.33,7.63-2.51,15.16-3.45,22.43c-19.95,154.29,38.43,171.86,70.99,180.94
		c32.56,9.07,78.99,20.82,202.29,3.74c123.29-17.08,105.68-130.77,94.47-186.28c-2.79-13.8-5.7-29.12-8.52-44.34
		c7.07,1.77,14.67,2.25,21.59-0.76c18.41-8.01,15.21-24.69,12.41-36.69c-2.8-12.01,5.6-20.95,15.61-22.15
		c14.19-1.7,30.29,4.8,30.82-6.67c0.73-15.73-32.6-14.17-52.04,0.67c-11.3,8.62-18.37,29.59-20.28,31.36c-2.31,2.13-7.43,0-14.84-3
		c-3.26-18.42-8.91-34.97-12.87-45.19c-0.4,0.19-0.82,0.37-1.24,0.55c-1.77,0.76-8.11-0.24-17.21-2.08
		c3.88,10.18,10.48,26.4,12.56,40.35c-5.75-1.4-12.09-2.34-18.96-2.25c-28.02,0.4-28.02,12.81-42.43,19.61
		c-10.18,4.81-31.43,7.56-52.45,9.13c-0.5,0.04-1,0.07-1.51,0.11c-1.12,3.46-2.73,6.66-5.01,9.37c-0.68,0.81-68.44,1.81-69.62,0
		c-1.96-3-3.56-6.27-4.74-9.73c-20.04-1.44-49.11-4.97-60.82-10.07c-13.85-6.04-32.41-7.33-45.09-0.84
		c2.24-15.99,8.97-44.5,12.67-56.4l0.06-0.47L186.87,216.01z M486.71,337.96c-1.07,10.67-4.14,26.82-37.23,30.02
		c-33.09,3.2-46.81-21.09-123.16-20.95c-71.39,0.13-93.94,20.28-121.16,27.22c-27.22,6.94-35.49-5.87-38.16-18.68
		c-1.52-7.29,1.09-21.82,4.09-40.48c6.41-4.59,10.2-9.15,13.79-9.15c7.21,0,6.81,16.41,34.43,21.62c27.62,5.2,47.24,1.6,63.65-9.61
		c16.41-11.21,25.78-14.28,30.82-15.61c6.81-1.8,11.81-2,20.02,0.6c12.26,3.89,32.82,31.42,63.25,33.43
		c30.42,2,38.43-0.4,53.64-21.62s21.62-23.62,26.82-23.62c0.93,0,2.46,0.55,4.42,1.38C484.83,317.41,487.2,333.1,486.71,337.96z"/>
</g>
</svg>
